<?xml version="1.0" standalone="no"?>
<!DOCTYPE svg PUBLIC "-//W3C//DTD SVG 20010904//EN"
 "http://www.w3.org/TR/2001/REC-SVG-20010904/DTD/svg10.dtd">
<svg version="1.0" xmlns="http://www.w3.org/2000/svg"
 width="460.000000pt" height="460.000000pt" viewBox="0 0 460.000000 460.000000"
 preserveAspectRatio="xMidYMid meet">
<metadata>
Created by potrace 1.11, written by Peter Selinger 2001-2013
</metadata>
<g transform="translate(0.000000,460.000000) scale(0.100000,-0.100000)"
fill="#000000" stroke="none">
<path d="M1500 4561 c0 -43 13 -86 33 -105 16 -16 122 -86 130 -86 4 0 26 -13
49 -29 24 -16 55 -32 71 -35 23 -5 27 -3 28 16 1 13 1 26 0 31 0 4 3 7 8 7 5
0 12 -15 15 -34 11 -60 56 -108 127 -138 41 -17 68 -23 74 -17 6 6 11 68 13
139 2 72 7 130 11 130 16 0 21 -133 21 -561 l0 -439 40 -6 c22 -4 40 -12 40
-19 0 -6 9 -20 20 -30 11 -10 20 -29 20 -42 0 -35 -48 -31 -86 8 l-29 30 -20
-63 -20 -63 -40 -1 c-22 0 -55 -8 -73 -18 -29 -15 -35 -15 -54 -1 -30 20 -38
19 -38 -5 0 -16 7 -20 31 -20 32 0 85 -26 93 -45 2 -7 -2 -32 -11 -57 -13 -42
-18 -46 -55 -52 -58 -9 -78 -23 -95 -64 -17 -41 -45 -236 -36 -258 3 -8 1 -14
-5 -14 -15 0 -26 -74 -24 -172 1 -86 -3 -99 -25 -77 -5 5 -25 18 -44 27 -22
11 -33 23 -31 34 1 9 -7 22 -18 28 -11 6 -20 8 -20 5 0 -3 -9 -1 -19 5 -14 7
-21 23 -23 52 l-3 42 -78 -1 c-88 -1 -108 -10 -77 -38 12 -11 20 -31 20 -51 0
-21 6 -37 17 -43 25 -13 10 -24 -36 -27 -21 -1 -44 -5 -51 -9 -21 -13 -372
-60 -782 -105 -43 -5 -81 -11 -86 -14 -4 -2 -102 -14 -217 -25 -116 -12 -222
-24 -237 -27 l-28 -6 0 -420 0 -420 22 6 c13 4 48 10 78 13 30 3 75 15 100 25
73 31 248 44 409 30 75 -7 153 -12 173 -12 43 0 55 -12 33 -33 -8 -9 -15 -19
-15 -23 0 -4 -7 -15 -16 -25 -21 -23 -20 -116 2 -195 9 -32 20 -79 25 -104 6
-25 14 -64 19 -88 6 -23 10 -58 10 -77 0 -22 8 -41 22 -55 20 -18 20 -20 3
-20 -10 0 -16 -2 -14 -5 7 -6 128 13 162 26 15 6 27 15 27 20 0 5 10 7 23 4
15 -4 28 -1 36 9 7 8 20 12 29 9 14 -6 15 -5 2 9 -9 9 -18 12 -21 6 -9 -13
-43 46 -62 107 -24 76 -30 136 -17 170 7 17 13 38 15 48 2 10 7 27 10 38 4 10
2 19 -3 19 -5 0 -13 -20 -16 -45 -10 -66 -23 -55 -19 18 l4 62 -16 -35 c-12
-24 -15 -49 -11 -80 4 -25 8 -81 11 -125 l4 -80 -14 50 c-27 102 -14 275 21
275 8 0 15 7 15 15 1 8 2 18 3 23 2 12 30 48 45 57 11 6 13 4 8 -11 -5 -14 -1
-13 16 7 12 14 40 36 62 48 l40 23 -33 -27 c-18 -15 -39 -40 -47 -55 -17 -32
-20 -53 -5 -30 7 11 10 11 10 2 0 -7 5 -10 10 -7 6 4 8 11 4 16 -3 6 3 13 15
16 11 3 19 9 16 13 -5 8 45 47 80 60 23 9 25 8 15 -9 -24 -46 1 -184 40 -227
11 -11 20 -25 20 -32 0 -6 9 -16 20 -22 31 -17 26 14 -12 74 -30 45 -33 59
-36 136 -3 80 -2 87 23 112 29 31 37 35 29 14 -6 -16 25 -76 39 -76 14 0 -4
61 -28 100 -44 67 -43 73 29 144 39 38 78 67 95 71 17 3 40 14 53 24 30 23
111 43 143 35 15 -4 25 -2 25 4 0 10 12 22 119 119 70 65 101 97 101 106 0 4
-5 5 -10 2 -12 -7 -12 12 0 40 l9 20 0 -20 c1 -11 5 -26 10 -33 5 -9 8 -3 7
17 -1 17 -7 33 -15 36 -9 4 -11 14 -7 33 4 17 3 22 -2 14 -8 -11 -10 -11 -15
2 -4 9 -1 16 6 16 6 0 1 7 -11 16 -19 13 -21 18 -11 31 10 12 10 16 -2 24 -8
5 -21 9 -30 9 -8 0 -26 11 -39 25 l-24 25 20 28 c11 15 40 37 65 50 55 28 121
24 224 -12 139 -50 182 -49 234 3 12 12 21 17 21 11 0 -5 -12 -17 -26 -27 -14
-10 -46 -37 -72 -61 -25 -23 -49 -42 -54 -42 -4 0 -32 -23 -61 -51 l-52 -52
45 6 c24 3 46 11 48 16 2 6 10 11 17 11 8 0 20 7 29 15 22 22 106 63 125 60 9
-1 10 0 4 2 -20 7 -15 23 7 23 11 0 20 4 20 8 0 5 8 17 18 28 9 10 23 31 29
47 7 15 19 27 27 27 8 0 23 3 33 7 17 6 17 6 0 -14 -12 -14 -15 -23 -8 -28 6
-3 25 10 42 29 17 20 38 36 48 35 13 0 13 -2 1 -6 -19 -7 -60 -44 -60 -55 0
-4 -8 -17 -17 -27 -15 -19 -17 -19 -29 -3 -8 10 -14 12 -14 5 0 -6 5 -15 10
-18 18 -11 10 -35 -16 -45 -14 -6 -22 -15 -19 -20 3 -6 -15 -19 -42 -31 -26
-11 -50 -24 -53 -28 -3 -4 -31 -20 -62 -35 -31 -16 -71 -44 -89 -62 -18 -19
-40 -34 -49 -34 -45 0 -85 -71 -93 -170 -3 -25 -8 -53 -12 -62 -5 -13 -2 -18
9 -18 9 0 16 -4 16 -10 0 -5 8 -6 17 -3 12 5 15 2 10 -10 -3 -8 -1 -17 5 -19
19 -7 0 -25 -33 -32 -22 -4 -30 -10 -25 -21 3 -8 0 -15 -7 -16 -7 0 4 -6 23
-12 23 -8 34 -18 32 -28 -2 -17 34 -29 84 -29 13 0 24 -4 24 -10 0 -5 11 -10
24 -10 13 0 27 -7 30 -16 5 -13 15 -15 40 -11 29 5 40 0 66 -25 26 -24 34 -28
41 -17 6 10 9 11 9 2 0 -7 5 -13 11 -13 6 0 25 -16 43 -35 31 -33 36 -35 80
-29 38 6 46 4 46 -10 0 -9 8 -16 21 -16 11 0 17 -4 14 -10 -9 -14 40 -23 62
-12 19 11 71 11 88 0 6 -3 24 -9 42 -12 17 -4 34 -13 36 -20 6 -16 97 -61 116
-57 7 1 10 -2 6 -8 -3 -6 1 -11 9 -11 9 0 16 8 16 18 0 13 2 14 9 3 10 -15 75
-41 104 -41 10 0 22 -11 27 -25 11 -29 49 -69 69 -72 16 -2 81 -69 81 -83 0
-6 6 -10 13 -10 7 0 30 -9 52 -20 41 -21 75 -26 75 -11 0 15 32 22 46 10 14
-11 34 -5 34 12 0 5 -9 9 -21 9 -12 0 -19 5 -16 13 2 6 14 11 25 10 16 -2 23
4 28 22 3 14 12 25 20 25 8 0 14 4 14 9 0 15 -41 20 -69 9 -43 -18 -93 -15
-145 9 -27 12 -52 21 -55 18 -4 -2 -22 10 -40 26 -19 16 -51 32 -72 35 -22 4
-39 10 -39 15 0 5 -5 9 -10 9 -6 0 -42 12 -80 27 -78 31 -83 39 -75 130 3 32
8 81 10 108 l4 50 -14 -35 -15 -35 7 35 c4 19 8 53 8 75 0 22 4 46 8 53 5 6 6
16 3 20 -5 8 132 154 174 187 47 37 83 55 147 75 60 20 76 22 105 12 28 -10
28 -11 5 -6 -19 3 -26 1 -22 -6 3 -5 15 -10 26 -10 11 0 17 -4 14 -10 -9 -15
4 -12 21 5 9 8 20 15 27 15 6 0 2 -7 -9 -15 -17 -13 -17 -14 -1 -15 18 0 25
-20 7 -20 -5 0 -10 -4 -10 -10 0 -5 7 -7 16 -3 12 4 14 0 8 -22 -8 -32 10 -49
37 -34 24 12 38 11 16 -2 -25 -15 -21 -27 11 -32 15 -2 8 -3 -15 -1 -51 4 -54
-2 -10 -21 18 -8 25 -14 15 -15 -29 0 -21 -30 8 -30 16 0 23 -4 18 -12 -5 -8
0 -9 14 -6 12 4 20 2 16 -3 -3 -5 0 -9 6 -9 6 0 8 -4 5 -10 -4 -6 -14 -4 -28
4 -23 15 -91 20 -187 16 -45 -2 -37 -4 41 -10 130 -10 187 -31 254 -92 73 -67
81 -97 66 -248 -6 -63 -9 -160 -5 -215 5 -82 2 -114 -15 -180 -38 -151 -68
-250 -95 -315 -15 -36 -36 -88 -46 -117 -41 -116 -142 -281 -152 -251 -4 10
-8 10 -19 1 -23 -18 -112 -27 -151 -14 -19 6 -48 25 -63 41 -16 17 -32 30 -36
30 -5 0 -29 15 -54 33 -25 17 -60 42 -78 54 -18 12 -52 38 -77 57 -25 20 -74
59 -110 86 -151 120 -296 258 -517 496 -56 60 -105 106 -108 102 -4 -4 1 -15
11 -25 17 -17 16 -18 -22 -24 -21 -4 -43 -4 -48 -1 -5 3 -6 0 -3 -5 8 -13 -15
-23 -53 -23 -16 0 -35 -7 -44 -15 -8 -8 -22 -15 -30 -15 -9 0 -16 -6 -16 -12
0 -10 -3 -9 -9 1 -7 11 -13 9 -30 -8 -11 -11 -27 -21 -34 -21 -7 0 -19 -6 -26
-12 -8 -7 -11 -8 -8 -2 10 18 -46 3 -66 -17 -16 -17 -63 -25 -106 -20 -7 2
-10 -2 -7 -8 4 -5 2 -12 -4 -16 -5 -3 -10 -2 -10 4 0 11 -46 8 -58 -4 -4 -4
-1 -5 7 0 10 6 12 4 7 -4 -6 -9 -11 -9 -21 -1 -9 8 -15 8 -20 0 -3 -6 -11 -8
-16 -5 -5 4 -9 1 -9 -5 0 -7 -8 -9 -20 -5 -16 5 -19 3 -13 -11 5 -13 2 -15
-17 -9 -17 5 -21 4 -15 -5 6 -9 4 -11 -5 -5 -7 4 -16 2 -20 -6 -5 -7 -24 -13
-44 -13 -19 0 -32 -4 -29 -9 3 -5 -7 -6 -24 -3 -36 8 -106 -21 -99 -41 3 -7 1
-13 -4 -13 -6 0 -10 4 -10 9 0 11 -72 2 -80 -9 -8 -11 -108 -32 -120 -25 -5 3
-10 1 -10 -4 0 -6 -9 -11 -20 -11 -11 0 -20 -5 -20 -11 0 -7 -10 -9 -25 -5
-17 4 -27 2 -31 -7 -2 -8 -15 -13 -27 -12 -12 1 -26 -1 -32 -5 -10 -7 -78 -20
-122 -23 -11 -1 -19 -5 -16 -9 2 -5 -2 -8 -9 -8 -7 0 -25 -6 -39 -14 -14 -7
-38 -16 -54 -20 -16 -4 -41 -16 -56 -27 -15 -10 -32 -19 -38 -19 -16 0 -55
-23 -64 -38 -5 -7 -13 -10 -18 -6 -5 3 -8 0 -7 -6 3 -12 -26 -33 -89 -65 -19
-10 -30 -22 -26 -30 3 -10 -1 -13 -16 -10 -12 2 -20 -1 -18 -8 1 -6 -7 -13
-17 -15 -20 -4 -58 -43 -50 -51 2 -3 11 4 20 15 15 18 15 18 9 -3 -14 -51 -14
-63 1 -63 11 0 13 -6 9 -21 -5 -16 -3 -20 6 -17 8 3 13 15 11 26 -2 15 2 22
14 22 13 0 14 -3 4 -15 -7 -8 -9 -15 -6 -15 4 0 2 -9 -4 -20 -6 -11 -15 -18
-21 -15 -5 4 -9 1 -9 -5 0 -6 6 -10 12 -9 33 4 47 -2 42 -16 -5 -13 -9 -13
-23 -3 -10 8 -8 3 4 -11 14 -17 16 -25 8 -28 -7 -3 -13 -9 -13 -15 0 -6 6 -6
15 2 12 10 15 10 15 0 0 -10 3 -10 16 1 13 11 15 9 9 -17 -3 -16 -2 -22 2 -13
6 12 14 14 28 8 11 -4 14 -8 8 -8 -7 -1 -13 -6 -13 -12 0 -5 6 -7 12 -3 7 4
10 4 6 -1 -5 -5 4 -24 19 -43 15 -20 21 -32 15 -28 -7 4 -12 1 -12 -9 0 -9 4
-13 10 -10 19 12 10 -18 -12 -36 -11 -11 -16 -19 -10 -19 7 0 12 -7 12 -15 0
-9 -6 -12 -18 -9 -10 4 -13 3 -6 -3 6 -4 14 -15 17 -23 4 -12 6 -11 6 3 1 10
9 17 22 17 16 0 20 -5 16 -19 -5 -20 10 -31 39 -31 10 0 9 5 -6 20 -11 11 -21
25 -21 30 -1 6 -2 15 -3 21 0 7 -10 15 -21 20 -23 9 -22 9 30 13 22 2 51 6 65
10 25 6 25 6 3 -5 -13 -7 -23 -18 -23 -24 0 -7 -7 -16 -16 -19 -15 -6 -15 -4
-3 11 13 16 12 17 -3 4 -26 -20 -22 -31 13 -31 17 0 28 4 24 10 -9 15 4 12 21
-4 7 -8 18 -16 23 -18 5 -1 12 -19 15 -38 l7 -35 -17 30 c-9 17 -22 33 -28 37
-16 11 -36 10 -36 -2 0 -5 7 -10 15 -10 8 0 12 -6 9 -14 -3 -8 5 -24 18 -36
13 -13 18 -20 11 -16 -6 3 -14 2 -18 -4 -4 -6 5 -10 20 -10 18 0 24 4 19 13
-5 7 -1 7 10 -2 14 -12 19 -12 25 -2 7 10 13 10 29 2 15 -8 511 -11 1760 -11
l1740 0 6 23 c4 12 11 105 16 207 5 102 15 250 21 330 12 146 20 618 11 697
-2 24 -8 40 -13 37 -12 -7 -11 3 2 25 16 24 -27 173 -42 150 -8 -10 -9 -9 -4
7 8 31 -40 140 -81 182 -12 12 -27 37 -34 55 -29 75 -36 87 -47 87 -7 0 -12 3
-12 8 4 21 -3 32 -17 32 -11 0 -15 6 -11 19 4 16 -13 28 -97 72 -55 28 -134
60 -175 70 -87 22 -84 22 -75 7 4 -8 3 -10 -2 -5 -5 5 -9 12 -9 15 -1 10 -34
68 -35 61 0 -4 -17 11 -38 32 -21 21 -52 41 -68 45 -16 4 -36 12 -44 19 -8 7
-49 15 -90 18 -76 5 -156 24 -146 34 2 3 -4 29 -15 57 -15 43 -17 61 -10 102
5 27 7 53 4 58 -4 5 -1 6 7 1 9 -5 10 -2 6 13 -4 13 -1 31 9 45 8 13 12 27 8
30 -3 4 2 7 11 7 12 0 16 5 13 14 -3 8 3 22 14 32 20 18 26 64 8 64 -7 0 -9
10 -5 28 l6 27 -15 -25 c-8 -14 -15 -34 -15 -45 -1 -18 -2 -18 -10 3 -13 32
-30 27 -30 -9 0 -22 -5 -32 -20 -36 -11 -3 -20 -9 -20 -14 0 -11 -58 -74 -63
-68 -9 10 -16 89 -8 89 5 0 12 12 15 28 4 15 9 34 11 42 3 11 -4 16 -25 17
-22 2 -30 -2 -30 -14 0 -13 2 -13 16 -2 14 12 14 9 0 -26 -10 -22 -26 -49 -36
-61 -11 -11 -20 -29 -20 -41 0 -16 -5 -19 -24 -16 -22 5 -25 2 -24 -26 1 -17
-2 -34 -5 -38 -4 -3 -7 1 -7 10 0 10 -4 17 -10 17 -5 0 -10 -7 -10 -15 0 -8
-9 -15 -19 -15 -11 0 -23 -5 -27 -11 -4 -8 -9 -7 -15 2 -8 12 -12 11 -22 -3
-9 -11 -21 -15 -35 -11 -18 4 -22 1 -22 -16 0 -26 -1 -26 -45 -1 -20 11 -40
18 -45 15 -5 -3 -16 2 -24 11 -22 22 -50 11 -36 -13 5 -10 14 -30 20 -45 11
-33 75 -68 145 -78 63 -10 77 -14 92 -23 6 -4 13 -2 15 5 3 7 14 9 31 4 15 -3
25 -11 22 -16 -3 -5 4 -12 16 -15 17 -6 19 -9 8 -16 -11 -7 -12 -11 -1 -17 26
-17 -16 -34 -85 -36 -43 -1 -68 -5 -71 -13 -2 -7 -17 -13 -33 -13 -16 0 -38
-6 -49 -12 -16 -10 -24 -10 -40 0 -26 16 -30 15 -30 -3 0 -19 -26 -20 -37 -1
-9 17 -79 30 -88 17 -11 -19 25 -38 74 -40 28 -1 97 5 153 14 56 8 120 14 142
14 38 -1 37 -2 -15 -10 -32 -4 -89 -25 -134 -48 -43 -23 -82 -41 -86 -41 -4 0
-48 -24 -98 -54 -50 -29 -103 -58 -118 -63 -108 -38 -118 -41 -146 -42 -10 -1
-15 -5 -12 -11 3 -5 -1 -10 -10 -10 -10 0 -30 -11 -47 -25 -34 -29 -44 -31
-52 -10 -3 8 -15 15 -26 15 -12 0 -19 4 -16 9 6 10 -52 37 -71 33 -18 -4 -28
20 -12 32 8 6 15 18 17 26 2 9 -9 3 -27 -14 -23 -22 -29 -25 -27 -10 2 10 8
20 14 22 8 2 9 19 5 48 -4 29 -2 44 5 44 6 0 9 7 6 15 -4 8 -1 15 4 15 17 0
102 60 102 72 0 6 3 8 6 5 6 -6 39 18 98 69 42 37 265 142 289 136 4 -1 7 7 7
18 0 26 -18 25 -87 -5 -31 -14 -64 -24 -73 -22 -9 3 -6 5 8 6 12 0 22 6 22 11
0 6 8 10 18 10 10 0 27 7 38 16 18 15 18 15 -8 11 -18 -3 -25 0 -21 9 3 9 11
10 30 3 43 -16 79 -11 91 14 22 45 20 100 -5 138 -34 52 -53 131 -53 223 0 63
-4 82 -17 93 -16 13 -16 13 4 3 38 -18 106 -21 130 -4 30 19 63 85 63 126 0
22 3 29 9 20 6 -10 10 -8 14 8 7 29 -9 70 -27 70 -8 0 -21 7 -29 15 -10 10
-26 13 -49 9 -18 -3 -49 -6 -68 -7 l-35 -1 2 80 c2 99 26 158 88 220 63 62 81
67 208 59 96 -6 107 -9 107 -26 0 -10 -6 -19 -12 -19 -10 0 -9 -3 1 -9 11 -7
11 -9 0 -13 -19 -7 -7 -19 21 -21 40 -3 118 -97 80 -97 -5 0 -10 5 -10 10 0 6
-7 10 -15 10 -8 0 -15 -3 -15 -7 1 -21 19 -30 59 -29 49 1 65 -16 30 -34 -17
-10 -23 -9 -30 1 -6 11 -12 11 -32 0 -14 -7 -30 -10 -36 -7 -7 4 -11 -1 -11
-13 0 -14 6 -21 20 -21 13 0 26 -13 39 -40 10 -22 15 -40 10 -40 -5 0 -9 5 -9
11 0 8 -4 8 -12 2 -7 -6 -24 -9 -37 -8 -63 5 -195 -39 -186 -62 2 -7 0 -13 -6
-13 -6 0 -8 -4 -4 -9 3 -6 -2 -14 -11 -19 -9 -5 -15 -12 -15 -15 1 -4 0 -9 0
-12 -12 -47 -18 -165 -9 -165 14 0 12 -44 -2 -75 -10 -22 -8 -28 8 -43 33 -29
92 -55 112 -50 12 3 26 -2 36 -13 15 -19 14 -19 -53 -13 -46 5 -70 3 -75 -5
-4 -6 -19 -11 -34 -11 -21 0 -24 -2 -12 -10 8 -5 27 -10 41 -10 32 0 42 -9 28
-27 -9 -10 -7 -13 6 -13 12 0 15 -5 11 -16 -5 -13 0 -15 36 -9 52 8 84 27 93
55 3 11 11 20 16 20 5 0 9 5 9 10 0 6 -10 10 -22 10 -29 0 -11 18 22 22 16 2
24 -2 22 -9 -1 -7 2 -13 8 -13 5 0 10 -6 10 -14 0 -8 5 -18 11 -22 9 -5 10 4
5 32 -9 45 -17 56 -48 61 -34 5 -52 28 -53 69 -1 33 1 35 27 32 20 -3 25 -1
18 7 -5 7 -7 15 -3 18 12 12 23 7 23 -10 0 -12 3 -14 8 -6 4 6 26 13 50 15 23
3 45 7 49 11 3 4 17 7 31 7 22 0 23 2 11 17 -12 15 -12 16 5 10 14 -5 17 -3
12 8 -3 8 -1 14 3 12 12 -3 62 53 56 63 -8 13 24 40 46 40 15 0 19 -8 20 -32
3 -60 -2 -120 -12 -146 -7 -18 -6 -28 3 -34 19 -12 21 -11 45 23 l21 31 -1
-26 c-1 -14 -7 -26 -13 -26 -24 0 -34 -54 -34 -187 l0 -135 25 16 c14 9 29 15
34 12 4 -3 19 6 31 19 14 15 35 25 52 25 24 0 28 4 28 29 0 16 7 34 15 41 8 7
15 21 15 32 0 14 -5 18 -15 14 -22 -8 -19 26 5 57 27 34 70 127 70 152 0 11 7
29 15 39 8 11 15 26 15 34 0 8 9 26 20 42 11 15 17 30 13 34 -3 3 -1 6 5 6 7
0 12 -5 12 -12 0 -7 10 -3 22 9 24 24 18 44 -7 23 -12 -10 -15 -10 -15 1 0 12
-2 12 -9 1 -8 -13 -10 -9 -26 43 -2 6 -6 17 -10 26 -3 10 -1 20 6 25 9 5 11 2
6 -8 -10 -27 3 -27 31 -1 22 21 28 22 37 10 6 -8 30 -20 53 -26 23 -7 42 -16
42 -20 0 -11 85 -41 113 -41 14 0 17 4 12 18 -18 42 -11 56 30 64 22 4 70 7
107 7 55 1 69 -2 77 -17 12 -23 -4 -52 -29 -52 -28 0 -51 -11 -44 -21 3 -5 13
-9 23 -9 9 0 33 -14 51 -30 36 -32 72 -46 89 -35 13 7 15 35 2 35 -4 0 -11 21
-15 47 -3 25 -25 86 -47 135 -51 112 -58 156 -32 200 11 19 23 45 26 59 18 73
99 110 111 52 7 -30 28 -302 27 -342 -1 -22 27 -122 49 -176 5 -11 11 -28 14
-37 4 -14 17 -18 55 -18 27 0 62 -5 76 -10 18 -7 39 -7 66 0 l39 11 0 418 0
419 -22 0 c-13 0 -35 4 -51 7 -44 12 -53 -5 -61 -115 -8 -113 -11 -126 -33
-135 -31 -11 -38 14 -38 138 l0 122 -97 0 c-53 0 -100 3 -104 8 -4 4 4 7 18 7
19 0 29 8 38 29 6 16 20 37 30 46 15 14 21 14 39 3 14 -8 24 -9 31 -2 6 6 10
80 11 185 0 95 4 205 8 244 7 68 7 71 -21 98 -15 16 -28 35 -28 42 0 14 57 86
73 93 4 2 7 19 7 38 l0 34 -1450 0 -1450 0 0 -39z m580 -32 c0 -5 -4 -9 -10
-9 -5 0 -10 7 -10 16 0 8 5 12 10 9 6 -3 10 -10 10 -16z m1635 -276 c30 -36
30 -37 30 -169 1 -74 4 -137 8 -140 13 -14 27 50 27 129 0 119 3 125 58 129
43 3 46 5 55 38 8 33 10 34 23 15 9 -11 14 -46 15 -89 1 -39 4 -132 8 -206 l6
-135 85 0 c57 0 92 -5 108 -15 48 -32 22 -47 -125 -70 -75 -12 -88 -23 -77
-65 7 -29 -34 -60 -69 -51 -35 8 -107 64 -107 82 0 12 -6 15 -22 9 -13 -4 -47
-11 -77 -16 -87 -16 -85 -21 -71 242 7 123 18 235 23 249 6 14 12 36 13 50 1
14 2 31 3 38 2 26 56 11 86 -25z m-470 -252 c46 -16 50 -20 57 -57 4 -21 7
-67 7 -101 1 -35 5 -63 11 -63 6 0 10 8 10 17 0 13 3 14 12 5 9 -9 14 -7 24 6
16 22 21 16 28 -38 9 -65 -2 -77 -53 -57 -23 10 -53 14 -69 11 -18 -4 -42 1
-62 11 -33 17 -46 18 -168 15 -42 -1 -60 -5 -56 -12 5 -7 2 -8 -7 -2 -8 5 -50
8 -94 6 -44 -2 -94 1 -111 6 -41 13 -63 0 -44 -23 24 -29 21 -45 -9 -45 -15 0
-37 -9 -50 -21 -28 -26 -44 -20 -76 30 -28 46 -32 76 -10 97 10 10 14 36 13
91 0 69 2 79 23 96 20 16 33 18 77 13 30 -4 79 -2 110 4 193 34 361 38 437 11z
m257 -263 c-17 -17 -25 -3 -17 29 l7 28 11 -23 c7 -16 7 -26 -1 -34z m1078
-32 c0 -8 -4 -18 -10 -21 -5 -3 -10 3 -10 14 0 12 5 21 10 21 6 0 10 -6 10
-14z m-2145 -56 c24 0 55 -23 55 -42 0 -6 -12 -22 -26 -35 l-27 -25 -23 29
c-15 19 -22 41 -22 67 0 30 3 35 10 23 5 -10 20 -17 33 -17z m1333 -103 c9 -9
11 -23 7 -36 -6 -18 -11 -20 -48 -15 -23 4 -57 13 -76 20 -26 11 -31 17 -22
27 6 8 7 17 3 21 -4 4 22 5 57 2 36 -3 71 -11 79 -19z m-1292 -65 c-2 -2 0
-17 5 -34 6 -23 4 -42 -10 -72 -16 -38 -22 -42 -77 -54 -58 -14 -122 -39 -157
-64 -15 -11 -20 -10 -33 7 -13 18 -12 22 20 51 18 17 37 40 40 52 5 13 20 25
39 30 27 7 32 13 29 36 -5 44 11 54 83 53 35 -1 63 -3 61 -5z m1404 -67 c0 -8
-9 -15 -20 -15 -20 0 -26 11 -13 23 12 13 33 7 33 -8z m-630 -125 c0 -11 11
-27 25 -36 20 -13 23 -20 15 -34 -13 -25 -13 -43 2 -34 8 5 9 0 4 -17 -4 -13
-8 -32 -7 -41 0 -10 -5 -20 -10 -24 -5 -3 -9 -2 -8 3 4 23 -2 53 -11 53 -5 0
-9 -3 -9 -7 3 -19 -2 -25 -13 -16 -7 6 -25 13 -40 17 -23 5 -28 12 -28 35 0
16 6 31 15 35 8 3 15 14 15 25 0 11 4 22 10 26 5 3 7 12 3 20 -3 10 2 15 16
15 14 0 21 -6 21 -20z m-752 -28 c4 -35 -4 -39 -32 -19 -13 10 -16 20 -11 36
10 34 39 23 43 -17z m642 -26 c0 -11 -19 -15 -25 -6 -3 5 1 10 9 10 9 0 16 -2
16 -4z m-1069 -45 c-11 -19 -5 -58 12 -78 16 -21 0 -43 -32 -43 -33 0 -43 20
-37 70 5 36 4 34 27 58 23 26 44 21 30 -7z m435 -87 c-6 -7 -12 -8 -14 -3 -2
5 -10 9 -19 9 -8 0 -13 6 -10 13 2 6 12 11 21 11 9 -1 16 3 17 10 0 6 4 2 8
-9 5 -11 3 -24 -3 -31z m162 0 c12 -4 22 -14 22 -24 0 -15 -10 -19 -52 -22
-79 -5 -118 1 -118 18 0 27 88 44 148 28z m82 -39 c0 -3 -9 -5 -20 -5 -11 0
-20 7 -20 15 0 13 4 14 20 5 11 -6 20 -13 20 -15z m240 10 c0 -9 -9 -15 -22
-16 -13 0 -36 -2 -51 -4 -23 -3 -26 -1 -17 10 20 24 90 32 90 10z m70 -4 c0
-14 -6 -17 -25 -13 -14 2 -25 11 -25 18 0 8 10 14 25 14 18 0 25 -5 25 -19z
m25 -1 c3 -5 1 -10 -4 -10 -6 0 -11 5 -11 10 0 6 2 10 4 10 3 0 8 -4 11 -10z
m-574 -77 c-9 -15 -10 -12 -10 17 0 29 1 32 10 18 7 -12 7 -24 0 -35z m89 7
c0 -22 -2 -40 -4 -40 -2 0 -6 18 -8 40 -2 22 0 40 4 40 5 0 8 -18 8 -40z m565
-50 c-9 -41 -17 -33 -9 9 4 17 9 30 11 27 3 -2 2 -19 -2 -36z m356 -83 c-11
-18 -21 -27 -21 -21 0 5 7 19 15 30 8 10 15 30 16 44 2 24 2 24 6 2 3 -13 -5
-37 -16 -55z m-38 38 c2 -5 -1 -30 -7 -54 -9 -38 -18 -49 -55 -68 -1 -1 0 -7
4 -13 5 -8 17 -3 36 16 47 45 33 13 -17 -38 -49 -51 -74 -60 -74 -29 0 11 -3
28 -6 38 -6 15 -4 16 7 6 23 -22 42 -16 35 11 -5 21 -2 25 21 28 26 3 28 6 28
53 0 36 -4 49 -13 47 -8 -1 -11 2 -8 7 8 13 44 10 49 -4z m-73 -50 c0 -14 -4
-25 -9 -25 -4 0 -6 11 -3 25 2 14 6 25 8 25 2 0 4 -11 4 -25z m-377 -12 c-7
-2 -21 -2 -30 0 -10 3 -4 5 12 5 17 0 24 -2 18 -5z m-513 -293 c11 -7 6 -10
-22 -10 -20 0 -45 -3 -55 -6 -12 -5 -15 -4 -8 4 9 9 35 18 60 21 6 0 17 -4 25
-9z m517 -45 c8 -22 -6 -33 -17 -15 -13 20 -12 30 0 30 6 0 13 -7 17 -15z
m323 -335 l-35 -7 40 -2 c22 -1 49 -7 60 -12 14 -6 7 -7 -24 -3 -31 5 -42 3
-36 -5 5 -8 -1 -10 -21 -5 -19 5 -25 4 -20 -4 4 -8 2 -10 -8 -6 -21 8 -77 -12
-106 -38 -14 -13 -34 -30 -45 -38 -19 -14 -19 -14 -6 3 8 11 9 17 2 17 -6 0
-18 -11 -27 -25 -9 -14 -19 -24 -21 -22 -7 8 -142 -127 -153 -153 -10 -24 -10
-24 -5 5 5 26 2 23 -29 -22 -19 -29 -37 -61 -40 -71 -4 -11 -16 -28 -27 -38
-20 -18 -20 -17 2 26 12 25 31 57 41 72 32 46 20 38 -56 -38 -41 -41 -77 -74
-81 -74 -3 0 8 20 26 45 18 25 37 45 43 45 6 0 28 18 50 40 21 22 42 40 46 40
4 0 34 27 66 61 32 33 77 79 99 101 l40 40 -42 -21 c-24 -12 -43 -25 -43 -30
0 -5 -19 -21 -42 -36 -66 -44 -153 -118 -150 -128 1 -4 -2 -6 -8 -2 -6 4 -32
-12 -58 -35 -77 -68 -93 -77 -70 -40 7 11 18 20 25 20 6 0 19 13 29 29 9 15
30 36 46 46 23 13 27 19 17 26 -10 6 -7 9 11 9 29 1 74 35 66 49 -4 5 0 16 8
24 8 8 12 18 8 22 -4 4 0 6 8 3 8 -3 14 -13 14 -22 -2 -22 8 -20 37 5 59 53
241 155 258 145 4 -3 21 -1 37 4 16 4 47 8 69 8 l40 -1 -35 -7z m-260 -14 c0
-9 -160 -86 -177 -86 -10 0 -38 -11 -63 -25 -25 -14 -70 -37 -100 -51 -80 -37
-167 -91 -229 -141 -29 -23 -62 -43 -72 -43 -11 0 -19 -3 -19 -7 0 -10 -58
-43 -73 -43 -13 0 50 40 98 63 35 16 73 55 42 44 -11 -4 -16 -3 -12 3 3 6 12
10 19 10 19 0 73 29 137 72 31 21 60 38 65 38 5 0 50 20 99 44 139 69 221 106
234 106 6 0 11 5 11 10 0 6 9 10 20 10 11 0 20 -2 20 -4z m377 -42 c-3 -3 -12
-4 -19 -1 -8 3 -5 6 6 6 11 1 17 -2 13 -5z m79 -37 c6 -9 4 -9 -8 1 -9 7 -20
12 -24 11 -18 -3 -25 1 -19 11 7 12 39 -3 51 -23z m-586 -17 c0 -5 -4 -10 -10
-10 -5 0 -10 5 -10 10 0 6 5 10 10 10 6 0 10 -4 10 -10z m563 -1 c30 -16 76
-66 68 -75 -3 -4 0 -4 7 1 9 5 29 -9 59 -41 25 -27 42 -42 38 -34 -3 8 1 6 9
-4 32 -39 55 -124 60 -218 l5 -93 -13 55 c-18 76 -21 79 -81 130 -51 42 -69
70 -45 70 6 0 10 -5 10 -11 0 -7 16 -27 35 -45 35 -33 35 -33 31 -7 -6 29 -16
43 -16 22 0 -12 -2 -12 -10 1 -6 9 -5 17 3 22 9 6 9 10 -1 16 -7 5 -14 19 -15
30 -1 12 -4 22 -8 22 -4 0 -10 14 -14 30 -7 31 -20 39 -28 18 -2 -7 -3 -5 -2
5 2 9 -1 17 -6 17 -5 0 -9 -5 -9 -11 0 -6 -6 -9 -12 -6 -7 2 -12 12 -10 21 4
22 -17 48 -34 42 -8 -3 -11 0 -7 11 5 13 3 14 -18 3 -20 -10 -22 -10 -11 1 10
11 8 16 -10 26 -28 15 -5 17 25 2z m78 -26 c13 -16 12 -17 -3 -4 -10 7 -18 15
-18 17 0 8 8 3 21 -13z m82 -83 c3 -11 2 -18 -3 -15 -4 3 -10 14 -13 25 -3 11
-2 18 3 15 4 -3 10 -14 13 -25z m-1223 -34 c0 -3 -4 -8 -10 -11 -5 -3 -10 -1
-10 4 0 6 5 11 10 11 6 0 10 -2 10 -4z m-355 -26 c3 -5 1 -10 -4 -10 -6 0 -11
5 -11 10 0 6 2 10 4 10 3 0 8 -4 11 -10z m1490 -10 c3 -6 -1 -7 -9 -4 -18 7
-21 14 -7 14 6 0 13 -4 16 -10z m-1125 -20 c0 -5 -5 -10 -11 -10 -5 0 -7 5 -4
10 3 6 8 10 11 10 2 0 4 -4 4 -10z m-95 -18 c-44 -27 -60 -31 -76 -21 -12 7
-12 9 1 10 8 1 19 1 23 0 4 -1 18 5 30 14 12 8 28 15 37 15 8 0 2 -8 -15 -18z
m44 -15 c-2 -1 -12 -9 -22 -16 -15 -12 -17 -12 -11 3 3 9 13 16 22 16 8 0 13
-1 11 -3z m1592 -62 l34 -14 -52 -1 c-29 0 -53 4 -53 10 0 5 -26 11 -57 13
-53 3 -51 3 18 5 49 1 89 -3 110 -13z m37 -36 c-9 -6 -5 -11 12 -18 14 -5 18
-10 10 -10 -8 -1 -27 7 -43 17 l-27 19 30 0 c19 0 26 -3 18 -8z m-2738 -114
c0 -2 -10 -9 -22 -15 -22 -11 -22 -10 -4 4 21 17 26 19 26 11z m1193 -42 c-7
-2 -19 -2 -25 0 -7 3 -2 5 12 5 14 0 19 -2 13 -5z m444 -15 c-3 -8 -6 -5 -6 6
-1 11 2 17 5 13 3 -3 4 -12 1 -19z m1227 6 c3 -8 2 -12 -4 -9 -6 3 -10 10 -10
16 0 14 7 11 14 -7z m-3264 -24 c0 -11 -4 -20 -10 -20 -22 0 -69 -39 -63 -52
2 -4 -3 -5 -11 -2 -10 4 -16 1 -16 -7 0 -7 -3 -10 -6 -6 -3 3 3 19 15 35 12
17 21 35 21 41 0 13 30 30 53 31 10 0 17 -8 17 -20z m1755 0 c3 -5 2 -10 -4
-10 -5 0 -13 5 -16 10 -3 6 -2 10 4 10 5 0 13 -4 16 -10z m-1685 -20 c0 -11
-2 -20 -4 -20 -2 0 -6 9 -9 20 -3 11 -1 20 4 20 5 0 9 -9 9 -20z m3210 6 c0
-3 -4 -8 -10 -11 -5 -3 -10 -1 -10 4 0 6 5 11 10 11 6 0 10 -2 10 -4z m-3265
-58 c-2 -29 -7 -63 -11 -75 -9 -31 10 -29 31 3 9 14 19 23 23 20 3 -4 -6 -19
-20 -34 -14 -15 -28 -44 -31 -64 -6 -42 6 -50 30 -20 14 16 14 16 7 -3 -13
-32 -12 -130 3 -202 8 -36 12 -68 9 -70 -2 -2 -11 31 -20 74 -9 43 -23 106
-31 140 -9 35 -13 74 -9 88 3 14 1 32 -6 40 -6 8 -9 18 -6 23 10 17 15 65 5
55 -5 -5 -11 -20 -14 -33 -6 -29 -15 -39 -15 -16 0 11 -4 15 -12 10 -7 -5 0 8
15 27 15 18 33 46 40 62 6 15 13 27 14 27 1 0 1 -24 -2 -52z m62 -8 c-3 -21
-17 -40 -17 -22 0 13 11 42 16 42 2 0 3 -9 1 -20z m3240 -162 c-3 -7 -5 -2 -5
12 0 14 2 19 5 13 2 -7 2 -19 0 -25z m-2130 -84 c-3 -3 -12 -4 -19 -1 -8 3 -5
6 6 6 11 1 17 -2 13 -5z m-1058 -221 c1 -7 -3 -13 -8 -13 -11 0 -17 17 -25 70
l-6 35 19 -40 c11 -22 20 -46 20 -52z m598 55 c-3 -8 -6 -5 -6 6 -1 11 2 17 5
13 3 -3 4 -12 1 -19z m-17 2 c0 -5 -4 -10 -10 -10 -5 0 -10 5 -10 10 0 6 5 10
10 10 6 0 10 -4 10 -10z m-630 -40 c0 -5 -5 -10 -11 -10 -5 0 -7 5 -4 10 3 6
8 10 11 10 2 0 4 -4 4 -10z m7 -43 c1 -11 1 -18 0 -16 -2 2 -8 11 -15 20 -9
12 -9 16 1 16 7 0 14 -9 14 -20z m-610 -440 c0 -8 -6 -14 -14 -14 -9 0 -10 4
-2 14 6 7 12 13 14 13 1 0 2 -6 2 -13z m43 -9 c0 -4 -4 -8 -9 -8 -6 0 -12 4
-15 8 -3 5 1 9 9 9 8 0 15 -4 15 -9z m-84 -35 c-10 -10 -19 5 -10 18 6 11 8
11 12 0 2 -7 1 -15 -2 -18z m89 -73 c-3 -5 -11 -10 -16 -10 -6 0 -7 5 -4 10 3
6 11 10 16 10 6 0 7 -4 4 -10z m7 -42 c-7 -7 -12 -8 -12 -2 0 6 3 14 7 17 3 4
9 5 12 2 2 -3 -1 -11 -7 -17z m-22 -2 c0 -2 -7 -9 -15 -16 -12 -10 -15 -10
-15 4 0 9 7 16 15 16 8 0 15 -2 15 -4z m100 -91 c0 -2 -10 -9 -22 -15 -22 -11
-22 -10 -4 4 21 17 26 19 26 11z m37 -37 c-3 -7 -5 -2 -5 12 0 14 2 19 5 13 2
-7 2 -19 0 -25z m-27 -8 c0 -5 -5 -10 -11 -10 -5 0 -7 5 -4 10 3 6 8 10 11 10
2 0 4 -4 4 -10z m21 -40 c6 0 7 -4 4 -10 -10 -15 -32 -12 -39 6 -5 12 -2 15
10 10 8 -3 20 -6 25 -6z m156 -46 c-3 -3 -12 -4 -19 -1 -8 3 -5 6 6 6 11 1 17
-2 13 -5z"/>
<path d="M3640 4220 c0 -5 5 -10 10 -10 6 0 10 5 10 10 0 6 -4 10 -10 10 -5 0
-10 -4 -10 -10z"/>
<path d="M3752 3825 c0 -16 2 -22 5 -12 2 9 2 23 0 30 -3 6 -5 -1 -5 -18z"/>
<path d="M3751 3774 c0 -11 3 -14 6 -6 3 7 2 16 -1 19 -3 4 -6 -2 -5 -13z"/>
<path d="M3395 2729 c-11 -16 -1 -19 13 -3 7 8 8 14 3 14 -5 0 -13 -5 -16 -11z"/>
<path d="M3188 2120 c-24 -22 -38 -40 -31 -40 6 0 13 3 15 8 2 4 20 22 41 40
21 17 33 32 28 32 -6 0 -29 -18 -53 -40z"/>
<path d="M2970 1920 c-6 -11 -8 -20 -6 -20 3 0 10 9 16 20 6 11 8 20 6 20 -3
0 -10 -9 -16 -20z"/>
<path d="M4513 4593 c9 -2 25 -2 35 0 9 3 1 5 -18 5 -19 0 -27 -2 -17 -5z"/>
<path d="M4526 4427 c-12 -9 -20 -35 -26 -85 -5 -41 -12 -77 -15 -82 -3 -5 2
-24 11 -42 15 -28 16 -51 9 -183 -11 -195 -11 -211 4 -229 11 -13 16 -12 38
10 14 14 31 23 39 20 12 -5 14 43 14 299 l0 305 -28 0 c-16 0 -36 -6 -46 -13z"/>
<path d="M1891 3608 c-6 -18 -8 -52 -5 -80 6 -43 10 -49 28 -46 30 4 45 97 22
133 -22 33 -32 31 -45 -7z"/>
<path d="M1580 3315 c0 -26 26 -75 40 -75 14 0 22 71 9 86 -20 24 -49 17 -49
-11z"/>
<path d="M1279 3028 c-11 -20 -18 -87 -18 -196 0 -35 -8 -40 -88 -61 l-42 -12
21 -24 c29 -33 54 -31 85 5 33 39 78 40 175 1 105 -40 132 -44 153 -21 10 11
30 20 44 20 44 0 70 11 77 32 9 31 -13 40 -83 33 -56 -5 -63 -3 -73 15 -6 12
-8 35 -5 51 5 20 1 38 -10 56 -15 22 -21 24 -53 18 -21 -4 -45 -8 -55 -9 -35
-5 -42 -22 -28 -76 14 -54 10 -70 -18 -70 -29 0 -44 26 -38 68 8 55 -6 185
-20 189 -6 2 -17 -6 -24 -19z"/>
<path d="M4305 2832 c-12 -9 -13 -35 -2 -43 13 -10 297 -9 297 0 0 13 -64 23
-95 15 -14 -3 -31 -1 -39 5 -9 8 -28 10 -48 6 -25 -5 -38 -2 -47 9 -14 17 -49
21 -66 8z"/>
<path d="M3297 2753 c4 -11 8 -12 13 -3 6 9 9 9 13 1 4 -8 5 -8 3 0 -1 7 -9
13 -18 15 -11 1 -15 -3 -11 -13z"/>
<path d="M3312 2710 c0 -14 2 -19 5 -12 2 6 2 18 0 25 -3 6 -5 1 -5 -13z"/>
<path d="M3265 2700 c3 -5 8 -10 11 -10 2 0 4 5 4 10 0 6 -5 10 -11 10 -5 0
-7 -4 -4 -10z"/>
<path d="M4493 2693 c-38 -7 -26 -21 27 -32 73 -16 80 -14 80 14 0 23 -3 25
-42 24 -24 -1 -53 -4 -65 -6z"/>
<path d="M1357 2633 c-4 -3 -7 -11 -7 -17 0 -6 5 -5 12 2 6 6 9 14 7 17 -3 3
-9 2 -12 -2z"/>
<path d="M3201 2614 c0 -11 3 -14 6 -6 3 7 2 16 -1 19 -3 4 -6 -2 -5 -13z"/>
<path d="M1351 2566 c-1 -29 2 -37 10 -29 8 8 8 19 1 40 -10 28 -10 28 -11
-11z"/>
<path d="M2416 2395 c-10 -7 -16 -17 -15 -22 2 -4 15 2 28 15 26 24 17 30 -13
7z"/>
<path d="M2563 2328 c-119 -87 -203 -168 -234 -228 -12 -22 -27 -40 -34 -40
-7 0 -16 -7 -19 -16 -4 -12 -2 -15 9 -10 12 4 13 2 3 -14 -7 -10 -16 -16 -20
-14 -4 3 -8 -4 -8 -15 0 -12 -4 -21 -10 -21 -5 0 -10 -7 -10 -15 0 -25 15 -17
51 26 19 22 39 47 46 54 7 7 15 25 19 39 3 15 23 44 42 64 20 20 43 50 51 66
9 16 24 31 34 32 10 1 28 11 40 21 14 12 18 13 12 3 -5 -10 -1 -8 13 4 12 10
19 23 15 29 -3 6 -1 7 5 3 6 -3 18 4 26 16 30 43 17 50 -31 16z"/>
<path d="M2291 2314 c-36 -25 -35 -32 2 -12 25 13 52 38 40 37 -4 0 -23 -12
-42 -25z"/>
<path d="M2557 2232 l-23 -48 26 4 c24 3 26 8 26 48 -1 24 -2 44 -3 44 -2 0
-13 -22 -26 -48z"/>
<path d="M3278 2233 c7 -3 16 -2 19 1 4 3 -2 6 -13 5 -11 0 -14 -3 -6 -6z"/>
<path d="M1960 2214 c0 -8 5 -12 10 -9 6 3 10 10 10 16 0 5 -4 9 -10 9 -5 0
-10 -7 -10 -16z"/>
<path d="M2175 2220 c-3 -5 -12 -7 -20 -3 -10 3 -15 -2 -15 -16 0 -28 14 -27
34 4 9 14 14 25 12 25 -3 0 -7 -4 -11 -10z"/>
<path d="M2063 2190 c-2 -23 7 -26 25 -8 17 17 15 28 -6 28 -11 0 -18 -8 -19
-20z"/>
<path d="M2501 2181 c-1 -16 -5 -21 -16 -17 -17 6 -21 -9 -4 -20 16 -10 31 11
26 37 l-4 24 -2 -24z"/>
<path d="M2027 2170 c-8 -11 -16 -17 -19 -15 -3 3 -8 -6 -11 -21 l-5 -27 27
29 c15 16 28 35 28 41 0 18 -4 16 -20 -7z"/>
<path d="M2570 2131 c0 -7 -5 -9 -12 -5 -7 4 -10 4 -6 0 3 -4 10 -8 15 -8 4 0
14 -4 21 -10 8 -7 12 -7 12 0 0 5 -7 15 -15 22 -11 9 -15 9 -15 1z"/>
<path d="M2610 2121 c0 -5 5 -13 10 -16 6 -3 10 -2 10 4 0 5 -4 13 -10 16 -5
3 -10 2 -10 -4z"/>
<path d="M2636 2107 c-9 -35 -7 -40 13 -34 14 3 18 1 14 -9 -7 -18 5 -18 23 1
9 8 12 19 9 25 -3 5 1 10 9 10 9 0 16 5 16 11 0 6 -6 9 -12 6 -7 -2 -25 -1
-40 4 -22 6 -27 3 -32 -14z"/>
<path d="M2536 2096 c5 -13 4 -17 -4 -12 -8 4 -12 0 -12 -11 0 -16 1 -16 17 0
14 14 15 19 4 29 -10 11 -11 9 -5 -6z"/>
<path d="M2547 2056 c-4 -10 -1 -13 8 -9 8 3 12 9 9 14 -7 12 -11 11 -17 -5z"/>
<path d="M3295 2060 c-13 -6 -15 -9 -5 -9 8 0 22 4 30 9 18 12 2 12 -25 0z"/>
<path d="M2625 2049 c-4 -5 -14 -8 -22 -5 -8 4 -11 2 -7 -5 4 -6 0 -15 -7 -20
-8 -5 -9 -9 -4 -9 19 0 67 38 57 44 -6 3 -14 1 -17 -5z"/>
<path d="M3240 2035 c-14 -8 -20 -14 -14 -15 5 0 19 7 30 15 24 18 16 19 -16
0z"/>
<path d="M2166 2013 c-6 -14 -5 -15 5 -6 7 7 10 15 7 18 -3 3 -9 -2 -12 -12z"/>
<path d="M3169 1989 c-32 -35 -23 -38 16 -5 15 13 23 26 19 29 -5 3 -21 -8
-35 -24z"/>
<path d="M3418 2003 c7 -3 16 -2 19 1 4 3 -2 6 -13 5 -11 0 -14 -3 -6 -6z"/>
<path d="M2170 1958 c-11 -18 -20 -37 -20 -42 0 -12 1 -10 28 37 26 45 19 50
-8 5z"/>
<path d="M2443 1983 c-7 -2 -9 -11 -6 -19 3 -8 -1 -14 -8 -14 -7 0 -10 -2 -7
-5 3 -3 14 -2 25 2 22 9 18 43 -4 36z"/>
<path d="M2500 1979 c0 -5 5 -7 10 -4 6 3 10 8 10 11 0 2 -4 4 -10 4 -5 0 -10
-5 -10 -11z"/>
<path d="M1846 1945 c-3 -9 0 -15 9 -15 9 0 12 6 9 15 -4 8 -7 15 -9 15 -2 0
-5 -7 -9 -15z"/>
<path d="M3117 1939 c7 -7 15 -10 18 -7 3 3 -2 9 -12 12 -14 6 -15 5 -6 -5z"/>
<path d="M3425 1930 c-18 -8 -17 -9 7 -9 15 -1 30 4 33 9 7 12 -12 12 -40 0z"/>
<path d="M2175 1919 c-4 -6 -5 -12 -2 -15 2 -3 7 2 10 11 7 17 1 20 -8 4z"/>
<path d="M2212 1918 c-7 -9 -6 -17 3 -25 10 -9 13 -7 11 13 -1 28 -1 28 -14
12z"/>
<path d="M3050 1850 c-30 -39 -57 -76 -59 -82 -5 -16 -4 -15 50 47 23 28 47
49 52 47 4 -1 5 2 2 8 -4 6 1 20 11 31 9 10 13 19 8 18 -5 0 -34 -31 -64 -69z"/>
<path d="M1730 1896 c0 -2 7 -6 15 -10 8 -3 15 -1 15 4 0 6 -7 10 -15 10 -8 0
-15 -2 -15 -4z"/>
<path d="M3193 1885 c-18 -8 -33 -16 -33 -19 0 -8 59 15 66 25 7 11 6 11 -33
-6z"/>
<path d="M1830 1853 c7 -3 4 -11 -7 -19 -17 -14 -17 -15 2 -12 22 4 28 30 7
34 -7 1 -8 0 -2 -3z"/>
<path d="M3308 1833 c7 -3 16 -2 19 1 4 3 -2 6 -13 5 -11 0 -14 -3 -6 -6z"/>
<path d="M3268 1823 c7 -3 16 -2 19 1 4 3 -2 6 -13 5 -11 0 -14 -3 -6 -6z"/>
<path d="M3130 1780 c-9 -6 -10 -10 -3 -10 6 0 15 5 18 10 8 12 4 12 -15 0z"/>
<path d="M1688 1763 c6 -2 18 -2 25 0 6 3 1 5 -13 5 -14 0 -19 -2 -12 -5z"/>
<path d="M1595 1675 c11 -8 26 -19 33 -25 16 -14 15 0 -2 23 -7 9 -22 17 -32
17 -18 -1 -18 -1 1 -15z"/>
<path d="M1455 1644 c-16 -13 -25 -24 -19 -24 15 0 61 37 54 43 -3 3 -18 -6
-35 -19z"/>
<path d="M1654 1614 c3 -8 2 -13 -3 -10 -5 3 -11 -8 -13 -24 -4 -24 -1 -30 13
-30 10 0 22 8 27 18 11 20 -2 62 -19 62 -6 0 -8 -7 -5 -16z"/>
<path d="M1956 1575 c6 -14 -7 -20 -30 -16 -6 1 -19 -2 -30 -8 -30 -15 -130
-31 -200 -32 -106 -2 -140 -17 -151 -66 -6 -31 -5 -33 22 -33 22 0 25 -2 13
-10 -8 -5 -10 -10 -4 -10 6 0 18 7 25 16 12 15 14 14 19 -7 5 -21 15 -25 69
-34 42 -7 68 -17 78 -30 11 -14 14 -15 10 -3 -13 37 21 24 36 -14 3 -9 25 -29
49 -44 24 -15 46 -32 50 -37 9 -15 66 -19 89 -6 16 8 18 13 8 25 -15 18 -29
18 -29 -1 0 -8 -4 -15 -10 -15 -5 0 -10 4 -10 9 0 5 -8 12 -19 16 -26 8 -69
73 -76 115 -6 35 -6 35 9 10 8 -14 20 -26 28 -26 7 -1 19 -2 26 -3 7 0 10 -5
7 -11 -4 -6 5 -10 20 -10 17 0 29 -8 36 -24 11 -23 57 -52 67 -41 3 3 -1 5 -8
5 -7 0 -11 2 -8 5 8 9 38 -6 33 -16 -3 -4 11 -2 32 5 32 11 40 19 50 57 12 39
11 45 -4 57 -9 6 -13 12 -8 12 10 0 -35 49 -120 132 -48 47 -80 63 -69 33z
m151 -227 c-3 -7 -5 -2 -5 12 0 14 2 19 5 13 2 -7 2 -19 0 -25z m43 13 c0 -12
-20 -25 -27 -18 -7 7 6 27 18 27 5 0 9 -4 9 -9z"/>
<path d="M1216 1518 c-9 -12 -16 -28 -16 -35 0 -6 -7 -16 -15 -21 -9 -4 -16
-23 -17 -44 -1 -26 -6 -38 -20 -41 -10 -3 -18 -14 -18 -25 0 -12 -4 -24 -10
-27 -5 -3 -10 -20 -10 -36 l0 -31 39 39 c29 28 43 53 52 88 6 28 18 72 25 100
15 57 13 66 -10 33z"/>
<path d="M3504 1505 c1 -33 16 -33 16 0 0 14 -4 25 -9 25 -5 0 -8 -11 -7 -25z"/>
<path d="M3540 1516 c0 -9 7 -16 16 -16 17 0 14 22 -4 28 -7 2 -12 -3 -12 -12z"/>
<path d="M1382 1505 c-8 -10 -9 -15 -2 -15 6 0 9 -4 6 -9 -3 -5 3 -20 14 -34
11 -14 20 -30 20 -36 0 -6 4 -11 8 -11 5 0 17 -18 27 -40 10 -22 22 -40 27
-40 4 0 8 -9 8 -20 0 -11 6 -20 13 -20 7 0 17 -13 23 -28 15 -40 126 -114 159
-106 17 4 25 13 25 28 0 11 3 32 7 45 4 17 3 22 -5 17 -7 -4 -12 -21 -12 -38
0 -29 -1 -30 -17 -16 -10 9 -23 14 -29 11 -15 -5 -114 102 -114 124 0 10 -9
24 -20 31 -11 6 -31 35 -45 62 -14 28 -34 54 -43 57 -25 10 -39 26 -34 41 5
16 0 15 -16 -3z"/>
<path d="M284 1465 c-3 -14 -10 -25 -15 -25 -5 0 -9 -13 -9 -29 0 -16 -4 -31
-9 -33 -5 -1 -12 -23 -16 -48 -4 -25 -15 -53 -26 -63 -18 -17 -19 -17 -19 7 0
13 6 27 13 29 9 4 8 8 -3 16 -8 6 -10 11 -4 11 18 0 24 38 7 44 -19 8 -49 -13
-62 -41 -6 -13 -17 -23 -26 -23 -22 0 -18 -28 5 -35 11 -3 20 -11 20 -17 0 -5
6 -8 14 -5 8 3 17 -1 20 -8 4 -12 66 -45 83 -45 3 0 3 13 0 29 -4 17 2 49 14
81 11 29 23 82 26 116 6 64 -1 86 -13 39z m-95 -118 c-9 -7 -21 -22 -28 -34
-7 -14 -20 -22 -34 -22 l-22 2 23 4 c20 4 23 9 22 29 -1 9 45 43 50 37 3 -2
-2 -10 -11 -16z"/>
<path d="M200 1445 c-7 -8 -16 -13 -20 -10 -4 3 -13 -2 -20 -10 -7 -8 -9 -15
-4 -15 15 0 -20 -20 -35 -20 -11 0 -11 3 -1 15 7 8 9 15 6 15 -11 0 -90 -44
-98 -55 -11 -14 -10 -35 2 -35 6 0 10 7 10 15 0 8 10 19 22 26 18 10 20 9 15
-5 -4 -11 -3 -15 4 -11 6 4 8 13 5 21 -3 8 0 11 10 7 18 -7 18 -8 -3 -41 -12
-20 -5 -15 27 16 23 23 45 42 49 42 4 0 17 14 29 30 23 31 24 42 2 15z"/>
<path d="M3520 1450 c0 -5 5 -10 10 -10 6 0 10 -7 10 -15 0 -8 -6 -15 -12 -15
-9 0 -8 -4 2 -10 8 -5 11 -10 6 -10 -6 0 -5 -5 2 -12 9 -9 15 -9 24 0 18 18
19 45 1 64 -17 20 -43 24 -43 8z"/>
<path d="M1080 1440 c0 -5 5 -10 10 -10 6 0 10 5 10 10 0 6 -4 10 -10 10 -5 0
-10 -4 -10 -10z"/>
<path d="M1227 1444 c-12 -12 -8 -141 5 -170 7 -15 32 -47 55 -71 42 -43 54
-61 31 -47 -7 4 -8 3 -4 -4 4 -6 13 -9 22 -5 9 3 27 -8 47 -30 23 -26 37 -34
50 -28 15 6 6 18 -57 76 -74 67 -77 71 -102 154 -14 47 -28 96 -32 109 -4 13
-11 20 -15 16z"/>
<path d="M3025 1390 c3 -5 8 -10 11 -10 2 0 4 5 4 10 0 6 -5 10 -11 10 -5 0
-7 -4 -4 -10z"/>
<path d="M1584 1364 c3 -8 6 -24 6 -35 0 -10 3 -19 8 -19 13 0 7 60 -7 65 -9
4 -11 0 -7 -11z"/>
<path d="M2168 1340 c-3 -16 -1 -30 4 -30 4 0 8 6 8 14 0 8 3 21 6 30 3 9 2
16 -4 16 -5 0 -12 -13 -14 -30z"/>
<path d="M2190 1340 c0 -5 5 -10 10 -10 6 0 10 5 10 10 0 6 -4 10 -10 10 -5 0
-10 -4 -10 -10z"/>
<path d="M400 1310 c0 -5 -7 -7 -15 -4 -8 4 -15 1 -15 -5 0 -15 12 -14 46 4
27 14 27 15 7 15 -13 0 -23 -4 -23 -10z"/>
<path d="M1660 1298 c0 -15 19 -38 32 -38 4 0 8 5 8 11 0 5 -4 7 -10 4 -5 -3
-10 1 -10 9 0 8 -4 18 -10 21 -5 3 -10 0 -10 -7z"/>
<path d="M1955 1300 c-3 -5 3 -10 14 -10 12 0 21 5 21 10 0 6 -6 10 -14 10 -8
0 -18 -4 -21 -10z"/>
<path d="M1164 1283 c-4 -10 -6 -21 -6 -25 1 -5 -4 -8 -12 -8 -20 0 -10 -30
20 -66 22 -25 23 -30 10 -40 -9 -6 -13 -14 -9 -18 3 -3 15 2 25 11 16 15 18
15 13 1 -4 -10 2 -22 17 -32 12 -9 18 -16 14 -16 -5 0 -17 7 -27 16 -16 15
-16 14 -1 -19 9 -20 21 -33 28 -30 7 2 15 -5 19 -15 4 -15 13 -20 33 -17 31 4
82 22 82 29 0 3 -6 3 -14 0 -9 -3 -17 3 -21 15 -3 12 -16 26 -28 32 -21 10
-21 10 -3 -5 11 -9 14 -16 7 -16 -6 0 -20 14 -29 30 -9 17 -22 28 -29 26 -7
-3 -10 1 -6 10 3 9 -1 14 -13 15 -11 0 -14 3 -7 6 10 3 10 7 0 18 -7 7 -15 11
-19 8 -4 -2 -5 3 -2 11 4 10 1 16 -9 16 -9 0 -18 -8 -20 -17 -3 -11 -5 -7 -6
10 0 16 3 26 9 22 5 -3 9 9 8 30 -1 38 -11 45 -24 18z"/>
<path d="M1603 1261 c8 -23 13 -28 15 -16 2 10 -3 25 -12 33 -14 15 -15 13 -3
-17z"/>
<path d="M270 1269 c0 -5 5 -7 10 -4 6 3 10 8 10 11 0 2 -4 4 -10 4 -5 0 -10
-5 -10 -11z"/>
<path d="M1738 1257 c-3 -14 0 -24 7 -24 7 0 10 10 7 24 -2 13 -6 23 -7 23 -1
0 -5 -10 -7 -23z"/>
<path d="M1636 1232 c-7 -12 12 -38 21 -28 4 5 2 11 -5 13 -6 3 -10 9 -6 14 3
5 3 9 0 9 -3 0 -7 -4 -10 -8z"/>
<path d="M1454 1210 c0 -11 4 -20 9 -20 5 0 7 -7 3 -15 -3 -8 -1 -15 5 -15 20
0 21 32 3 51 -19 19 -20 19 -20 -1z"/>
<path d="M1110 1201 c0 -25 6 -27 13 -6 4 8 2 17 -3 20 -6 4 -10 -3 -10 -14z"/>
<path d="M270 1200 c0 -5 5 -10 10 -10 6 0 10 5 10 10 0 6 -4 10 -10 10 -5 0
-10 -4 -10 -10z"/>
<path d="M1748 1183 c7 -3 16 -2 19 1 4 3 -2 6 -13 5 -11 0 -14 -3 -6 -6z"/>
<path d="M1938 1173 c7 -3 16 -2 19 1 4 3 -2 6 -13 5 -11 0 -14 -3 -6 -6z"/>
<path d="M1474 1130 c3 -14 6 -28 6 -32 0 -5 5 -8 10 -8 15 0 12 24 -6 46 -15
18 -15 18 -10 -6z"/>
<path d="M480 1130 c8 -5 22 -9 30 -9 10 0 8 3 -5 9 -27 12 -43 12 -25 0z"/>
<path d="M203 1097 c3 -9 3 -17 -2 -17 -4 0 -13 -11 -18 -23 -9 -19 -7 -30 9
-55 26 -41 34 -40 36 4 1 20 4 39 7 42 3 3 0 11 -6 19 -9 10 -8 13 5 13 9 0
16 5 16 10 0 6 -4 10 -9 10 -5 0 -17 3 -27 7 -13 5 -16 3 -11 -10z"/>
<path d="M1150 1100 c0 -5 7 -10 15 -10 8 0 15 5 15 10 0 6 -7 10 -15 10 -8 0
-15 -4 -15 -10z"/>
<path d="M96 1063 c-10 -63 -8 -129 5 -116 10 10 15 140 6 149 -2 3 -7 -12
-11 -33z"/>
<path d="M1110 1080 c-9 -6 -10 -10 -3 -10 6 0 15 5 18 10 8 12 4 12 -15 0z"/>
<path d="M348 1049 c-10 -17 -18 -40 -19 -52 -1 -20 -2 -20 -9 3 -7 21 -8 18
-10 -20 -1 -25 -3 -58 -6 -75 -8 -58 -10 -174 -4 -170 4 3 10 25 13 50 4 24
11 53 16 62 29 58 51 135 51 181 0 28 -3 52 -7 52 -5 0 -16 -14 -25 -31z"/>
<path d="M1147 1053 c-12 -12 -7 -33 8 -33 17 0 19 9 7 28 -5 7 -11 9 -15 5z"/>
<path d="M1095 1030 c3 -5 8 -10 11 -10 2 0 4 5 4 10 0 6 -5 10 -11 10 -5 0
-7 -4 -4 -10z"/>
<path d="M1160 1000 c-18 -12 -2 -12 25 0 13 6 15 9 5 9 -8 0 -22 -4 -30 -9z"/>
<path d="M631 880 c0 -8 4 -22 9 -30 12 -18 12 -2 0 25 -6 13 -9 15 -9 5z"/>
<path d="M705 828 c-16 -6 -35 -15 -42 -20 -7 -5 -18 -6 -24 -2 -8 4 -9 3 -5
-4 4 -7 1 -12 -7 -12 -19 0 -130 -61 -140 -77 -4 -7 -26 -23 -49 -34 -23 -11
-53 -32 -67 -45 -14 -13 -29 -24 -33 -24 -5 0 -8 -5 -8 -10 0 -6 25 8 55 30
30 22 57 40 60 40 4 0 25 15 46 34 33 28 104 63 249 124 33 14 4 14 -35 0z"/>
<path d="M294 499 c-3 -6 -2 -15 3 -20 5 -5 9 -1 9 11 0 23 -2 24 -12 9z"/>
<path d="M253 461 c0 -11 5 -18 9 -15 4 3 5 11 1 19 -7 21 -12 19 -10 -4z"/>
<path d="M315 451 c-3 -5 -1 -12 5 -16 5 -3 10 1 10 9 0 18 -6 21 -15 7z"/>
<path d="M275 420 c3 -5 8 -10 11 -10 2 0 4 5 4 10 0 6 -5 10 -11 10 -5 0 -7
-4 -4 -10z"/>
<path d="M230 410 c0 -5 5 -10 11 -10 5 0 7 5 4 10 -3 6 -8 10 -11 10 -2 0 -4
-4 -4 -10z"/>
<path d="M345 310 c-3 -5 -1 -10 4 -10 6 0 11 5 11 10 0 6 -2 10 -4 10 -3 0
-8 -4 -11 -10z"/>
<path d="M430 231 c0 -6 5 -11 11 -11 7 0 9 -10 5 -26 -5 -17 -3 -23 4 -19 5
3 10 11 10 17 0 6 8 17 18 24 16 13 16 14 -1 8 -9 -3 -24 -1 -32 6 -10 9 -15
9 -15 1z"/>
<path d="M355 220 c-3 -5 -2 -10 4 -10 5 0 13 5 16 10 3 6 2 10 -4 10 -5 0
-13 -4 -16 -10z"/>
<path d="M1 83 l0 -78 20 69 c16 56 17 71 7 77 -25 16 -28 8 -27 -68z"/>
<path d="M426 135 c-3 -8 -1 -15 4 -15 6 0 10 7 10 15 0 8 -2 15 -4 15 -2 0
-6 -7 -10 -15z"/>
<path d="M377 113 c-4 -3 -7 -11 -7 -17 0 -6 5 -5 12 2 6 6 9 14 7 17 -3 3 -9
2 -12 -2z"/>
<path d="M450 90 c0 -5 5 -10 11 -10 5 0 7 5 4 10 -3 6 -8 10 -11 10 -2 0 -4
-4 -4 -10z"/>
<path d="M439 48 c-7 -24 -5 -38 6 -38 8 0 11 7 8 20 -5 17 -11 26 -14 18z"/>
<path d="M484 43 c10 -10 56 -12 50 -1 -3 4 -17 8 -31 8 -15 0 -23 -3 -19 -7z"/>
<path d="M551 24 c0 -11 3 -14 6 -6 3 7 2 16 -1 19 -3 4 -6 -2 -5 -13z"/>
<path d="M480 9 c0 -5 9 -9 20 -9 26 0 26 15 0 17 -11 1 -20 -2 -20 -8z"/>
</g>
</svg>
