<?xml version="1.0" standalone="no"?>
<!DOCTYPE svg PUBLIC "-//W3C//DTD SVG 20010904//EN"
 "http://www.w3.org/TR/2001/REC-SVG-20010904/DTD/svg10.dtd">
<svg version="1.0" xmlns="http://www.w3.org/2000/svg"
 width="526.000000pt" height="526.000000pt" viewBox="0 0 526.000000 526.000000"
 preserveAspectRatio="xMidYMid meet">
<metadata>
Created by potrace 1.14, written by Peter Selinger 2001-2017
</metadata>
<g transform="translate(0.000000,526.000000) scale(0.100000,-0.100000)"
fill="#000000" stroke="none">
<path d="M0 5199 l0 -60 135 7 c99 5 135 4 135 -5 0 -6 9 -11 20 -11 17 0 20
-7 20 -41 0 -44 -44 -536 -111 -1234 -22 -231 -44 -467 -49 -525 -5 -58 -15
-140 -21 -182 l-11 -78 -59 0 -59 0 0 -124 c0 -134 1 -136 59 -136 15 0 30 -2
32 -5 3 -2 -7 -131 -21 -285 -18 -200 -30 -284 -39 -289 -10 -7 -10 -10 -1
-13 10 -3 10 -26 1 -103 -5 -55 -15 -101 -20 -103 -6 -2 -10 -374 -11 -1008
l-1 -1004 36 0 35 0 0 58 c0 31 5 87 10 124 6 38 12 103 16 145 3 42 7 79 9
83 2 3 6 53 10 110 3 58 15 161 26 230 21 125 23 143 34 275 4 39 12 122 20
186 7 64 13 122 12 130 -1 8 2 34 5 59 7 46 30 303 34 375 3 65 24 269 29 285
3 9 7 58 10 110 10 214 16 297 25 340 5 25 11 87 15 138 3 51 8 114 10 140 2
26 7 99 10 162 3 63 10 140 15 170 5 30 12 87 15 125 3 39 11 139 18 223 7 88
9 159 4 168 -8 13 -4 13 24 -1 21 -11 57 -17 106 -18 72 0 74 -1 113 -40 49
-48 51 -58 6 -24 -18 14 -44 27 -57 29 -13 2 -30 7 -37 11 -10 7 -10 3 0 -18
7 -15 14 -22 16 -16 4 13 38 15 46 2 5 -8 -26 -21 -48 -20 -9 1 -26 -21 -26
-34 0 -5 10 -7 23 -6 12 1 30 -2 40 -6 10 -4 21 -5 24 -1 4 3 -1 6 -10 6 -10
0 -17 8 -17 20 0 23 10 26 28 8 14 -14 16 -58 3 -58 -6 0 -13 -18 -18 -41 l-8
-41 -26 21 c-24 18 -28 19 -33 5 -8 -22 -9 -21 23 -27 25 -5 29 -11 33 -47 4
-41 3 -42 -24 -38 -20 3 -29 0 -34 -14 -9 -28 3 -36 44 -31 33 4 39 1 60 -29
12 -18 18 -34 12 -36 -6 -2 -5 -12 2 -25 34 -66 34 -69 11 -60 -11 4 -14 3 -9
-5 4 -7 13 -12 20 -12 18 0 67 -40 61 -50 -3 -4 1 -10 8 -13 14 -5 107 0 143
8 14 3 24 -1 28 -11 5 -14 4 -15 -9 -4 -20 17 -19 2 3 -35 20 -34 22 -61 4
-57 -7 1 -12 -2 -12 -8 0 -5 7 -10 15 -10 8 0 15 5 15 10 0 23 16 7 33 -33 19
-47 61 -76 72 -49 4 10 -7 28 -30 50 -19 19 -35 38 -35 43 0 4 20 -13 45 -38
25 -25 43 -48 40 -51 -2 -3 3 -11 13 -18 15 -12 14 -13 -8 -8 -14 3 -2 -7 27
-21 50 -26 51 -27 42 -58 -5 -18 -9 -33 -9 -35 0 -2 -4 0 -10 3 -6 3 -7 -1 -4
-9 10 -25 -79 -141 -99 -129 -5 3 -8 0 -5 -8 5 -16 43 -19 43 -4 0 14 47 75
57 75 5 0 26 11 47 25 43 27 51 21 51 -35 0 -16 4 -31 8 -34 13 -8 14 -86 1
-86 -7 0 -5 -10 5 -25 20 -31 20 -45 -1 -45 -15 0 -10 -15 5 -15 13 0 62 -49
62 -61 0 -17 32 -84 39 -84 3 0 13 5 21 10 13 8 13 10 -2 10 -13 0 -17 17 -23
105 -4 58 -5 109 -1 112 3 4 6 -13 6 -36 0 -27 4 -40 11 -36 10 7 32 51 33 70
1 6 12 12 25 13 15 2 20 7 13 11 -8 5 -2 17 18 36 30 29 44 20 14 -9 -19 -20
-23 -20 65 4 40 12 75 19 77 17 3 -2 -24 -16 -58 -31 -39 -16 -83 -46 -115
-77 -29 -28 -53 -46 -53 -40 0 7 -5 9 -10 6 -6 -3 -10 -13 -10 -21 0 -8 5 -12
10 -9 6 3 10 2 10 -4 0 -6 7 -8 15 -5 8 4 15 11 15 18 0 13 53 65 91 89 28 19
121 49 127 42 7 -6 -18 -35 -30 -35 -5 0 -6 5 -2 11 4 7 1 10 -7 7 -8 -3 -15
-14 -17 -26 -3 -20 -1 -21 21 -11 18 8 30 8 46 0 17 -9 21 -9 21 2 0 15 88 39
105 29 5 -4 -3 -10 -20 -13 l-30 -7 33 -1 c31 -1 43 11 22 24 -6 4 -8 11 -4
16 3 6 12 3 20 -8 13 -16 14 -16 8 0 -5 13 -1 17 20 17 14 0 26 3 26 8 0 4 14
22 31 41 l30 35 -6 -34 c-3 -18 -8 -37 -10 -41 -3 -4 -2 -14 1 -23 4 -12 10
-13 18 -7 9 8 11 -1 9 -37 l-3 -47 16 29 c9 16 17 35 18 43 1 8 7 18 12 21 13
10 34 49 34 64 0 6 -7 3 -16 -8 -14 -18 -15 -18 -8 6 4 14 7 30 6 35 -1 6 -3
29 -5 52 -1 23 -6 45 -9 49 -9 8 2 147 12 154 9 6 20 52 27 110 8 67 6 92 -8
100 -19 12 57 30 95 23 40 -8 96 -42 96 -57 0 -7 11 -18 25 -24 14 -7 32 -28
41 -51 8 -22 22 -42 30 -45 11 -4 12 -10 4 -25 -16 -32 -12 -50 15 -57 14 -3
25 -13 25 -21 0 -17 100 -116 153 -149 35 -23 113 -46 147 -44 8 1 27 2 43 2
15 0 27 5 27 9 0 5 7 6 15 3 8 -4 15 -2 15 4 0 5 11 9 25 8 16 0 23 -6 20 -13
-2 -7 0 -13 4 -13 5 0 12 8 15 17 5 12 9 14 18 5 7 -7 19 -12 28 -12 11 1 10
4 -5 12 -11 7 -27 18 -35 26 -12 13 -11 14 8 8 14 -5 22 -3 22 4 0 6 6 10 13
9 13 -2 41 6 69 22 10 5 31 9 48 9 16 0 30 5 30 10 0 11 -1 11 -68 14 -23 1
-47 7 -53 13 -13 13 68 33 139 33 36 0 43 3 32 11 -11 7 1 9 43 4 59 -7 74 -1
35 14 -20 7 -16 10 25 16 79 12 63 25 -31 25 -61 0 -93 4 -100 13 -9 10 1 13
46 12 56 0 122 19 122 36 0 5 -6 6 -14 3 -8 -3 -19 3 -26 15 -9 18 -8 21 12
21 13 0 30 5 38 10 12 7 8 10 -14 10 -23 0 -27 3 -18 12 15 15 -12 48 -40 48
-10 0 -28 9 -40 20 -19 18 -20 20 -4 20 9 0 14 5 11 10 -3 6 -18 7 -33 4 -19
-4 -23 -3 -13 4 9 7 10 12 2 16 -6 4 -9 12 -6 17 4 5 -10 9 -29 9 -20 0 -36 5
-36 11 0 5 -5 7 -11 4 -5 -4 -26 1 -45 10 -19 9 -67 18 -107 20 -40 2 -79 5
-87 8 -44 15 -58 15 -53 -2 3 -12 1 -11 -11 4 -14 16 -20 18 -36 7 -22 -13
-53 -6 -43 11 3 6 1 7 -6 3 -6 -4 -30 -9 -54 -12 -67 -6 -90 -13 -99 -26 -11
-17 -10 -5 1 25 10 24 9 25 -19 11 -15 -8 -33 -28 -39 -44 -5 -17 -15 -30 -20
-30 -6 0 -10 3 -9 8 2 4 -5 18 -15 32 l-19 25 6 -43 c3 -27 2 -41 -4 -37 -6 3
-10 17 -10 31 0 15 -6 24 -16 24 -13 0 -14 -3 -5 -14 10 -12 0 -14 -64 -11
-41 1 -78 5 -82 9 -14 14 -22 5 -11 -14 7 -10 9 -23 5 -27 -5 -4 -12 -1 -18 7
-7 12 -11 13 -18 2 -9 -15 -52 -13 -63 2 -4 6 -13 5 -22 -3 -12 -10 -18 -8
-32 14 -9 14 -22 24 -29 21 -8 -3 -11 4 -9 20 1 13 -2 22 -7 18 -5 -3 -9 -12
-9 -20 0 -8 -5 -12 -10 -9 -6 4 -7 13 -1 23 5 9 10 21 11 26 2 11 -20 26 -40
26 -11 -1 -10 -5 5 -16 19 -16 19 -16 -5 -9 -14 4 -26 12 -28 16 -2 5 -12 9
-22 9 -10 0 -20 6 -23 13 -4 10 -7 10 -18 0 -7 -7 -21 -13 -30 -13 -10 0 -21
-5 -25 -12 -5 -8 -2 -9 9 -5 19 7 22 -4 6 -20 -7 -7 -6 -12 6 -17 10 -4 14 -2
9 6 -4 7 -3 8 4 4 15 -9 3 -38 -14 -32 -8 3 -11 0 -7 -10 3 -7 0 -14 -6 -14
-6 0 -11 4 -11 9 0 5 -13 14 -30 21 -34 14 -40 30 -10 30 11 0 20 7 20 15 0 8
-5 15 -11 15 -5 0 -7 -6 -3 -12 4 -7 -2 -5 -14 6 -13 11 -28 16 -39 12 -14 -6
-15 -9 -3 -16 8 -5 18 -6 22 -4 11 7 10 -8 -1 -25 -8 -12 -13 -12 -36 3 -20
13 -24 21 -16 30 8 9 5 16 -13 25 -13 7 -24 23 -24 35 -1 11 -3 30 -4 41 -2
14 2 20 14 19 10 -1 15 2 12 7 -3 5 -12 9 -20 9 -8 0 -12 5 -9 11 4 6 14 8 22
5 8 -3 11 -2 8 3 -3 5 -1 12 5 16 5 3 10 1 10 -4 0 -6 4 -11 8 -11 5 0 9 7 9
15 0 8 -6 15 -14 15 -17 0 -17 11 2 36 8 12 11 25 7 29 -4 5 1 5 11 2 14 -5
16 -2 11 18 -5 20 -1 27 17 33 24 9 35 52 12 52 -29 0 -12 29 20 32 24 2 31 7
29 21 -2 14 3 17 25 15 29 -2 53 7 53 20 0 4 -14 8 -30 9 -18 1 -30 -3 -30
-10 0 -16 -20 14 -20 30 0 7 7 10 17 6 11 -4 14 -3 9 5 -4 7 -15 12 -25 12
-14 0 -17 6 -13 31 3 20 7 27 12 18 5 -7 8 2 7 22 -2 26 2 33 14 31 9 -1 22 5
29 13 7 9 8 15 2 15 -5 0 -8 9 -5 20 3 11 9 20 14 20 5 0 9 6 9 14 0 8 10 16
23 18 12 2 21 9 20 15 -2 7 4 10 12 7 9 -4 15 0 15 9 0 15 74 60 83 50 3 -3 3
5 0 18 -5 19 -3 21 16 16 15 -3 24 1 31 14 6 10 18 19 28 19 9 0 28 9 42 20
14 11 31 20 38 20 6 0 12 6 12 14 0 8 15 17 38 21 20 3 48 13 60 22 13 8 26
12 29 9 3 -3 12 2 20 10 9 8 23 12 34 9 11 -4 19 -2 19 4 0 6 4 11 10 11 5 0
7 -7 4 -15 -4 -8 -2 -15 4 -15 6 0 13 13 17 29 7 31 30 47 41 29 5 -7 10 -4
15 10 9 23 75 61 105 60 32 -1 93 10 112 21 10 5 29 7 41 4 15 -4 28 1 42 16
11 11 27 21 37 21 15 0 15 -2 2 -11 -11 -8 -3 -9 30 -3 25 4 67 8 94 10 27 1
52 7 55 13 7 11 80 9 101 -4 8 -5 33 -11 55 -13 29 -2 53 -15 91 -47 28 -25
53 -42 56 -40 2 3 11 -11 18 -30 8 -19 20 -35 27 -35 15 0 64 -102 87 -182 16
-55 17 -103 2 -126 -4 -6 1 -23 10 -38 12 -17 18 -47 18 -85 1 -33 4 -59 7
-59 11 0 26 -66 18 -86 -4 -13 0 -35 11 -60 11 -21 16 -49 13 -61 -3 -13 1
-29 11 -38 21 -21 22 -42 1 -25 -21 18 -32 -14 -15 -46 8 -13 10 -27 7 -31 -4
-3 -2 -12 4 -20 8 -8 8 -13 1 -13 -6 0 -5 -12 4 -30 9 -16 13 -39 9 -50 -3
-11 -2 -20 3 -20 11 0 22 -30 28 -80 2 -19 10 -55 18 -80 8 -25 17 -66 20 -92
4 -26 11 -50 17 -53 5 -4 9 -13 9 -21 0 -8 -4 -13 -9 -10 -5 3 -7 -27 -4 -68
2 -49 0 -77 -8 -81 -8 -6 -7 -10 2 -16 9 -5 14 -27 15 -57 0 -26 4 -53 8 -60
4 -7 3 -12 -1 -12 -5 0 -14 -10 -22 -23 -13 -21 -13 -21 4 -7 17 14 18 13 11
-5 -5 -11 -12 -33 -17 -48 -7 -24 -6 -27 6 -17 8 7 12 17 8 24 -4 8 -3 8 6 0
8 -8 8 -17 -3 -40 -8 -16 -17 -47 -20 -69 -5 -28 -4 -34 3 -20 5 12 16 26 24
33 13 11 15 10 9 -10 -3 -13 -12 -29 -19 -36 -15 -15 -18 -59 -4 -64 4 -1 11
-20 15 -41 5 -28 3 -39 -7 -43 -16 -6 -11 -44 5 -44 5 0 6 -5 2 -11 -15 -24
-11 -195 6 -264 15 -57 65 -196 77 -214 2 -2 14 1 28 7 21 10 25 9 25 -4 0
-13 3 -14 14 -5 11 9 15 8 20 -5 9 -23 8 -26 -6 -18 -9 5 -8 2 1 -10 16 -19
26 -13 36 24 5 19 4 21 -4 10 -9 -13 -11 -13 -11 3 0 9 7 17 15 17 8 0 15 7
15 15 0 8 5 15 11 15 6 0 9 -7 5 -15 -3 -8 -1 -15 4 -15 5 0 12 11 16 25 3 14
10 22 15 19 5 -3 9 2 9 11 0 11 5 15 16 11 8 -3 12 -2 9 4 -12 20 51 10 102
-16 73 -37 99 -69 132 -160 27 -73 31 -80 64 -88 30 -8 42 -5 92 24 49 28 69
33 146 38 71 4 93 2 114 -12 41 -27 58 -62 56 -116 -1 -42 2 -51 29 -74 46
-38 90 -46 266 -46 182 0 270 -18 314 -65 13 -14 29 -25 36 -25 7 0 17 -6 21
-12 4 -7 23 -23 41 -36 l32 -23 0 911 0 910 -47 0 c-307 0 -950 15 -957 21 -6
5 212 6 497 3 l507 -7 -1 129 c0 71 -3 123 -6 117 -2 -7 -16 -13 -29 -13 -24
0 -32 -14 -14 -25 6 -3 10 -11 10 -16 0 -12 -43 -1 -48 12 -2 4 -15 5 -28 3
-18 -3 -23 -1 -19 7 5 8 1 9 -15 4 -15 -5 -25 -2 -31 6 -6 10 -9 8 -9 -8 0
-26 -15 -31 -24 -8 -3 8 -12 15 -20 15 -16 0 -11 -29 7 -41 11 -8 1 -29 -14
-29 -6 0 -7 5 -4 10 8 13 -8 13 -22 -1 -7 -7 -13 -7 -17 -1 -3 6 1 18 10 26
18 18 11 21 -16 6 -17 -9 -19 -8 -13 7 4 10 11 21 16 24 6 4 0 17 -12 30 -17
19 -21 20 -21 6 0 -9 -4 -17 -10 -17 -5 0 -10 7 -10 15 0 8 -4 15 -10 15 -5 0
-10 -5 -10 -11 0 -6 -7 -9 -14 -6 -10 4 -13 1 -9 -9 3 -9 -1 -14 -13 -14 -18
-1 -18 -1 0 -15 16 -12 17 -18 8 -27 -9 -9 -12 -8 -12 5 0 10 -8 17 -20 17
-12 0 -20 7 -20 18 0 14 -2 14 -9 3 -8 -12 -12 -13 -26 -1 -9 7 -14 19 -11 27
3 7 1 13 -5 13 -6 0 -9 7 -5 15 7 18 -13 75 -33 95 -13 13 -14 13 -7 -5 13
-31 17 -125 5 -125 -6 0 -8 -9 -4 -21 6 -19 5 -20 -15 -9 -12 6 -19 18 -16 25
3 8 1 17 -3 19 -5 3 -14 26 -21 51 -7 25 -16 48 -21 51 -4 2 -6 11 -2 19 3 8
0 15 -7 15 -8 0 -11 9 -7 25 4 24 3 24 -12 10 -20 -17 -41 -3 -41 26 0 10 -4
21 -10 24 -6 4 -10 -10 -10 -34 0 -38 -2 -40 -37 -47 -21 -4 -42 -12 -46 -18
-5 -7 -7 -3 -5 9 3 15 11 20 31 18 25 -2 26 1 24 37 -2 34 -4 37 -21 28 -13
-7 -16 -7 -12 1 4 6 0 14 -9 17 -19 8 -20 6 -30 -25 -6 -21 -4 -23 13 -19 15
4 18 1 14 -14 -3 -13 -10 -17 -24 -12 -18 5 -19 3 -13 -28 7 -33 7 -33 -13
-14 -12 10 -28 16 -37 12 -9 -3 -18 1 -22 9 -3 10 -12 13 -24 10 -13 -5 -21 0
-27 14 -7 20 -9 21 -37 21 -21 0 -19 26 4 49 12 12 19 30 17 47 -2 15 3 40 11
55 16 32 21 112 9 145 -6 16 -2 23 16 32 22 11 21 11 -6 5 -24 -5 -28 -3 -23
10 3 9 -1 18 -10 21 -15 6 -14 26 4 72 4 11 3 15 -5 10 -7 -4 -9 5 -6 31 4 35
4 36 -7 13 -7 -14 -13 -27 -13 -30 -1 -3 -7 -14 -14 -25 -20 -33 -29 -2 -24
79 3 58 0 85 -18 137 -26 71 -38 91 -51 83 -5 -3 -6 2 -3 10 3 9 2 16 -4 16
-5 0 -12 24 -16 53 -10 79 -37 166 -55 180 -9 7 -17 18 -19 26 -12 57 -136
156 -272 220 -104 49 -177 114 -149 132 11 7 11 9 -3 9 -25 0 -23 7 10 35 23
21 24 24 8 25 -15 0 -16 2 -6 15 7 9 18 14 24 12 20 -7 47 73 40 120 -3 24
-10 43 -14 43 -15 0 -18 -39 -4 -64 9 -19 10 -26 1 -26 -7 0 -29 -16 -50 -35
-37 -34 -54 -44 -43 -27 11 18 -43 35 -88 29 -50 -7 -97 6 -140 38 l-29 22
-27 -31 c-32 -35 -28 -47 27 -72 43 -21 35 -28 -32 -31 -53 -1 -93 -15 -107
-37 -6 -8 -11 -6 -17 4 -8 12 -12 12 -29 -3 -10 -9 -24 -17 -31 -17 -7 0 -10
-4 -6 -9 3 -5 1 -12 -5 -16 -5 -3 -10 2 -10 13 0 12 17 28 48 45 42 24 44 27
20 27 -15 0 -30 -4 -33 -10 -10 -16 -45 -12 -45 5 0 18 16 20 23 3 3 -8 6 -9
6 -2 1 6 16 27 35 47 19 20 39 53 45 74 10 37 11 37 6 4 -3 -19 -17 -49 -31
-68 l-25 -33 41 0 c35 0 46 6 75 38 38 41 43 52 20 52 -8 0 -15 5 -15 10 0 7
6 7 19 0 36 -19 35 10 -2 48 -19 21 -32 43 -30 50 3 6 0 12 -6 12 -6 0 -11 8
-11 18 0 10 -6 24 -12 31 -11 11 -10 13 4 8 10 -3 20 -2 23 3 4 6 -5 10 -19
10 -13 0 -27 -6 -29 -12 -4 -10 -6 -10 -6 0 -1 9 -44 12 -180 12 l-180 0 -6
-55 c-4 -30 -12 -58 -17 -61 -6 -4 -8 1 -5 12 3 11 9 38 12 62 6 38 5 42 -14
42 -17 0 -21 -6 -21 -30 0 -37 -7 -37 -47 0 l-32 30 -361 0 c-326 0 -359 -2
-345 -16 24 -25 17 -30 -8 -6 -28 27 -40 27 -63 5 -17 -17 -18 -17 -11 0 4 11
2 17 -7 17 -13 0 -35 -81 -37 -139 -1 -25 -2 -25 -8 4 -4 17 -4 40 1 53 6 18
4 22 -11 22 -10 0 -21 7 -25 15 -3 8 -10 15 -16 15 -6 0 -4 -7 4 -16 21 -21
20 -25 -11 -63 -16 -19 -28 -36 -29 -40 0 -6 -11 -33 -33 -81 -9 -21 -10 -16
-6 31 5 68 13 89 31 89 8 0 14 9 14 19 0 17 -4 18 -36 11 -36 -8 -70 -30 -47
-30 7 0 15 5 18 10 3 6 10 10 15 10 10 0 8 -19 -4 -39 -5 -7 -10 -36 -12 -65
-2 -28 -5 -60 -6 -71 -2 -14 2 -20 15 -19 9 1 17 -5 17 -13 0 -9 -6 -13 -15
-9 -11 4 -15 -1 -15 -18 0 -34 -25 -52 -26 -20 -1 14 -9 33 -18 43 -9 10 -16
23 -16 30 0 18 -36 86 -54 100 -9 8 -16 9 -16 3 0 -5 6 -12 14 -15 8 -3 26
-43 41 -89 16 -46 30 -89 33 -97 3 -9 1 -12 -6 -8 -6 4 -14 22 -17 40 -4 17
-11 37 -16 43 -7 9 -15 38 -18 66 -4 35 -116 90 -153 75 -7 -3 -1 -6 13 -6 15
-1 30 -8 33 -17 5 -14 1 -16 -23 -11 -17 4 -31 2 -33 -4 -2 -6 -26 -12 -53
-14 -28 -2 -70 -7 -94 -11 -31 -4 -42 -3 -37 5 4 6 1 11 -8 11 -67 0 83 49
154 51 19 0 29 3 22 6 -6 2 -9 9 -6 15 4 6 -1 8 -12 4 -11 -3 -41 -10 -69 -16
-27 -6 -63 -13 -78 -16 -30 -7 -107 13 -107 28 0 4 -13 8 -28 8 -39 0 -59 -41
-37 -73 8 -12 15 -33 14 -47 -1 -23 -2 -23 -11 7 -16 49 -79 58 -77 10 1 -17
2 -18 6 -4 7 26 21 21 16 -7 -4 -20 -10 -23 -50 -23 -65 0 -78 -17 -78 -107 0
-41 -3 -72 -7 -70 -6 4 -18 -67 -23 -136 -3 -35 -4 -37 -15 -20 -7 11 -8 7 -4
-15 7 -39 -9 -71 -71 -139 -11 -12 -21 -26 -23 -31 -1 -6 -14 -9 -27 -8 -19 2
-25 -3 -25 -17 0 -13 5 -18 15 -14 20 8 20 -20 0 -75 -19 -55 -43 -80 -57 -60
-8 12 -9 12 -5 -1 2 -8 -7 -28 -22 -43 -17 -18 -20 -26 -9 -22 9 4 19 13 22
20 3 8 15 19 27 25 20 11 21 10 15 -15 -8 -33 -27 -53 -44 -47 -11 3 -16 -9
-13 -30 0 -4 -16 -21 -37 -39 l-37 -31 33 6 c37 6 42 -6 10 -28 -14 -10 -17
-16 -8 -16 12 0 11 -3 -2 -16 -15 -16 -15 -18 5 -35 12 -10 17 -18 11 -19 -7
0 -15 -10 -19 -22 -3 -13 -9 -18 -11 -11 -3 7 -12 9 -20 6 -7 -3 -12 -9 -9
-13 3 -4 -6 -15 -20 -24 -24 -16 -26 -16 -33 5 -6 14 -8 -12 -8 -69 1 -81 3
-92 19 -92 9 0 17 -4 17 -10 0 -5 -7 -10 -16 -10 -9 0 -14 -3 -12 -7 2 -5 14
-30 28 -56 32 -64 22 -81 -51 -85 -62 -4 -136 23 -119 43 12 14 19 67 25 179
4 74 19 307 30 446 4 53 24 241 45 405 5 44 12 132 15 195 3 63 10 140 15 170
17 103 21 192 7 187 -6 -2 -15 -26 -20 -53 -11 -73 -16 -83 -29 -61 -7 13 -7
22 1 30 6 6 11 28 11 49 l0 38 -250 0 -250 0 0 -61z m2667 4 c-3 -10 -5 -2 -5
17 0 19 2 27 5 18 2 -10 2 -26 0 -35z m358 37 c-3 -5 -12 -10 -18 -10 -7 0 -6
4 3 10 19 12 23 12 15 0z m-130 -30 c-10 -11 -20 -18 -23 -15 -7 6 18 35 31
35 5 0 2 -9 -8 -20z m-822 -25 c23 -32 17 -32 -13 0 -13 14 -19 25 -14 25 5 0
17 -12 27 -25z m1145 -50 c-3 -3 -9 2 -12 12 -6 14 -5 15 5 6 7 -7 10 -15 7
-18z m-1356 -43 c-2 -7 -7 -10 -10 -7 -4 3 -11 -11 -17 -32 -6 -22 -17 -38
-25 -38 -23 0 -13 52 18 93 23 30 27 32 33 16 3 -11 4 -25 1 -32z m1002 23
c-4 -8 -8 -15 -10 -15 -2 0 -4 7 -4 15 0 8 4 15 10 15 5 0 7 -7 4 -15z m-214
-5 c0 -5 -2 -10 -4 -10 -3 0 -8 5 -11 10 -3 6 -1 10 4 10 6 0 11 -4 11 -10z
m121 -7 c13 -17 13 -17 -6 -3 -11 8 -22 16 -24 17 -2 2 0 3 6 3 6 0 17 -8 24
-17z m-1601 -3 c-13 -8 -12 -10 5 -11 11 -1 26 -1 34 0 11 2 11 0 0 -12 -12
-13 -17 -13 -41 1 -28 17 -28 32 0 32 15 0 15 -2 2 -10z m-676 -59 c-4 -17 -9
-30 -11 -27 -3 2 -2 19 2 36 9 41 17 33 9 -9z m2196 29 c8 -5 12 -11 10 -14
-3 -2 -14 2 -24 10 -22 15 -10 19 14 4z m148 -43 c36 -70 22 -76 -14 -6 -18
33 -27 58 -20 57 6 -2 22 -25 34 -51z m-1606 17 c-7 -12 -11 -13 -17 -4 -4 7
-2 16 6 21 18 11 23 4 11 -17z m-50 -2 c-9 -6 0 -12 26 -20 44 -14 63 -47 31
-55 -21 -6 -27 19 -6 26 6 2 -5 7 -25 11 -21 4 -40 11 -43 16 -8 13 3 30 18
30 9 0 8 -3 -1 -8z m425 -63 c3 -35 8 -68 12 -74 4 -5 4 -26 1 -45 l-6 -35
-12 35 c-10 29 -18 146 -13 184 3 26 13 -9 18 -65z m-202 51 c-27 -12 -35 -12
-35 0 0 6 12 10 28 9 24 0 25 -1 7 -9z m1845 3 c0 -5 -5 -15 -10 -23 -8 -12
-10 -11 -10 8 0 12 5 22 10 22 6 0 10 -3 10 -7z m-1916 -28 c-4 -9 0 -15 10
-15 9 0 16 -4 16 -10 0 -16 -15 -12 -34 9 -17 18 -16 20 11 30 1 1 0 -6 -3
-14z m1441 5 c3 -5 2 -10 -4 -10 -5 0 -13 5 -16 10 -3 6 -2 10 4 10 5 0 13 -4
16 -10z m813 -1 c-2 -6 -7 -10 -11 -10 -4 1 -14 1 -23 1 -8 0 -12 5 -9 10 8
13 48 13 43 -1z m-2461 -35 c-9 -9 -27 6 -27 22 0 13 2 13 16 -1 9 -9 14 -18
11 -21z m-641 -1 c-10 -10 -19 5 -10 18 6 11 8 11 12 0 2 -7 1 -15 -2 -18z
m1074 6 c0 -5 -4 -9 -10 -9 -5 0 -10 7 -10 16 0 8 5 12 10 9 6 -3 10 -10 10
-16z m250 12 c0 -5 -7 -11 -15 -15 -15 -5 -20 5 -8 17 9 10 23 9 23 -2z m-640
-16 c9 -8 34 -19 56 -24 l39 -9 -40 -1 c-42 -1 -52 3 -74 32 -16 21 -4 23 19
2z m1515 4 c11 -17 -1 -21 -15 -4 -8 9 -8 15 -2 15 6 0 14 -5 17 -11z m-1199
-50 c13 -42 9 -54 -5 -16 -17 46 -23 72 -15 64 5 -5 14 -26 20 -48z m1414 11
c0 -13 -1 -13 -10 0 -5 8 -10 22 -10 30 0 13 1 13 10 0 5 -8 10 -22 10 -30z
m-1897 5 c-3 -8 -14 -15 -24 -15 -23 0 -24 4 -3 24 18 19 36 12 27 -9z m87 0
c-7 -8 -20 -15 -29 -15 -11 1 -8 5 9 15 32 18 35 18 20 0z m427 -7 c3 -45 20
-108 37 -135 l17 -28 -24 29 c-14 16 -28 41 -31 55 -3 14 -10 43 -15 64 -6 26
-6 37 3 37 6 0 12 -10 13 -22z m308 12 c12 -19 -5 -31 -27 -19 -17 9 -18 13
-7 20 18 11 26 11 34 -1z m-669 -60 c8 -7 14 -27 14 -44 0 -17 4 -37 9 -45 6
-9 5 -21 -2 -33 -19 -29 -28 -21 -22 20 7 46 -7 98 -26 94 -8 -2 -11 0 -7 4 4
4 3 14 -4 21 -9 11 -9 17 3 24 10 6 15 3 17 -11 2 -10 10 -24 18 -30z m2354
30 c0 -5 -4 -10 -10 -10 -5 0 -10 5 -10 10 0 6 5 10 10 10 6 0 10 -4 10 -10z
m-3028 -25 c-2 -14 -8 -25 -12 -25 -4 0 -5 11 -2 25 2 14 8 25 12 25 4 0 5
-11 2 -25z m508 6 c-10 -20 -30 -37 -30 -26 0 11 25 45 33 45 4 0 3 -9 -3 -19z
m337 3 c-3 -3 -12 -4 -19 -1 -8 3 -5 6 6 6 11 1 17 -2 13 -5z m1743 -9 c-7 -8
-17 -15 -22 -15 -6 0 -5 7 2 15 7 8 17 15 22 15 6 0 5 -7 -2 -15z m-1963 -17
c-3 -8 -6 -5 -6 6 -1 11 2 17 5 13 3 -3 4 -12 1 -19z m1032 -14 c59 -24 25
-27 -43 -4 -36 12 -66 23 -66 25 0 7 75 -8 109 -21z m-1149 -36 c0 -5 -4 -8
-10 -8 -5 0 -10 10 -10 23 0 18 2 19 10 7 5 -8 10 -18 10 -22z m160 -10 c0
-14 -19 1 -31 25 -12 22 -12 22 10 3 11 -11 21 -23 21 -28z m613 12 c3 -11 1
-18 -3 -15 -5 3 -10 -1 -12 -7 -3 -8 -10 -3 -18 12 -12 23 -12 24 3 11 15 -12
17 -11 17 3 0 22 7 20 13 -4z m-665 -2 c-6 -18 -28 -21 -28 -4 0 9 7 16 16 16
9 0 14 -5 12 -12z m1267 -28 c3 -5 2 -10 -4 -10 -5 0 -13 5 -16 10 -3 6 -2 10
4 10 5 0 13 -4 16 -10z m-1231 -22 c-1 -13 -3 -29 -3 -35 -1 -7 -8 -13 -16
-13 -8 0 -15 -4 -15 -10 0 -5 5 -10 11 -10 5 0 7 -4 4 -10 -10 -17 -31 -11
-32 9 -1 10 8 24 20 30 l22 12 -22 -5 c-15 -3 -23 1 -23 10 0 8 -5 14 -11 14
-25 0 11 26 39 28 24 2 28 -1 26 -20z m104 8 c-10 -7 -18 -21 -18 -30 0 -9 -6
-16 -12 -16 -7 0 -23 -15 -35 -34 -15 -24 -29 -33 -47 -33 -35 0 -33 5 9 23
21 9 35 20 33 29 -3 15 59 75 77 75 6 -1 2 -7 -7 -14z m1333 -3 c13 -16 12
-17 -3 -4 -10 7 -18 15 -18 17 0 8 8 3 21 -13z m849 -3 c-6 -11 -13 -20 -16
-20 -2 0 0 9 6 20 6 11 13 20 16 20 2 0 0 -9 -6 -20z m-2102 -11 c-13 -10 -28
-23 -35 -29 -19 -15 -24 5 -7 26 9 10 27 20 40 20 l25 2 -23 -19z m-302 -11
c4 -6 3 -8 -4 -4 -6 3 -13 2 -17 -4 -9 -15 -25 -12 -25 5 0 18 36 20 46 3z
m764 -9 c0 -6 -4 -7 -10 -4 -5 3 -10 11 -10 16 0 6 5 7 10 4 6 -3 10 -11 10
-16z m1774 -4 c-9 -14 -19 -23 -22 -20 -5 4 26 45 35 45 2 0 -4 -11 -13 -25z
m-819 5 c3 -5 1 -10 -4 -10 -6 0 -11 5 -11 10 0 6 2 10 4 10 3 0 8 -4 11 -10z
m1037 -6 c146 -54 210 -93 213 -130 1 -10 17 -36 36 -56 55 -59 87 -175 59
-218 -18 -28 -39 11 -55 100 -9 53 -24 97 -40 122 -16 24 -21 38 -13 39 14 0
-81 48 -97 49 -19 0 -125 54 -125 64 0 5 -7 18 -17 28 -20 22 -15 22 39 2z
m-2154 -6 c-3 -7 4 -17 15 -23 11 -5 23 -16 25 -24 3 -9 -5 -7 -24 8 -28 22
-41 51 -22 51 5 0 8 -6 6 -12z m596 -8 c7 -7 6 -10 -3 -10 -7 0 -10 -4 -6 -9
3 -5 1 -13 -5 -16 -6 -4 -10 -3 -9 2 4 23 -4 30 -36 28 -20 -1 -39 -5 -42 -9
-3 -3 -25 -5 -47 -5 -23 1 -31 4 -18 6 12 2 22 9 22 14 0 14 -27 11 -42 -4 -7
-8 -19 -12 -27 -9 -10 3 -7 9 10 19 27 16 186 10 203 -7z m1476 10 c12 -8 11
-10 -5 -9 -11 1 -33 5 -50 9 l-30 8 35 1 c19 0 42 -4 50 -9z m-2751 -65 c-2
-47 -6 -65 -16 -65 -15 0 -18 26 -3 35 6 3 10 26 10 51 0 24 2 44 6 44 3 0 4
-29 3 -65z m89 45 c15 0 15 -2 2 -10 -8 -5 -16 -21 -17 -36 -2 -25 -17 -43
-35 -44 -10 0 -10 84 -1 94 4 3 13 4 21 1 7 -3 21 -5 30 -5z m2478 -28 c-17
-16 -18 -16 -5 5 7 12 15 20 18 17 3 -2 -3 -12 -13 -22z m313 -56 c-2 -2 -31
-13 -63 -25 -57 -20 -83 -20 -70 0 3 5 9 7 14 4 4 -3 23 2 41 10 31 13 89 21
78 11z m-1766 -13 c-7 -2 -21 -2 -30 0 -10 3 -4 5 12 5 17 0 24 -2 18 -5z
m1625 -38 c-2 -6 -38 -44 -81 -85 -42 -41 -76 -72 -74 -67 5 16 142 165 150
163 5 -1 7 -6 5 -11z m-1568 -67 c0 -12 -6 -9 -26 13 -19 22 -19 22 4 8 12 -8
22 -17 22 -21z m1860 -32 c0 -16 -28 15 -34 37 -5 21 -4 21 14 -3 11 -14 20
-29 20 -34z m-3028 14 c22 11 22 11 -2 -10 -14 -11 -34 -26 -45 -32 -18 -10
-19 -10 -6 6 11 13 11 20 3 28 -20 20 -13 32 7 14 16 -14 24 -15 43 -6z m2998
-41 c0 -11 -4 -17 -10 -14 -5 3 -10 15 -10 26 0 11 5 17 10 14 6 -3 10 -15 10
-26z m167 -71 c-3 -7 -5 -2 -5 12 0 14 2 19 5 13 2 -7 2 -19 0 -25z m13 -40
c0 -34 -11 -68 -22 -68 -5 0 -6 5 -2 12 4 7 7 27 6 45 -2 18 2 33 8 33 5 0 10
-10 10 -22z m-418 -30 c-7 -7 -12 -8 -12 -2 0 6 3 14 7 17 3 4 9 5 12 2 2 -3
-1 -11 -7 -17z m378 -8 c0 -5 -7 -10 -16 -10 -8 0 -12 5 -9 10 3 6 10 10 16
10 5 0 9 -4 9 -10z m-2765 -20 c13 -6 15 -9 5 -9 -8 0 -22 4 -30 9 -18 12 -2
12 25 0z m2870 -96 l16 -25 -25 16 c-14 10 -26 21 -26 26 0 17 18 9 35 -17z
m-3481 -19 c-10 -16 -20 -23 -22 -16 -4 12 28 55 35 47 3 -2 -3 -17 -13 -31z
m3486 -39 c0 -12 -4 -27 -9 -35 -8 -12 -12 -12 -25 -2 -16 13 -22 72 -9 84 11
11 43 -24 43 -47z m-3776 -11 c-4 -8 -8 -15 -10 -15 -2 0 -4 7 -4 15 0 8 4 15
10 15 5 0 7 -7 4 -15z m286 -6 c0 -11 -4 -18 -9 -14 -5 3 -12 1 -16 -5 -3 -5
-11 -10 -17 -10 -6 0 -1 11 12 25 28 30 30 30 30 4z m3520 -58 c-13 -26 -13
-44 2 -35 7 4 8 3 4 -4 -12 -20 -46 -14 -46 8 0 11 4 20 9 20 5 0 8 6 8 13 0
6 3 28 8 47 l9 35 8 -33 c5 -20 5 -40 -2 -51z m-3558 -7 c-7 -12 -11 -13 -17
-4 -4 7 -2 16 6 21 18 11 23 4 11 -17z m28 -4 c0 -5 -4 -10 -10 -10 -5 0 -10
5 -10 10 0 6 5 10 10 10 6 0 10 -4 10 -10z m3607 -260 c10 -26 9 -30 -6 -30
-24 0 -29 7 -23 35 6 33 15 31 29 -5z m-3665 -87 c14 -13 21 -14 30 -5 13 13
58 16 58 4 0 -4 -21 -17 -47 -28 -53 -24 -73 -18 -73 22 0 28 7 30 32 7z
m1048 -3 c0 -5 -4 -10 -9 -10 -6 0 -13 5 -16 10 -3 6 1 10 9 10 9 0 16 -4 16
-10z m-955 -77 c-21 -49 -29 -56 -54 -48 -31 10 -26 29 14 48 19 9 35 21 35
27 0 5 5 10 10 10 6 0 4 -16 -5 -37z m-59 12 c-23 -17 -36 -19 -36 -6 0 5 10
12 23 14 12 2 24 5 27 5 3 1 -4 -5 -14 -13z m3384 -80 c7 -9 8 -15 2 -15 -5 0
-12 7 -16 15 -3 8 -4 15 -2 15 2 0 9 -7 16 -15z m-3368 -115 c20 0 1 -25 -20
-26 -25 -1 -27 8 -9 36 9 17 13 18 15 5 2 -8 8 -15 14 -15z m3828 0 c0 -5 -2
-10 -4 -10 -3 0 -8 5 -11 10 -3 6 -1 10 4 10 6 0 11 -4 11 -10z m-210 -45 c0
-5 -5 -3 -10 5 -5 8 -10 20 -10 25 0 6 5 3 10 -5 5 -8 10 -19 10 -25z m-3955
-14 c3 -5 1 -12 -5 -16 -5 -3 -10 1 -10 9 0 18 6 21 15 7z m321 -50 c8 6 14 7
14 3 0 -5 -9 -15 -20 -21 -23 -15 -36 -1 -24 25 7 16 7 16 11 -1 4 -14 8 -16
19 -6z m4284 -51 c0 -5 -5 -10 -11 -10 -5 0 -7 5 -4 10 3 6 8 10 11 10 2 0 4
-4 4 -10z m-4280 -30 c13 -8 13 -10 -2 -10 -9 0 -20 5 -23 10 -8 13 5 13 25 0z
m4464 -2 c5 -10 7 -10 12 0 9 19 21 14 28 -10 7 -29 6 -34 -5 -31 -4 2 -6 -4
-3 -12 4 -9 0 -15 -8 -15 -12 0 -48 57 -48 75 0 10 19 4 24 -7z m-3324 -8
c-20 -13 -33 -13 -25 0 3 6 14 10 23 10 15 0 15 -2 2 -10z m-1052 -55 c11 -24
7 -55 -7 -55 -13 0 -51 31 -51 42 0 6 8 8 18 6 12 -3 19 0 19 9 0 8 -7 11 -19
7 -10 -3 -18 -1 -18 5 0 23 47 11 58 -14z m1067 15 c4 -6 12 -7 18 -3 7 4 6
-1 -2 -11 -11 -13 -16 -14 -22 -4 -7 10 -9 10 -9 1 0 -7 -4 -13 -9 -13 -6 0
-9 9 -8 20 1 21 21 27 32 10z m-61 -15 c-10 -8 -23 -14 -29 -14 -5 0 -1 6 9
14 11 8 24 15 30 15 5 0 1 -7 -10 -15z m1055 -1 c3 -4 -9 -5 -26 -2 -18 2 -33
1 -33 -3 0 -5 -8 -5 -17 -2 -15 6 -15 7 3 14 21 8 63 4 73 -7z m2191 6 c0 -5
-2 -10 -4 -10 -3 0 -8 5 -11 10 -3 6 -1 10 4 10 6 0 11 -4 11 -10z m-2770 -30
c0 -5 -4 -10 -10 -10 -5 0 -10 5 -10 10 0 6 5 10 10 10 6 0 10 -4 10 -10z
m2765 0 c3 -6 -1 -7 -9 -4 -18 7 -21 14 -7 14 6 0 13 -4 16 -10z m-2168 -6
c-3 -3 -12 -4 -19 -1 -8 3 -5 6 6 6 11 1 17 -2 13 -5z m106 -1 c-7 -2 -19 -2
-25 0 -7 3 -2 5 12 5 14 0 19 -2 13 -5z m-1422 -27 c-6 -8 -11 -18 -10 -22 3
-20 -2 -28 -10 -15 -12 19 -2 51 16 51 12 0 13 -3 4 -14z m119 -6 c-24 -15
-37 -11 -16 5 11 8 22 12 25 9 3 -3 -1 -9 -9 -14z m197 -2 c-3 -8 -6 -5 -6 6
-1 11 2 17 5 13 3 -3 4 -12 1 -19z m2180 -47 c34 -51 47 -129 34 -221 -8 -63
-22 -101 -64 -187 -30 -59 -69 -142 -87 -183 -18 -41 -50 -101 -71 -132 -21
-31 -41 -68 -44 -81 -15 -57 -86 -116 -160 -132 -27 -6 -28 -5 -12 8 23 19 22
36 -3 30 -14 -4 -24 4 -39 28 l-20 33 -11 -29 c-6 -15 -13 -25 -16 -22 -3 3 0
15 6 27 8 15 10 51 7 106 -5 76 3 114 16 82 3 -8 6 -6 6 5 1 10 15 36 33 58
26 32 32 49 33 95 2 44 7 58 24 70 16 12 20 22 16 44 -9 53 13 41 24 -12 12
-56 11 -128 -1 -128 -5 0 -8 -4 -8 -10 0 -18 45 -21 82 -5 52 21 68 50 67 121
-1 63 -31 150 -49 139 -5 -3 -10 -2 -10 3 0 6 7 12 15 16 8 3 15 14 15 24 0
11 7 25 15 32 8 7 15 18 15 24 0 6 15 16 34 22 l34 11 -4 -91 c-3 -50 -9 -109
-14 -131 -5 -22 -10 -57 -10 -78 0 -56 -25 -108 -72 -148 -25 -22 -37 -38 -30
-43 16 -10 77 48 108 102 14 26 38 67 52 92 13 25 33 57 43 71 25 36 59 180
59 252 0 59 -23 120 -54 146 -17 14 -12 34 7 28 7 -2 22 -18 34 -36z m-2552
-11 c-3 -5 -16 -15 -28 -21 -22 -12 -22 -12 -3 10 19 21 43 30 31 11z m-513
-65 c-6 -34 -12 -32 -12 6 0 16 4 28 9 25 4 -3 6 -17 3 -31z m2917 14 c-8 -16
-14 -18 -22 -10 -9 9 -8 14 3 21 24 16 31 11 19 -11z m31 -49 c0 -5 -13 -16
-30 -25 -35 -18 -39 -11 -7 16 25 21 37 24 37 9z m-2810 -66 c0 -8 -5 -12 -10
-9 -6 4 -8 11 -5 16 9 14 15 11 15 -7z m1760 1 c8 -1 27 -2 43 -3 20 -2 27 -7
27 -22 0 -11 5 -20 11 -20 5 0 7 -4 4 -10 -3 -5 -23 -10 -43 -10 -20 0 -54 -4
-74 -9 -21 -5 -38 -7 -38 -6 0 2 -3 11 -7 20 -5 14 -2 16 16 10 16 -5 22 -3
20 7 -4 35 2 59 13 51 7 -4 20 -8 28 -8z m-1815 -53 c-6 -7 -35 18 -35 31 0 5
9 2 20 -8 11 -10 18 -20 15 -23z m1668 31 c-7 -2 -19 -2 -25 0 -7 3 -2 5 12 5
14 0 19 -2 13 -5z m1082 -26 c10 3 12 -2 8 -16 -3 -13 -12 -19 -24 -18 -26 4
-33 13 -25 33 5 13 10 14 18 6 6 -6 16 -8 23 -5z m-2605 -140 c-1 -14 -58 -72
-65 -66 -8 8 46 90 56 84 5 -4 9 -12 9 -18z m140 -11 c0 -3 -4 -8 -10 -11 -5
-3 -10 -1 -10 4 0 6 5 11 10 11 6 0 10 -2 10 -4z m5 -85 c0 -31 3 -36 23 -35
12 0 22 -3 22 -8 0 -4 -5 -8 -11 -8 -5 0 -7 -4 -4 -10 3 -5 1 -10 -4 -10 -6 0
-11 5 -11 11 0 5 -4 8 -9 4 -6 -3 -13 11 -16 32 -3 21 -8 48 -11 61 -4 19 -2
21 8 11 7 -6 13 -28 13 -48z m2230 30 c3 -5 1 -12 -5 -16 -5 -3 -10 1 -10 9 0
18 6 21 15 7z m-2200 -11 c3 -5 -1 -10 -10 -10 -9 0 -13 5 -10 10 3 6 8 10 10
10 2 0 7 -4 10 -10z m2195 -34 c0 -3 -4 -8 -10 -11 -5 -3 -10 -1 -10 4 0 6 5
11 10 11 6 0 10 -2 10 -4z m600 -64 c0 -19 -3 -15 -24 28 l-17 35 21 -24 c11
-13 20 -30 20 -39z m-2503 22 c-3 -3 -12 -4 -19 -1 -8 3 -5 6 6 6 11 1 17 -2
13 -5z m1950 -28 c-1 -19 -5 -32 -9 -29 -5 2 -8 -7 -8 -21 0 -14 -3 -26 -7
-26 -10 0 -9 57 1 88 11 33 25 26 23 -12z m263 -171 c0 -8 -4 -15 -10 -15 -5
0 -7 7 -4 15 4 8 8 15 10 15 2 0 4 -7 4 -15z m-23 -107 c-3 -8 -6 -5 -6 6 -1
11 2 17 5 13 3 -3 4 -12 1 -19z m8 -95 l28 -38 -31 29 c-18 17 -32 33 -32 38
0 15 7 9 35 -29z m-168 -145 c-3 -8 -6 -5 -6 6 -1 11 2 17 5 13 3 -3 4 -12 1
-19z m290 -24 c-3 -3 -12 -4 -19 -1 -8 3 -5 6 6 6 11 1 17 -2 13 -5z"/>
<path d="M4052 4395 c0 -16 2 -22 5 -12 2 9 2 23 0 30 -3 6 -5 -1 -5 -18z"/>
<path d="M3630 2471 c-13 -26 -13 -34 2 -29 6 2 12 14 13 26 2 27 -1 28 -15 3z"/>
<path d="M1886 5225 c-3 -8 -1 -15 4 -15 6 0 10 7 10 15 0 8 -2 15 -4 15 -2 0
-6 -7 -10 -15z"/>
<path d="M1770 5222 c0 -12 19 -26 26 -19 2 2 -2 10 -11 17 -9 8 -15 8 -15 2z"/>
<path d="M1500 5199 c0 -5 5 -7 10 -4 6 3 10 8 10 11 0 2 -4 4 -10 4 -5 0 -10
-5 -10 -11z"/>
<path d="M1825 5180 c-3 -5 -1 -10 4 -10 6 0 11 5 11 10 0 6 -2 10 -4 10 -3 0
-8 -4 -11 -10z"/>
<path d="M1536 5165 c10 -8 24 -14 29 -14 6 0 1 6 -9 14 -11 8 -24 15 -30 15
-5 0 -1 -7 10 -15z"/>
<path d="M1556 5115 c10 -8 23 -15 28 -15 6 0 1 7 -10 15 -10 8 -23 15 -28 15
-6 0 -1 -7 10 -15z"/>
<path d="M1697 5056 c-10 -8 -15 -16 -10 -18 4 -3 16 3 26 14 20 21 10 24 -16
4z"/>
<path d="M675 4590 c4 -6 11 -8 16 -5 14 9 11 15 -7 15 -8 0 -12 -5 -9 -10z"/>
<path d="M830 4570 c0 -5 4 -10 9 -10 6 0 13 5 16 10 3 6 -1 10 -9 10 -9 0
-16 -4 -16 -10z"/>
<path d="M616 4195 c5 -13 9 -13 23 -3 9 7 18 14 20 15 2 2 -8 3 -22 3 -20 0
-25 -4 -21 -15z"/>
<path d="M530 4090 c-8 -5 -10 -10 -5 -10 6 0 17 5 25 10 8 5 11 10 5 10 -5 0
-17 -5 -25 -10z"/>
<path d="M595 4080 c-3 -5 -1 -10 4 -10 6 0 11 5 11 10 0 6 -2 10 -4 10 -3 0
-8 -4 -11 -10z"/>
<path d="M590 4018 c-12 -22 -12 -22 6 -6 10 10 15 20 12 24 -4 3 -12 -5 -18
-18z"/>
<path d="M4420 3899 c-35 -31 -35 -31 -3 -9 18 11 35 25 38 30 10 16 2 11 -35
-21z"/>
<path d="M510 3691 c0 -6 4 -13 10 -16 6 -3 7 1 4 9 -7 18 -14 21 -14 7z"/>
<path d="M4302 3550 c0 -14 2 -19 5 -12 2 6 2 18 0 25 -3 6 -5 1 -5 -13z"/>
<path d="M1630 3535 c0 -14 4 -25 9 -25 5 0 8 11 7 25 -1 33 -16 33 -16 0z"/>
<path d="M4680 3531 c0 -25 6 -27 13 -6 4 8 2 17 -3 20 -6 4 -10 -3 -10 -14z"/>
<path d="M4670 3484 c0 -8 5 -12 10 -9 6 4 8 11 5 16 -9 14 -15 11 -15 -7z"/>
<path d="M0 3460 c0 -5 5 -10 11 -10 5 0 7 5 4 10 -3 6 -8 10 -11 10 -2 0 -4
-4 -4 -10z"/>
<path d="M18 3412 c-11 -2 -18 -13 -18 -28 0 -29 16 -32 25 -5 3 11 14 21 23
23 14 3 14 5 2 9 -8 3 -23 4 -32 1z"/>
<path d="M5151 3401 c-8 -6 -9 -11 -3 -15 6 -3 14 -1 17 5 9 14 2 20 -14 10z"/>
<path d="M63 3378 c-13 -6 -23 -15 -23 -20 0 -4 -9 -8 -20 -8 -16 0 -20 -7
-20 -30 l0 -31 60 3 c65 2 80 15 49 42 -13 11 -18 24 -14 36 7 22 1 24 -32 8z"/>
<path d="M5160 3352 c0 -5 7 -13 16 -16 10 -4 14 -1 12 6 -5 15 -28 23 -28 10z"/>
<path d="M1625 3300 c3 -5 8 -10 11 -10 2 0 4 5 4 10 0 6 -5 10 -11 10 -5 0
-7 -4 -4 -10z"/>
<path d="M18 3273 c-39 -10 -14 -23 42 -23 41 0 60 4 60 13 0 12 -65 18 -102
10z"/>
<path d="M590 3226 c0 -9 5 -16 10 -16 6 0 10 4 10 9 0 6 -4 13 -10 16 -5 3
-10 -1 -10 -9z"/>
<path d="M1926 3227 c3 -10 9 -15 12 -12 3 3 0 11 -7 18 -10 9 -11 8 -5 -6z"/>
<path d="M2120 3233 c0 -15 18 -35 23 -27 3 5 -1 15 -9 22 -8 7 -14 9 -14 5z"/>
<path d="M0 3181 c0 -30 103 -44 114 -15 12 30 6 34 -54 34 -52 0 -60 -2 -60
-19z"/>
<path d="M505 3120 c3 -5 10 -10 16 -10 5 0 9 5 9 10 0 6 -7 10 -16 10 -8 0
-12 -4 -9 -10z"/>
<path d="M3070 3106 c0 -2 7 -7 16 -10 8 -3 12 -2 9 4 -6 10 -25 14 -25 6z"/>
<path d="M680 3050 c0 -5 9 -10 21 -10 11 0 17 5 14 10 -3 6 -13 10 -21 10 -8
0 -14 -4 -14 -10z"/>
<path d="M500 3026 c0 -14 29 -31 38 -21 6 6 -18 35 -29 35 -5 0 -9 -6 -9 -14z"/>
<path d="M640 3030 c0 -5 4 -10 9 -10 6 0 13 5 16 10 3 6 -1 10 -9 10 -9 0
-16 -4 -16 -10z"/>
<path d="M500 2972 c0 -15 4 -20 16 -15 9 3 12 9 7 12 -4 3 -11 10 -15 15 -5
5 -8 0 -8 -12z"/>
<path d="M570 2980 c0 -5 11 -10 25 -10 31 0 33 -18 3 -29 -21 -8 -22 -10 -5
-16 15 -6 16 -10 5 -17 -8 -5 2 -6 27 -2 47 8 58 14 25 14 -18 0 -20 3 -11 14
9 11 6 18 -15 35 -28 22 -54 28 -54 11z"/>
<path d="M696 2944 c-8 -20 0 -32 14 -18 5 5 5 15 1 22 -6 11 -10 10 -15 -4z"/>
<path d="M500 2854 c0 -12 4 -14 13 -7 6 6 19 13 27 16 9 3 3 6 -12 6 -20 1
-28 -4 -28 -15z"/>
<path d="M650 2862 c0 -12 19 -26 26 -19 2 2 -2 10 -11 17 -9 8 -15 8 -15 2z"/>
<path d="M703 2838 c1 -15 8 -24 19 -24 16 0 16 1 0 21 -9 11 -18 21 -18 23
-1 2 -1 -7 -1 -20z"/>
<path d="M623 2823 c-13 -2 -23 -9 -23 -14 0 -13 13 -11 36 6 10 8 17 14 14
13 -3 0 -15 -3 -27 -5z"/>
<path d="M0 2695 c0 -79 2 -93 15 -89 15 6 29 48 41 123 7 45 -2 61 -38 61
-16 0 -18 -11 -18 -95z"/>
<path d="M484 2779 c-5 -8 -3 -9 6 -4 7 4 16 2 22 -6 8 -12 9 -12 6 0 -6 20
-24 25 -34 10z"/>
<path d="M667 2749 c7 -7 15 -10 18 -7 3 3 -2 9 -12 12 -14 6 -15 5 -6 -5z"/>
<path d="M725 2750 c3 -5 10 -10 16 -10 5 0 9 5 9 10 0 6 -7 10 -16 10 -8 0
-12 -4 -9 -10z"/>
<path d="M2858 2713 c6 -2 18 -2 25 0 6 3 1 5 -13 5 -14 0 -19 -2 -12 -5z"/>
<path d="M707 2699 c7 -7 15 -10 18 -7 3 3 -2 9 -12 12 -14 6 -15 5 -6 -5z"/>
<path d="M470 2685 c0 -8 2 -15 4 -15 2 0 6 7 10 15 3 8 1 15 -4 15 -6 0 -10
-7 -10 -15z"/>
<path d="M2815 2690 c-4 -6 6 -10 22 -10 22 0 25 2 13 10 -19 12 -27 12 -35 0z"/>
<path d="M480 2650 c0 -5 6 -10 14 -10 8 0 18 5 21 10 3 6 -3 10 -14 10 -12 0
-21 -4 -21 -10z"/>
<path d="M528 2623 c7 -3 16 -2 19 1 4 3 -2 6 -13 5 -11 0 -14 -3 -6 -6z"/>
<path d="M870 2610 c0 -5 5 -10 11 -10 5 0 7 5 4 10 -3 6 -8 10 -11 10 -2 0
-4 -4 -4 -10z"/>
<path d="M970 2589 c0 -5 5 -7 10 -4 6 3 10 8 10 11 0 2 -4 4 -10 4 -5 0 -10
-5 -10 -11z"/>
<path d="M2 2453 c0 -155 12 -139 24 35 6 90 5 102 -9 102 -14 0 -16 -17 -15
-137z"/>
<path d="M806 2555 c-3 -9 0 -15 9 -15 9 0 12 6 9 15 -4 8 -7 15 -9 15 -2 0
-5 -7 -9 -15z"/>
<path d="M1075 2540 c3 -5 10 -10 16 -10 5 0 9 5 9 10 0 6 -7 10 -16 10 -8 0
-12 -4 -9 -10z"/>
<path d="M1160 2540 c0 -5 7 -10 16 -10 8 0 12 5 9 10 -3 6 -10 10 -16 10 -5
0 -9 -4 -9 -10z"/>
<path d="M606 2531 c-4 -5 3 -7 14 -4 23 6 26 13 6 13 -8 0 -17 -4 -20 -9z"/>
<path d="M680 2530 c0 -5 7 -10 15 -10 8 0 15 5 15 10 0 6 -7 10 -15 10 -8 0
-15 -4 -15 -10z"/>
<path d="M845 2517 c17 -9 95 -5 95 5 0 3 -25 6 -55 5 -33 -1 -49 -5 -40 -10z"/>
<path d="M485 2510 c-3 -5 -2 -10 4 -10 5 0 13 5 16 10 3 6 2 10 -4 10 -5 0
-13 -4 -16 -10z"/>
<path d="M440 2500 c0 -5 5 -10 11 -10 5 0 7 5 4 10 -3 6 -8 10 -11 10 -2 0
-4 -4 -4 -10z"/>
<path d="M1811 2501 c-7 -5 -9 -11 -4 -14 4 -3 17 1 28 9 21 16 0 20 -24 5z"/>
<path d="M1135 2483 c11 -3 26 -12 32 -21 15 -19 26 -12 17 12 -4 10 -17 16
-38 15 -20 -1 -24 -3 -11 -6z"/>
<path d="M510 2446 c0 -14 21 -26 46 -26 9 0 12 5 9 10 -4 6 -14 9 -23 8 -9
-2 -16 3 -14 10 1 6 -2 12 -8 12 -5 0 -10 -6 -10 -14z"/>
<path d="M440 2440 c0 -5 5 -10 11 -10 5 0 7 5 4 10 -3 6 -8 10 -11 10 -2 0
-4 -4 -4 -10z"/>
<path d="M1080 2440 c0 -5 5 -10 10 -10 6 0 10 5 10 10 0 6 -4 10 -10 10 -5 0
-10 -4 -10 -10z"/>
<path d="M1028 2423 c7 -3 16 -2 19 1 4 3 -2 6 -13 5 -11 0 -14 -3 -6 -6z"/>
<path d="M1160 2420 c0 -5 5 -10 11 -10 5 0 7 5 4 10 -3 6 -8 10 -11 10 -2 0
-4 -4 -4 -10z"/>
<path d="M655 2410 c-3 -5 -1 -10 4 -10 6 0 11 5 11 10 0 6 -2 10 -4 10 -3 0
-8 -4 -11 -10z"/>
<path d="M460 2385 c7 -8 16 -12 21 -9 13 8 1 24 -18 24 -13 0 -13 -3 -3 -15z"/>
<path d="M1655 2390 c-3 -5 -1 -10 4 -10 6 0 11 5 11 10 0 6 -2 10 -4 10 -3 0
-8 -4 -11 -10z"/>
<path d="M1015 2380 c3 -5 10 -10 16 -10 5 0 9 5 9 10 0 6 -7 10 -16 10 -8 0
-12 -4 -9 -10z"/>
<path d="M505 2370 c3 -5 14 -10 23 -10 15 0 15 2 2 10 -20 13 -33 13 -25 0z"/>
<path d="M1260 2373 c0 -4 5 -15 10 -23 8 -13 10 -13 10 2 0 9 -4 20 -10 23
-5 3 -10 3 -10 -2z"/>
<path d="M575 2353 c3 -8 5 -17 5 -19 0 -2 4 -4 8 -4 4 0 8 8 8 18 0 10 -6 19
-14 19 -7 0 -10 -7 -7 -14z"/>
<path d="M660 2366 c0 -2 7 -6 15 -10 8 -3 15 -1 15 4 0 6 -7 10 -15 10 -8 0
-15 -2 -15 -4z"/>
<path d="M1840 2320 c-13 -16 -29 -30 -36 -30 -8 0 -14 -4 -14 -8 0 -4 -15
-13 -33 -20 -41 -15 -50 -15 -42 -2 4 6 -5 10 -20 10 -15 0 -24 -4 -20 -10 3
-6 -2 -13 -12 -17 -10 -3 -35 -24 -55 -46 -29 -30 -41 -37 -58 -32 -19 6 -21
4 -15 -14 7 -23 -4 -28 -23 -9 -9 9 -12 9 -12 -2 0 -11 -3 -11 -12 -2 -14 14
-88 16 -88 2 0 -5 -6 -10 -14 -10 -7 0 -20 21 -29 48 l-17 47 6 -90 c6 -108
17 -182 37 -252 8 -29 13 -63 10 -75 -3 -13 -2 -20 2 -16 10 10 32 -33 46 -89
6 -24 14 -43 18 -43 4 0 19 -24 34 -52 15 -29 35 -63 43 -75 15 -22 15 -23 -7
-31 -21 -8 -19 -9 17 -16 34 -5 48 -17 108 -92 111 -136 206 -262 206 -272 0
-6 5 -12 12 -14 6 -2 12 -13 13 -24 0 -10 14 -38 29 -62 15 -24 29 -49 32 -56
3 -7 16 -19 29 -26 19 -10 22 -17 14 -26 -13 -16 26 -59 43 -48 7 4 8 3 4 -4
-4 -7 -1 -12 8 -12 8 0 17 4 20 9 8 13 56 1 56 -15 0 -7 6 -11 14 -8 11 4 19
-9 30 -47 9 -29 16 -58 16 -65 0 -24 117 -379 140 -424 12 -25 44 -81 70 -125
27 -44 59 -101 71 -127 l23 -48 312 0 311 0 7 40 c3 22 26 77 50 122 151 288
179 346 205 416 16 42 43 110 61 151 17 40 29 75 27 78 -3 2 -19 -21 -36 -51
-18 -30 -48 -71 -67 -90 -39 -39 -68 -39 -58 0 5 18 2 24 -10 24 -9 0 -16 7
-16 15 0 8 6 15 13 15 8 0 12 14 12 38 0 33 -2 38 -20 35 -38 -7 -46 8 -30 59
13 43 12 48 -6 64 -29 26 -23 39 7 15 15 -11 31 -18 36 -15 5 4 -4 14 -20 24
-40 25 -49 41 -29 55 14 10 13 12 -5 24 -11 7 -17 8 -13 2 3 -6 3 -20 0 -31
-5 -16 -9 -18 -19 -7 -22 22 -27 52 -11 73 10 14 14 15 15 5 0 -12 3 -12 12
-3 7 7 22 12 35 12 13 0 23 5 23 10 0 14 -33 13 -48 -2 -23 -23 -25 3 -2 27
13 14 19 25 13 25 -6 0 -24 -18 -41 -40 -16 -22 -32 -37 -35 -33 -4 3 -4 -11
-2 -31 3 -20 1 -36 -5 -36 -5 0 -7 -6 -4 -14 3 -7 -2 -16 -10 -19 -9 -4 -16
-13 -16 -22 0 -8 -5 -15 -11 -15 -5 0 -7 -4 -4 -10 6 -10 -6 -14 -37 -11 -19
2 -25 -24 -8 -34 6 -3 10 -1 10 4 0 6 8 11 18 11 14 -1 13 -4 -8 -22 -14 -11
-24 -26 -22 -32 1 -6 -3 -4 -10 4 -25 30 -40 23 -35 -16 l5 -36 -29 28 c-16
16 -27 34 -24 42 2 7 0 10 -5 7 -17 -10 -11 10 8 31 10 11 17 25 14 32 -2 6 1
12 6 12 13 0 9 -38 -6 -67 -7 -13 -8 -24 -3 -28 13 -7 64 41 57 53 -3 6 0 24
7 41 10 24 16 28 25 19 9 -9 12 -5 12 18 0 35 16 55 39 47 13 -4 13 -3 2 5 -7
5 -10 15 -6 21 4 7 2 18 -4 25 -8 10 -7 17 6 27 14 12 16 12 9 0 -6 -9 -5 -12
5 -9 16 5 65 86 66 108 0 8 4 24 8 35 4 11 3 15 -2 9 -11 -14 -43 -25 -43 -15
0 5 7 15 16 22 15 12 14 14 -7 20 -17 4 -31 -1 -48 -18 -28 -27 -52 -31 -27
-4 16 17 16 19 -6 25 -33 8 -34 8 -46 -18 -7 -16 -7 -27 0 -34 6 -6 6 -12 0
-16 -15 -9 -40 3 -45 22 -3 12 -5 10 -6 -5 0 -13 -6 -23 -13 -23 -6 0 -9 -3
-5 -6 6 -7 -16 -34 -28 -34 -4 0 -4 13 0 28 5 23 0 32 -26 51 -18 13 -29 19
-25 12 11 -17 -5 -13 -27 7 -19 17 -19 16 -3 -22 20 -49 20 -53 -2 -33 -16 15
-18 15 -20 -6 -1 -12 -2 -35 -2 -52 l-1 -30 -12 25 c-9 17 -11 35 -5 55 12 46
10 78 -5 72 -10 -4 -13 2 -9 19 3 19 1 23 -12 18 -9 -3 -16 -10 -16 -15 0 -18
-15 -9 -35 20 -11 17 -21 28 -24 26 -2 -3 -10 0 -17 6 -10 8 -11 5 -7 -12 5
-17 3 -20 -8 -14 -11 6 -12 5 -1 -6 17 -18 15 -30 -5 -22 -12 5 -14 3 -8 -8 7
-11 6 -12 -6 -2 -8 6 -28 13 -44 15 -28 3 -30 1 -28 -27 1 -16 0 -24 -3 -17
-8 17 -21 15 -45 -9 -15 -15 -24 -18 -32 -10 -7 7 -14 5 -23 -7 -13 -16 -13
-16 -14 1 0 18 -20 24 -20 6 0 -8 -5 -7 -15 1 -9 7 -14 19 -11 26 3 7 -3 18
-12 26 -11 9 -14 10 -8 1 4 -7 3 -13 -2 -13 -11 0 -27 18 -35 42 -8 21 20 51
40 44 8 -3 24 0 36 6 12 7 25 11 29 10 4 -1 12 7 18 18 9 16 8 20 -5 20 -8 0
-15 5 -15 11 0 5 -4 7 -10 4 -5 -3 -10 -1 -10 5 0 7 6 10 13 7 7 -3 26 1 42 8
29 11 29 12 7 19 -12 4 -20 12 -17 17 4 5 2 9 -3 9 -6 0 -13 7 -16 16 -5 12
-1 14 15 9 15 -5 20 -3 17 6 -2 7 -11 13 -19 15 -7 1 -22 5 -31 9 -11 4 -18 3
-18 -4 0 -15 -37 -14 -44 2 -3 9 -9 7 -19 -6 -14 -17 -16 -17 -30 3 -10 14
-20 18 -33 13 -17 -6 -17 -5 -6 10 8 9 22 19 33 22 11 4 17 11 14 16 -4 5 0 9
7 9 20 1 72 47 60 54 -6 3 -17 -1 -25 -9 -20 -19 -27 -19 -27 0 0 8 6 15 13
15 8 0 8 3 -2 9 -11 7 -18 4 -25 -11 -15 -30 -29 -32 -59 -8 -33 26 -35 41 -4
37 13 -1 21 3 19 11 -1 7 9 12 27 12 37 0 63 9 56 20 -3 5 3 11 12 14 53 16
124 28 167 27 29 0 64 8 87 19 38 20 68 18 71 -4 0 -6 2 -17 2 -25 1 -19 26
-27 26 -8 0 20 47 28 54 10 3 -8 10 -12 15 -9 5 3 11 -1 14 -8 3 -8 15 -20 26
-26 18 -9 20 -8 14 7 -3 10 -10 23 -15 30 -5 7 -5 14 2 18 6 3 9 9 6 13 -6 12
31 44 39 33 3 -6 11 -11 17 -11 6 0 7 5 2 13 -5 6 -9 23 -9 37 0 15 -8 29 -20
36 -11 5 -19 17 -17 26 1 8 -5 21 -13 28 -8 7 -15 17 -15 23 0 6 11 0 25 -13
14 -13 25 -30 25 -37 0 -8 7 -16 16 -20 8 -3 13 -12 10 -19 -3 -7 -1 -16 5
-19 5 -4 7 -11 4 -16 -4 -5 1 -9 9 -9 8 0 18 5 21 10 3 6 1 10 -4 10 -6 0 -11
7 -11 16 0 8 5 12 11 8 8 -4 9 4 4 27 -4 25 -3 30 4 19 10 -13 11 -13 12 0 1
8 1 20 0 27 -3 20 31 52 47 45 10 -3 13 -1 8 6 -4 7 -16 12 -27 12 -15 0 -18
5 -15 24 5 26 -15 51 -29 38 -5 -4 -5 -1 0 7 5 9 0 20 -16 33 -15 11 -18 16
-6 12 9 -3 17 -1 17 5 0 6 -5 11 -12 11 -23 0 -98 42 -92 52 4 6 9 6 13 2 8
-12 42 -14 35 -3 -3 5 -12 9 -20 9 -8 0 -14 4 -14 10 0 5 -11 12 -25 16 -14 3
-25 13 -25 21 0 11 -6 14 -22 9 -13 -3 -27 -6 -33 -6 -5 0 -3 -5 5 -10 13 -9
13 -10 0 -10 -8 0 -22 5 -30 10 -13 8 -13 11 -1 19 10 6 1 11 -30 16 -24 4
-56 13 -70 21 -15 7 -28 11 -31 9 -2 -2 -19 0 -39 4 -19 4 -54 5 -77 2 l-42
-6 39 -42 c21 -24 41 -56 44 -72 6 -28 3 -31 -46 -54 -65 -30 -200 -61 -235
-54 -32 6 -82 -26 -82 -52 0 -10 -7 -24 -15 -31 -8 -7 -15 -21 -15 -31 0 -11
-5 -19 -11 -19 -6 0 -8 7 -5 17 4 9 2 19 -4 23 -7 4 -6 16 5 36 8 16 15 32 15
36 0 7 -44 24 -46 17 -1 -2 -10 3 -20 12 -11 9 -32 20 -49 23 -16 4 -33 13
-37 19 -6 9 -8 9 -8 0 0 -15 -27 -7 -52 15 -14 12 -18 12 -18 2 0 -22 -11 -4
-16 26 -3 16 -9 43 -15 61 -6 18 -9 47 -7 65 4 44 -21 48 -52 8z m51 -128 c2
-53 -1 -66 -19 -83 -12 -11 -22 -15 -22 -8 0 6 -7 9 -15 5 -26 -10 -18 44 16
102 17 30 32 52 34 50 2 -2 5 -32 6 -66z m-221 28 c-19 -12 -30 -12 -30 -1 0
10 31 20 40 14 2 -2 -2 -8 -10 -13z m1185 0 c-3 -5 -10 -10 -16 -10 -5 0 -9 5
-9 10 0 6 7 10 16 10 8 0 12 -4 9 -10z m70 -80 c3 -5 1 -10 -4 -10 -6 0 -11 5
-11 10 0 6 2 10 4 10 3 0 8 -4 11 -10z m-405 -76 c0 -22 17 -16 23 7 4 14 12
20 27 17 11 -2 20 -7 20 -12 -1 -5 4 -13 12 -18 10 -8 9 -9 -4 -5 -23 8 -28
-1 -17 -31 8 -22 8 -23 -6 -12 -12 10 -15 10 -15 -4 0 -9 6 -19 14 -22 8 -3
12 -12 9 -20 -4 -10 -9 -11 -18 -4 -6 5 -15 7 -18 3 -4 -3 -7 1 -7 10 0 19
-29 36 -49 29 -10 -3 -10 -6 -1 -12 8 -5 7 -9 -4 -13 -9 -4 -15 -3 -15 1 1 4
1 17 0 30 -1 18 -6 22 -26 18 -14 -3 -25 -1 -25 4 0 5 -7 7 -15 4 -8 -4 -15
-1 -15 5 0 13 41 31 53 24 4 -2 10 2 12 10 7 18 65 10 65 -9z m226 -58 c21
-16 16 -30 -9 -20 -16 6 -32 34 -19 34 5 0 17 -6 28 -14z m185 -23 c21 -23 22
-25 4 -19 -17 6 -17 4 4 -18 14 -14 22 -29 18 -32 -8 -8 -28 6 -22 16 3 4 -1
10 -9 13 -7 3 -23 19 -35 36 -21 29 -21 31 -3 31 10 0 29 -12 43 -27z m-305
-70 c16 -16 34 -29 39 -30 15 -3 18 -33 3 -34 -7 0 -35 -2 -63 -4 -27 -2 -88
-11 -135 -20 -115 -24 -180 -30 -180 -16 0 12 40 36 40 24 0 -4 5 -1 10 7 5 8
20 16 32 16 62 4 86 9 85 19 -1 5 7 9 18 8 23 -2 39 18 22 29 -6 4 -8 10 -4
15 9 9 28 -17 21 -29 -3 -4 2 -8 11 -8 9 0 14 4 11 9 -4 5 3 7 14 4 11 -3 17
-10 14 -15 -3 -5 3 -4 14 3 16 10 18 17 11 31 -14 26 2 22 37 -9z m274 -28 c7
-9 8 -15 2 -15 -5 0 -12 7 -16 15 -3 8 -4 15 -2 15 2 0 9 -7 16 -15z m-1017
-85 c-8 -30 -21 -34 -15 -5 2 14 8 25 12 25 5 0 6 -9 3 -20z m377 -128 c0 -5
-7 -9 -15 -9 -8 0 -12 4 -9 9 3 4 9 8 15 8 5 0 9 -4 9 -8z m-76 -42 c-5 -5
-22 -6 -39 -2 -20 6 -25 11 -17 16 7 4 19 5 27 2 8 -3 15 0 15 6 0 9 3 9 12 0
8 -8 9 -15 2 -22z m-299 -28 c-6 -7 -35 12 -35 23 0 23 25 23 31 1 3 -12 5
-22 4 -24z m212 42 c-3 -3 -12 -4 -19 -1 -8 3 -5 6 6 6 11 1 17 -2 13 -5z
m-183 -65 c-2 -4 -13 -5 -24 -2 -19 5 -19 6 -3 18 13 10 20 10 25 2 4 -6 5
-14 2 -18z m814 -294 c-3 -3 -9 2 -12 12 -6 14 -5 15 5 6 7 -7 10 -15 7 -18z
m-405 -9 c7 4 4 -1 -5 -11 -20 -22 -34 -14 -23 12 5 12 9 14 12 5 3 -6 10 -9
16 -6z m-246 -18 c-3 -8 -6 -5 -6 6 -1 11 2 17 5 13 3 -3 4 -12 1 -19z m313
-12 c0 -3 -13 -4 -30 -3 -34 2 -38 11 -13 25 15 9 43 -5 43 -22z m230 24 c0
-5 -2 -10 -4 -10 -3 0 -8 5 -11 10 -3 6 -1 10 4 10 6 0 11 -4 11 -10z m66 -38
c-3 -2 -16 -2 -30 2 -17 4 -23 11 -20 21 5 12 9 12 30 -2 14 -9 22 -18 20 -21z
m49 27 c10 -14 1 -21 -19 -13 -9 3 -13 10 -10 15 7 12 21 11 29 -2z m335 -24
c-7 -8 -17 -15 -23 -15 -5 0 -2 9 8 20 21 23 35 19 15 -5z m-154 -65 c2 -55
-11 -78 -18 -30 -3 17 0 30 5 30 5 0 4 7 -3 15 -7 8 -9 22 -6 31 10 27 19 8
22 -46z m210 35 c-22 -17 -46 -20 -46 -6 0 10 22 18 50 20 11 0 10 -4 -4 -14z
m-478 -20 c-3 -3 -9 2 -12 12 -6 14 -5 15 5 6 7 -7 10 -15 7 -18z m516 9 c13
-5 13 -8 1 -20 -19 -20 -30 -17 -14 3 11 13 8 13 -13 -2 -15 -11 -28 -24 -28
-29 0 -5 7 -3 15 4 11 10 15 10 15 0 0 -6 -18 -19 -40 -27 -22 -9 -40 -22 -40
-29 0 -7 -5 -16 -12 -20 -8 -5 -9 -2 -5 9 3 10 3 17 -1 17 -4 0 -8 8 -9 18 -1
12 17 28 55 49 31 17 58 31 59 32 1 0 8 -2 17 -5z m-736 -29 c-3 -3 -9 2 -12
12 -6 14 -5 15 5 6 7 -7 10 -15 7 -18z m62 15 c0 -5 -2 -10 -4 -10 -3 0 -8 5
-11 10 -3 6 -1 10 4 10 6 0 11 -4 11 -10z m520 -35 c-7 -8 -17 -15 -22 -15 -6
0 -5 7 2 15 7 8 17 15 22 15 6 0 5 -7 -2 -15z m80 -110 c0 -14 -4 -25 -9 -25
-5 0 -8 11 -8 25 0 14 3 25 8 25 5 0 9 -11 9 -25z m-57 -12 c-3 -25 -8 -53
-12 -75 -1 -8 -41 -11 -41 -4 0 17 14 35 24 29 6 -3 8 -3 4 2 -4 4 -3 14 4 22
10 12 7 13 -18 7 -16 -4 -36 -13 -45 -20 -8 -8 -19 -14 -23 -14 -9 0 44 50 55
51 5 1 13 2 19 3 5 0 15 7 22 14 16 16 16 16 11 -15z m-83 -97 c0 -2 -8 -10
-17 -17 -16 -13 -17 -12 -4 4 13 16 21 21 21 13z m240 -56 c0 -5 -5 -10 -11
-10 -5 0 -7 5 -4 10 3 6 8 10 11 10 2 0 4 -4 4 -10z m-244 -47 c-4 -9 -2 -20
5 -23 6 -5 3 -9 -9 -12 -14 -4 -19 -2 -16 8 2 8 6 21 9 29 2 8 7 15 11 15 3 0
3 -8 0 -17z m40 -39 c-3 -8 -2 -13 3 -10 5 3 12 -1 15 -10 4 -11 1 -14 -12
-12 -19 4 -30 48 -12 48 7 0 9 -7 6 -16z m272 -128 c-7 -8 -15 -12 -17 -11 -5
6 10 25 20 25 5 0 4 -6 -3 -14z m37 -37 c12 -19 -5 -23 -22 -6 -16 16 -16 17
-1 17 9 0 20 -5 23 -11z"/>
<path d="M2490 2030 c-9 -6 -10 -10 -3 -10 6 0 15 5 18 10 8 12 4 12 -15 0z"/>
<path d="M2520 2020 c0 -5 5 -10 10 -10 6 0 10 5 10 10 0 6 -4 10 -10 10 -5 0
-10 -4 -10 -10z"/>
<path d="M760 2318 c0 -11 7 -18 18 -18 9 0 28 -3 42 -7 25 -6 25 -6 6 15 -15
18 -22 19 -33 10 -11 -9 -17 -9 -24 3 -7 11 -9 11 -9 -3z"/>
<path d="M1225 2310 c3 -5 8 -10 11 -10 2 0 4 5 4 10 0 6 -5 10 -11 10 -5 0
-7 -4 -4 -10z"/>
<path d="M3490 2310 c0 -5 5 -10 10 -10 6 0 10 5 10 10 0 6 -4 10 -10 10 -5 0
-10 -4 -10 -10z"/>
<path d="M680 2290 c0 -5 5 -10 10 -10 6 0 10 5 10 10 0 6 -4 10 -10 10 -5 0
-10 -4 -10 -10z"/>
<path d="M1190 2290 c-13 -8 -12 -10 3 -10 9 0 17 5 17 10 0 12 -1 12 -20 0z"/>
<path d="M1100 2263 c-46 -8 -49 -26 -4 -20 30 3 46 0 58 -11 8 -9 19 -13 22
-9 6 6 -35 47 -46 45 -3 0 -16 -3 -30 -5z"/>
<path d="M745 2250 c-3 -6 1 -7 9 -4 18 7 21 14 7 14 -6 0 -13 -4 -16 -10z"/>
<path d="M828 2243 c7 -3 16 -2 19 1 4 3 -2 6 -13 5 -11 0 -14 -3 -6 -6z"/>
<path d="M930 2238 c0 -4 11 -8 25 -8 14 0 25 4 25 10 0 5 -11 9 -25 8 -14 -1
-25 -6 -25 -10z"/>
<path d="M1000 2242 c0 -4 9 -8 20 -8 11 0 20 4 20 8 0 4 -9 8 -20 8 -11 0
-20 -4 -20 -8z"/>
<path d="M3020 2230 c20 -13 33 -13 25 0 -3 6 -14 10 -23 10 -15 0 -15 -2 -2
-10z"/>
<path d="M878 2213 c7 -3 16 -2 19 1 4 3 -2 6 -13 5 -11 0 -14 -3 -6 -6z"/>
<path d="M3072 2210 c10 -6 22 -19 27 -28 8 -15 5 -18 -14 -17 -13 0 -27 3
-31 8 -14 14 -26 7 -14 -8 7 -8 9 -15 4 -15 -4 0 11 -18 34 -39 23 -22 37 -41
31 -43 -16 -5 -24 -85 -9 -102 6 -9 14 -46 16 -83 3 -47 1 -63 -6 -53 -5 8
-10 26 -10 40 0 17 -3 21 -11 13 -8 -8 -8 -21 2 -50 7 -21 13 -61 13 -90 1
-42 -1 -49 -13 -40 -11 10 -12 4 -6 -33 4 -25 11 -46 16 -48 5 -2 9 -10 9 -18
0 -9 -4 -13 -8 -10 -4 2 -13 -4 -20 -15 -16 -25 2 -25 28 -1 26 24 31 68 8 64
-13 -2 -18 4 -18 18 0 12 5 18 10 15 6 -4 10 10 10 36 0 34 2 39 14 30 14 -12
29 -64 15 -56 -4 3 -7 -21 -6 -52 0 -51 2 -55 11 -30 5 15 14 27 19 27 5 0 4
7 -3 15 -13 16 -4 39 12 29 6 -4 8 -3 5 3 -3 5 -3 39 2 74 7 57 8 61 16 34 4
-16 13 -33 19 -37 7 -5 6 -8 -3 -8 -11 0 -9 -4 5 -14 17 -13 20 -12 26 7 3 12
6 31 7 42 0 18 0 19 -10 3 -21 -37 -27 -16 -7 25 11 23 24 49 28 57 9 19 0
129 -11 136 -5 3 -9 17 -9 32 0 22 -2 24 -11 12 -8 -12 -9 -7 -6 18 2 17 0 32
-5 32 -4 0 -8 10 -8 23 0 12 -4 28 -9 35 -14 22 -81 57 -129 68 -22 4 -24 3
-10 -6z m23 -60 c3 -5 1 -10 -4 -10 -6 0 -11 5 -11 10 0 6 2 10 4 10 3 0 8 -4
11 -10z m160 -190 c3 -5 1 -10 -4 -10 -6 0 -11 5 -11 10 0 6 2 10 4 10 3 0 8
-4 11 -10z m2 -82 c-3 -8 -6 -5 -6 6 -1 11 2 17 5 13 3 -3 4 -12 1 -19z m-52
-48 c3 -5 1 -10 -4 -10 -6 0 -11 5 -11 10 0 6 2 10 4 10 3 0 8 -4 11 -10z"/>
<path d="M981 2200 c-9 -5 -4 -7 13 -7 29 0 32 2 13 10 -8 3 -20 2 -26 -3z"/>
<path d="M1036 2202 c-2 -4 7 -12 20 -19 26 -12 32 -5 12 15 -14 14 -25 15
-32 4z"/>
<path d="M1180 2196 c0 -2 7 -6 15 -10 8 -3 15 -1 15 4 0 6 -7 10 -15 10 -8 0
-15 -2 -15 -4z"/>
<path d="M1506 2173 c-6 -14 -5 -15 5 -6 7 7 10 15 7 18 -3 3 -9 -2 -12 -12z"/>
<path d="M1130 2171 c0 -5 9 -11 19 -14 14 -3 18 -1 14 9 -6 15 -33 19 -33 5z"/>
<path d="M3456 2137 c3 -10 9 -15 12 -12 3 3 0 11 -7 18 -10 9 -11 8 -5 -6z"/>
<path d="M441 2124 c0 -11 3 -14 6 -6 3 7 2 16 -1 19 -3 4 -6 -2 -5 -13z"/>
<path d="M3000 2116 c0 -2 9 -6 20 -9 11 -3 20 -1 20 4 0 5 -9 9 -20 9 -11 0
-20 -2 -20 -4z"/>
<path d="M1145 2100 c3 -5 8 -10 11 -10 2 0 4 5 4 10 0 6 -5 10 -11 10 -5 0
-7 -4 -4 -10z"/>
<path d="M3420 2090 c0 -5 5 -10 11 -10 5 0 7 5 4 10 -3 6 -8 10 -11 10 -2 0
-4 -4 -4 -10z"/>
<path d="M3056 2075 c7 -17 20 -20 28 -6 3 5 -1 12 -10 15 -22 9 -24 8 -18 -9z"/>
<path d="M1118 2053 c7 -3 16 -2 19 1 4 3 -2 6 -13 5 -11 0 -14 -3 -6 -6z"/>
<path d="M1258 2043 c6 -2 18 -2 25 0 6 3 1 5 -13 5 -14 0 -19 -2 -12 -5z"/>
<path d="M695 1979 c-11 -4 -15 -8 -10 -8 6 -1 3 -6 -5 -11 -11 -7 -12 -10 -2
-10 14 0 47 28 41 34 -2 2 -13 0 -24 -5z"/>
<path d="M730 1945 c9 -10 9 -15 1 -15 -22 0 -11 -18 14 -22 25 -5 36 14 15
27 -6 4 -8 11 -5 16 4 5 -4 9 -16 9 -18 0 -19 -2 -9 -15z"/>
<path d="M670 1916 c0 -8 -8 -17 -17 -19 -11 -3 -6 -5 11 -6 20 -1 27 -5 23
-15 -4 -9 -1 -13 6 -10 20 7 15 58 -5 62 -11 2 -18 -3 -18 -12z"/>
<path d="M3452 1910 c0 -14 2 -19 5 -12 2 6 2 18 0 25 -3 6 -5 1 -5 -13z"/>
<path d="M3470 1898 c0 -6 -8 -20 -17 -31 -14 -15 -15 -21 -5 -24 10 -4 9 -9
-4 -24 -9 -10 -14 -27 -11 -39 3 -11 1 -20 -4 -20 -5 0 -9 10 -10 23 0 21 -1
21 -11 -3 -12 -27 -14 -36 -16 -64 -2 -14 -5 -16 -15 -7 -14 11 -27 5 -27 -13
0 -6 5 -4 10 4 13 20 12 10 -1 -29 -8 -21 -14 -29 -19 -21 -5 8 -10 9 -14 2
-3 -6 3 -14 15 -17 12 -4 17 -10 11 -14 -7 -4 -6 -14 3 -31 l14 -25 1 34 c0
33 1 34 15 15 14 -19 14 -18 9 2 -3 12 4 42 15 67 12 25 21 49 21 52 0 4 7 13
15 21 8 9 16 27 16 42 3 59 7 76 18 80 14 5 15 32 1 32 -5 0 -10 -5 -10 -12z"/>
<path d="M3400 1886 c0 -8 4 -17 9 -20 5 -4 7 3 4 14 -6 23 -13 26 -13 6z"/>
<path d="M415 1870 c-3 -5 -1 -10 4 -10 6 0 11 5 11 10 0 6 -2 10 -4 10 -3 0
-8 -4 -11 -10z"/>
<path d="M917 1839 c8 -8 16 -8 30 0 16 9 14 10 -11 11 -22 0 -27 -3 -19 -11z"/>
<path d="M470 1836 c0 -2 7 -6 15 -10 8 -3 15 -1 15 4 0 6 -7 10 -15 10 -8 0
-15 -2 -15 -4z"/>
<path d="M588 1833 c7 -3 16 -2 19 1 4 3 -2 6 -13 5 -11 0 -14 -3 -6 -6z"/>
<path d="M836 1831 c-3 -5 3 -11 14 -14 11 -3 19 -11 18 -17 -2 -7 3 -15 10
-17 18 -7 15 11 -7 35 -20 24 -27 27 -35 13z"/>
<path d="M412 1793 c-8 -3 -5 -13 13 -31 13 -15 30 -35 37 -44 9 -13 17 -15
28 -8 13 8 11 11 -7 16 -13 4 -23 13 -23 20 0 8 -4 14 -10 14 -5 0 -10 9 -10
20 0 20 -5 23 -28 13z"/>
<path d="M910 1792 c0 -12 19 -26 26 -19 2 2 -2 10 -11 17 -9 8 -15 8 -15 2z"/>
<path d="M3075 1778 c-14 -41 -14 -59 0 -48 14 12 26 70 14 70 -3 0 -10 -10
-14 -22z"/>
<path d="M680 1786 c0 -2 7 -6 15 -10 8 -3 15 -1 15 4 0 6 -7 10 -15 10 -8 0
-15 -2 -15 -4z"/>
<path d="M775 1780 c3 -5 11 -10 16 -10 6 0 7 5 4 10 -3 6 -11 10 -16 10 -6 0
-7 -4 -4 -10z"/>
<path d="M1128 1771 c-31 -18 -39 -38 -9 -22 10 6 21 8 24 4 4 -3 9 2 13 11 9
24 3 25 -28 7z"/>
<path d="M1355 1760 c4 -6 11 -8 16 -5 14 9 11 15 -7 15 -8 0 -12 -5 -9 -10z"/>
<path d="M3290 1763 c0 -5 5 -15 10 -23 8 -12 10 -11 10 8 0 12 -4 22 -10 22
-5 0 -10 -3 -10 -7z"/>
<path d="M383 1734 c-3 -8 -2 -19 3 -24 5 -5 10 1 10 16 2 27 -4 31 -13 8z"/>
<path d="M710 1743 c-14 -3 -30 -9 -37 -14 -6 -6 -23 -7 -37 -3 -16 4 -26 2
-26 -5 0 -6 -8 -8 -17 -5 -15 5 -15 4 -3 -4 8 -5 32 -13 54 -16 32 -6 38 -5
33 7 -6 16 19 27 61 27 12 0 22 5 22 10 0 10 -7 11 -50 3z"/>
<path d="M1256 1741 c-4 -7 -5 -15 -2 -18 9 -9 19 4 14 18 -4 11 -6 11 -12 0z"/>
<path d="M1296 1743 c-3 -3 -3 -10 0 -14 7 -12 34 -11 34 0 0 11 -26 22 -34
14z"/>
<path d="M1395 1730 c-3 -5 -1 -10 5 -10 7 0 9 -7 6 -16 -3 -8 -2 -12 4 -9 13
8 13 45 1 45 -6 0 -13 -4 -16 -10z"/>
<path d="M2435 1730 c-16 -7 -17 -9 -3 -9 9 -1 20 4 23 9 7 11 7 11 -20 0z"/>
<path d="M790 1711 c0 -14 31 -35 57 -39 38 -5 23 19 -20 34 -20 7 -37 9 -37
5z"/>
<path d="M3210 1709 c0 -5 5 -7 10 -4 6 3 10 8 10 11 0 2 -4 4 -10 4 -5 0 -10
-5 -10 -11z"/>
<path d="M3022 1682 c-11 -32 -1 -52 38 -71 l25 -12 -24 19 c-19 15 -23 26
-19 51 6 41 -7 49 -20 13z"/>
<path d="M545 1690 c-7 -12 21 -27 69 -35 28 -6 37 -5 32 4 -4 6 -15 11 -24
11 -9 0 -29 7 -44 14 -15 8 -30 11 -33 6z"/>
<path d="M3271 1684 c0 -11 3 -14 6 -6 3 7 2 16 -1 19 -3 4 -6 -2 -5 -13z"/>
<path d="M386 1672 c-2 -4 11 -6 30 -4 19 2 34 6 34 8 0 8 -59 4 -64 -4z"/>
<path d="M741 1651 c-10 -7 -7 -9 12 -8 14 1 23 5 20 10 -6 9 -15 9 -32 -2z"/>
<path d="M660 1640 c0 -5 5 -10 10 -10 6 0 10 5 10 10 0 6 -4 10 -10 10 -5 0
-10 -4 -10 -10z"/>
<path d="M3246 1641 c-4 -7 -5 -15 -2 -18 9 -9 19 4 14 18 -4 11 -6 11 -12 0z"/>
<path d="M3295 1628 c-4 -10 -8 -30 -8 -45 -1 -16 -5 -31 -10 -34 -4 -3 -3
-16 2 -30 l10 -24 0 23 c1 14 10 26 23 31 l23 8 -23 7 c-18 6 -20 11 -11 27 5
11 8 28 6 37 -4 16 -4 16 -12 0z"/>
<path d="M698 1603 c6 -2 18 -2 25 0 6 3 1 5 -13 5 -14 0 -19 -2 -12 -5z"/>
<path d="M755 1600 c3 -5 8 -10 11 -10 2 0 4 5 4 10 0 6 -5 10 -11 10 -5 0 -7
-4 -4 -10z"/>
<path d="M3240 1593 c0 -12 -5 -25 -10 -28 -6 -4 -8 -28 -5 -58 3 -29 1 -47
-3 -42 -4 6 -15 11 -26 13 -14 3 -17 -1 -12 -13 3 -9 6 -25 6 -36 0 -24 32
-25 51 -2 13 15 12 15 -8 5 -17 -9 -22 -9 -27 4 -3 8 -1 14 7 13 32 -4 36 1
31 45 -3 25 -1 53 6 65 7 15 8 27 1 39 -9 15 -10 15 -11 -5z"/>
<path d="M407 1580 c3 -11 7 -20 9 -20 2 0 4 9 4 20 0 11 -4 20 -9 20 -5 0 -7
-9 -4 -20z"/>
<path d="M555 1580 c3 -5 8 -10 11 -10 2 0 4 5 4 10 0 6 -5 10 -11 10 -5 0 -7
-4 -4 -10z"/>
<path d="M810 1555 c0 -8 4 -15 10 -15 5 0 7 7 4 15 -4 8 -8 15 -10 15 -2 0
-4 -7 -4 -15z"/>
<path d="M505 1540 c-8 -13 15 -13 35 0 12 8 11 10 -7 10 -12 0 -25 -4 -28
-10z"/>
<path d="M3047 1537 c-3 -8 -3 -25 0 -36 3 -12 1 -21 -6 -21 -6 0 -11 5 -11
11 0 5 -4 8 -10 4 -5 -3 -7 -12 -3 -20 3 -9 -1 -15 -10 -15 -13 0 -14 -5 -6
-29 6 -17 18 -36 26 -43 14 -11 16 -10 10 12 -7 29 1 72 13 65 11 -7 21 55 11
72 -7 14 -9 14 -14 0z"/>
<path d="M1495 1509 c-10 -30 -2 -32 12 -3 6 13 7 24 3 24 -5 0 -12 -9 -15
-21z"/>
<path d="M850 1516 c0 -2 7 -6 15 -10 8 -3 15 -1 15 4 0 6 -7 10 -15 10 -8 0
-15 -2 -15 -4z"/>
<path d="M410 1490 c0 -11 -4 -20 -10 -20 -5 0 -10 7 -10 15 0 21 -16 19 -16
-2 -1 -10 -5 -27 -9 -38 -8 -19 -8 -19 8 -3 19 19 47 14 47 -8 0 -19 16 -18
24 1 3 9 12 12 22 8 12 -4 15 -1 12 13 -2 13 -12 19 -31 19 -21 -1 -26 3 -21
17 3 10 1 18 -5 18 -6 0 -11 -9 -11 -20z"/>
<path d="M661 1483 c9 -15 20 -21 31 -17 9 2 20 -1 25 -9 4 -8 19 -17 33 -20
24 -6 24 -6 -4 18 -16 14 -39 25 -51 25 -11 0 -27 6 -34 13 -11 9 -11 7 0 -10z"/>
<path d="M977 1476 c-19 -13 -43 -26 -54 -29 -13 -3 -11 -5 8 -6 14 0 36 8 49
19 28 25 46 25 59 3 9 -15 10 -15 11 -2 0 15 -18 39 -31 39 -3 0 -22 -11 -42
-24z"/>
<path d="M1353 1438 c-20 -26 -26 -41 -15 -34 12 7 36 46 29 46 -3 0 -9 -6
-14 -12z"/>
<path d="M2835 1410 c-11 -5 -17 -9 -13 -9 3 -1 14 -4 24 -8 12 -4 15 -3 10 5
-4 7 -3 12 3 12 5 0 12 -4 15 -9 3 -5 15 -7 26 -4 11 3 20 0 20 -6 0 -6 5 -11
12 -11 8 0 8 4 -2 14 -19 18 -70 26 -95 16z"/>
<path d="M347 1397 c-3 -7 3 -13 14 -13 13 0 15 3 7 13 -6 7 -12 13 -13 13 -2
0 -5 -6 -8 -13z"/>
<path d="M2550 1399 c0 -6 7 -9 15 -5 9 3 19 -3 25 -14 11 -21 30 -27 30 -11
0 16 -31 41 -51 41 -10 0 -19 -5 -19 -11z"/>
<path d="M450 1396 c0 -2 7 -6 15 -10 8 -3 15 -1 15 4 0 6 -7 10 -15 10 -8 0
-15 -2 -15 -4z"/>
<path d="M665 1390 c-16 -7 -17 -9 -3 -9 9 -1 20 4 23 9 7 11 7 11 -20 0z"/>
<path d="M726 1374 c-3 -9 -6 -17 -6 -18 0 -5 111 3 120 9 6 3 10 10 10 14 0
10 -51 2 -66 -10 -7 -6 -16 -3 -24 6 -16 19 -26 19 -34 -1z"/>
<path d="M3167 1376 c-5 -12 1 -15 23 -13 26 2 45 17 21 17 -5 0 -16 3 -24 6
-8 3 -17 -2 -20 -10z"/>
<path d="M400 1370 c8 -5 22 -10 30 -10 13 0 13 1 0 10 -8 5 -22 10 -30 10
-13 0 -13 -1 0 -10z"/>
<path d="M2745 1370 c3 -5 11 -10 16 -10 6 0 7 5 4 10 -3 6 -11 10 -16 10 -6
0 -7 -4 -4 -10z"/>
<path d="M2566 1355 c4 -8 8 -15 10 -15 2 0 4 7 4 15 0 8 -4 15 -10 15 -5 0
-7 -7 -4 -15z"/>
<path d="M840 1350 c0 -5 9 -10 21 -10 11 0 17 5 14 10 -3 6 -13 10 -21 10 -8
0 -14 -4 -14 -10z"/>
<path d="M3227 1339 c-3 -12 -10 -18 -16 -15 -5 4 -12 2 -16 -4 -3 -5 -1 -10
6 -10 10 0 10 -3 1 -12 -7 -7 -12 -16 -12 -21 0 -4 11 4 25 19 14 15 25 35 25
45 0 25 -6 24 -13 -2z"/>
<path d="M2770 1338 c0 -9 5 -20 10 -23 13 -8 13 5 0 25 -8 13 -10 13 -10 -2z"/>
<path d="M455 1330 c-3 -5 -2 -10 4 -10 5 0 18 -3 28 -7 16 -6 16 -5 4 10 -15
19 -27 22 -36 7z"/>
<path d="M2855 1330 c3 -5 8 -10 11 -10 2 0 4 5 4 10 0 6 -5 10 -11 10 -5 0
-7 -4 -4 -10z"/>
<path d="M320 1314 c0 -8 5 -12 10 -9 6 4 8 11 5 16 -9 14 -15 11 -15 -7z"/>
<path d="M877 1300 c6 -22 23 -38 23 -21 0 6 7 11 16 11 10 0 14 -6 11 -14 -7
-18 58 -35 93 -25 l25 7 -22 7 c-13 4 -23 10 -23 14 0 6 -30 16 -112 37 -12 4
-15 0 -11 -16z"/>
<path d="M803 1289 c-1 -15 3 -18 22 -13 16 4 26 0 33 -13 6 -10 13 -15 16
-12 9 9 -24 50 -35 43 -5 -3 -15 -1 -22 5 -10 7 -13 5 -14 -10z"/>
<path d="M3100 1301 c0 -6 5 -13 10 -16 6 -3 10 1 10 9 0 9 -4 16 -10 16 -5 0
-10 -4 -10 -9z"/>
<path d="M692 1287 c16 -6 30 -19 34 -29 3 -10 10 -18 15 -18 6 0 8 -4 4 -9
-7 -12 1 -16 40 -24 17 -4 25 -4 19 -1 -7 3 -10 14 -7 24 4 17 0 20 -24 20
-22 0 -33 7 -41 25 -9 18 -19 25 -39 24 l-28 -1 27 -11z"/>
<path d="M1330 1270 c-13 -11 -35 -23 -49 -27 -14 -3 -35 -12 -45 -19 -18 -12
-18 -13 5 -10 30 4 99 37 99 48 0 4 7 8 15 8 8 0 15 5 15 10 0 16 -15 12 -40
-10z"/>
<path d="M470 1271 c0 -9 30 -24 36 -18 2 1 -6 8 -16 15 -11 7 -20 8 -20 3z"/>
<path d="M527 1243 c3 -7 14 -13 24 -13 10 0 19 -5 19 -11 0 -7 -10 -9 -25 -7
-14 3 -25 1 -25 -3 0 -5 18 -8 39 -7 39 1 39 1 23 24 -19 25 -64 40 -55 17z"/>
<path d="M630 1245 c0 -9 -4 -13 -10 -10 -5 3 -10 -1 -10 -11 0 -12 3 -14 13
-6 7 6 23 9 35 5 13 -3 22 -1 22 6 0 5 -7 8 -15 4 -10 -3 -15 -1 -13 7 2 7 -3
15 -9 17 -7 3 -13 -3 -13 -12z"/>
<path d="M1205 1251 c-16 -14 -63 -22 -70 -11 -8 12 -35 13 -35 1 0 -17 34
-22 87 -11 29 6 51 16 48 21 -8 11 -18 12 -30 0z"/>
<path d="M3000 1250 c0 -5 5 -10 11 -10 5 0 7 5 4 10 -3 6 -8 10 -11 10 -2 0
-4 -4 -4 -10z"/>
<path d="M3304 1228 l-19 -23 23 19 c12 11 22 21 22 23 0 8 -8 2 -26 -19z"/>
<path d="M460 1231 c0 -5 7 -15 17 -22 15 -13 15 -12 4 9 -12 23 -21 28 -21
13z"/>
<path d="M1010 1218 c0 -14 52 -21 60 -8 5 7 13 9 21 5 8 -5 10 -4 6 0 -10 11
-87 14 -87 3z"/>
<path d="M982 1209 c2 -7 10 -15 17 -17 8 -3 12 1 9 9 -2 7 -10 15 -17 17 -8
3 -12 -1 -9 -9z"/>
<path d="M1320 1210 c0 -5 5 -10 10 -10 6 0 10 5 10 10 0 6 -4 10 -10 10 -5 0
-10 -4 -10 -10z"/>
<path d="M3240 1210 c0 -5 1 -12 3 -14 1 -3 -14 -21 -32 -40 -19 -20 -30 -36
-25 -36 14 0 55 44 58 61 1 8 5 20 9 27 5 7 4 12 -2 12 -6 0 -11 -4 -11 -10z"/>
<path d="M827 1199 c7 -7 15 -10 18 -7 3 3 -2 9 -12 12 -14 6 -15 5 -6 -5z"/>
<path d="M935 1182 c33 -31 38 -33 29 -8 -3 9 -12 16 -20 16 -8 0 -14 5 -14
10 0 6 -6 10 -12 10 -7 0 1 -13 17 -28z"/>
<path d="M341 1184 c0 -11 3 -14 6 -6 3 7 2 16 -1 19 -3 4 -6 -2 -5 -13z"/>
<path d="M363 1193 c9 -9 58 -13 53 -5 -3 5 -17 10 -31 10 -14 0 -24 -2 -22
-5z"/>
<path d="M1265 1190 c3 -5 13 -10 21 -10 8 0 12 5 9 10 -3 6 -13 10 -21 10 -8
0 -12 -4 -9 -10z"/>
<path d="M600 1180 c0 -5 7 -10 16 -10 8 0 12 5 9 10 -3 6 -10 10 -16 10 -5 0
-9 -4 -9 -10z"/>
<path d="M1025 1180 c-3 -5 3 -10 14 -10 12 0 21 5 21 10 0 6 -6 10 -14 10 -8
0 -18 -4 -21 -10z"/>
<path d="M1187 1179 c7 -7 15 -10 18 -7 3 3 -2 9 -12 12 -14 6 -15 5 -6 -5z"/>
<path d="M544 1168 c-4 -7 -3 -8 4 -4 7 4 12 2 12 -3 0 -6 4 -11 10 -11 5 0 7
7 4 15 -7 18 -20 19 -30 3z"/>
<path d="M985 1170 c-3 -6 1 -7 9 -4 18 7 21 14 7 14 -6 0 -13 -4 -16 -10z"/>
<path d="M770 1160 c0 -4 16 -12 36 -18 29 -9 33 -8 24 3 -12 14 -60 27 -60
15z"/>
<path d="M377 1153 c20 -3 48 -18 69 -39 35 -32 63 -42 77 -27 11 10 -125 73
-153 71 -19 -1 -17 -2 7 -5z"/>
<path d="M844 1153 c10 -11 36 -12 36 -2 0 5 -10 9 -22 9 -12 0 -18 -3 -14 -7z"/>
<path d="M1090 1150 c0 -5 3 -10 8 -11 4 0 20 -2 36 -4 35 -5 22 10 -16 19
-17 4 -28 2 -28 -4z"/>
<path d="M615 1140 c-3 -5 -20 -7 -38 -4 l-32 6 25 -15 c20 -11 28 -11 40 -1
8 6 24 14 35 17 19 4 18 5 -2 6 -12 0 -25 -3 -28 -9z"/>
<path d="M1015 1140 c3 -5 8 -10 11 -10 2 0 4 5 4 10 0 6 -5 10 -11 10 -5 0
-7 -4 -4 -10z"/>
<path d="M930 1125 c7 -9 15 -13 17 -11 7 7 -7 26 -19 26 -6 0 -6 -6 2 -15z"/>
<path d="M348 1122 c-9 -2 -19 -11 -23 -20 -5 -13 -3 -14 6 -5 9 9 15 8 27 -4
10 -10 17 -12 20 -5 6 18 -12 38 -30 34z"/>
<path d="M3571 1114 c0 -11 3 -14 6 -6 3 7 2 16 -1 19 -3 4 -6 -2 -5 -13z"/>
<path d="M617 1093 c-9 -2 -15 -8 -13 -12 7 -10 66 -1 66 10 0 9 -22 10 -53 2z"/>
<path d="M800 1070 c20 -13 33 -13 25 0 -3 6 -14 10 -23 10 -15 0 -15 -2 -2
-10z"/>
<path d="M398 1063 c-22 -5 -23 -19 -3 -27 8 -3 14 0 12 6 -1 6 9 15 23 19 19
5 20 7 5 7 -11 0 -28 -2 -37 -5z"/>
<path d="M620 1055 c0 -19 31 -35 69 -35 16 0 31 -5 33 -12 2 -6 12 -9 21 -5
28 10 19 24 -15 24 -20 0 -37 7 -49 21 -20 25 -59 30 -59 7z"/>
<path d="M580 1049 c0 -5 5 -7 10 -4 6 3 10 8 10 11 0 2 -4 4 -10 4 -5 0 -10
-5 -10 -11z"/>
<path d="M765 1050 c3 -5 8 -10 11 -10 2 0 4 5 4 10 0 6 -5 10 -11 10 -5 0 -7
-4 -4 -10z"/>
<path d="M880 1050 c0 -5 10 -10 23 -10 18 0 19 2 7 10 -19 13 -30 13 -30 0z"/>
<path d="M453 1019 c-9 -23 -9 -29 3 -29 8 0 11 -6 7 -16 -4 -12 0 -14 23 -8
38 9 41 12 18 20 -34 13 -45 25 -34 39 6 7 7 16 2 18 -4 3 -13 -7 -19 -24z"/>
<path d="M3261 1034 c0 -11 3 -14 6 -6 3 7 2 16 -1 19 -3 4 -6 -2 -5 -13z"/>
<path d="M328 1033 c-19 -5 -25 -33 -8 -33 6 0 10 5 10 10 0 17 29 11 47 -10
10 -11 24 -20 32 -20 9 0 1 12 -19 30 -19 16 -37 29 -40 28 -3 0 -13 -2 -22
-5z"/>
<path d="M850 1020 c0 -5 5 -10 11 -10 5 0 7 5 4 10 -3 6 -8 10 -11 10 -2 0
-4 -4 -4 -10z"/>
<path d="M650 1002 c0 -15 28 -34 44 -30 9 2 12 8 8 14 -9 15 -52 28 -52 16z"/>
<path d="M526 986 c3 -8 12 -12 20 -9 21 8 17 23 -6 23 -13 0 -18 -5 -14 -14z"/>
<path d="M720 976 c0 -2 7 -6 15 -10 8 -3 15 -1 15 4 0 6 -7 10 -15 10 -8 0
-15 -2 -15 -4z"/>
<path d="M3110 969 c0 -5 5 -7 10 -4 6 3 10 8 10 11 0 2 -4 4 -10 4 -5 0 -10
-5 -10 -11z"/>
<path d="M470 945 c-9 -11 -8 -14 9 -12 22 1 28 12 12 21 -5 3 -14 -1 -21 -9z"/>
<path d="M510 954 c0 -13 57 -37 72 -31 8 3 6 6 -5 6 -10 1 -29 8 -42 17 -14
9 -25 12 -25 8z"/>
<path d="M832 944 c9 -9 21 -15 27 -13 6 2 -2 10 -17 17 -25 11 -25 11 -10 -4z"/>
<path d="M304 915 c0 -19 4 -35 8 -35 4 0 8 7 8 17 0 14 2 14 20 -2 23 -20 25
-20 35 14 6 21 5 23 -23 16 -22 -4 -33 -2 -39 10 -7 11 -9 6 -9 -20z"/>
<path d="M696 918 c2 -3 0 -9 -6 -13 -5 -3 -10 -1 -10 4 0 6 -5 11 -12 11 -8
0 -8 -5 3 -15 11 -11 27 -13 67 -8 29 3 49 9 45 13 -10 10 -93 18 -87 8z"/>
<path d="M490 910 c0 -5 12 -10 26 -10 14 0 23 4 19 10 -3 6 -15 10 -26 10
-10 0 -19 -4 -19 -10z"/>
<path d="M850 909 c0 -5 5 -7 10 -4 6 3 10 8 10 11 0 2 -4 4 -10 4 -5 0 -10
-5 -10 -11z"/>
<path d="M380 900 c0 -5 5 -10 11 -10 5 0 7 5 4 10 -3 6 -8 10 -11 10 -2 0 -4
-4 -4 -10z"/>
<path d="M550 881 c0 -4 11 -11 25 -17 18 -9 25 -9 28 0 3 6 8 3 12 -8 5 -11
3 -21 -6 -27 -8 -5 -9 -9 -3 -9 5 0 15 5 22 12 8 8 15 8 28 -3 18 -15 66 -20
57 -6 -3 4 -11 6 -19 3 -8 -3 -25 9 -40 30 -23 30 -32 34 -65 32 -22 -1 -39
-4 -39 -7z"/>
<path d="M480 871 c0 -6 9 -22 20 -33 19 -20 19 -23 4 -31 -12 -7 -21 -5 -29
7 -16 22 -35 20 -35 -3 0 -11 -6 -22 -12 -24 -8 -3 -6 -6 5 -6 9 -1 17 -5 17
-11 0 -5 15 -11 33 -11 l32 -1 -30 -8 -30 -7 27 -7 c15 -5 39 -9 53 -10 14 0
27 -7 30 -13 2 -7 12 -13 22 -13 13 0 10 6 -14 28 -17 15 -35 45 -42 71 -12
42 -51 98 -51 72z m11 -89 c-16 -5 -41 5 -41 17 0 7 10 6 26 -1 15 -7 21 -14
15 -16z"/>
<path d="M365 860 c3 -5 8 -10 11 -10 2 0 4 5 4 10 0 6 -5 10 -11 10 -5 0 -7
-4 -4 -10z"/>
<path d="M390 854 c0 -8 8 -14 18 -14 19 0 52 19 37 21 -44 6 -55 5 -55 -7z"/>
<path d="M3296 857 c3 -10 9 -15 12 -12 3 3 0 11 -7 18 -10 9 -11 8 -5 -6z"/>
<path d="M3260 850 c0 -5 5 -10 11 -10 5 0 7 5 4 10 -3 6 -8 10 -11 10 -2 0
-4 -4 -4 -10z"/>
<path d="M3466 845 c-9 -26 -7 -32 5 -12 6 10 9 21 6 23 -2 3 -7 -2 -11 -11z"/>
<path d="M721 846 c2 -2 18 -6 34 -10 22 -5 26 -4 15 4 -14 9 -59 15 -49 6z"/>
<path d="M310 828 c-5 -42 -4 -58 5 -57 6 0 9 6 7 14 -1 7 5 16 15 18 16 4 16
5 1 6 -9 0 -19 9 -21 19 -4 16 -5 16 -7 0z"/>
<path d="M350 835 c0 -3 11 -12 24 -21 18 -11 30 -13 43 -6 16 9 14 11 -12 17
-17 4 -36 8 -42 11 -7 2 -13 1 -13 -1z"/>
<path d="M571 835 c-1 -16 32 -51 58 -65 19 -10 22 -9 19 2 -3 7 -15 18 -27
24 -12 6 -28 20 -36 30 -8 11 -14 15 -14 9z"/>
<path d="M3255 821 c-3 -5 -1 -12 5 -16 5 -3 10 1 10 9 0 18 -6 21 -15 7z"/>
<path d="M790 809 c0 -5 5 -7 10 -4 6 3 10 8 10 11 0 2 -4 4 -10 4 -5 0 -10
-5 -10 -11z"/>
<path d="M550 790 c0 -5 5 -10 10 -10 6 0 10 5 10 10 0 6 -4 10 -10 10 -5 0
-10 -4 -10 -10z"/>
<path d="M2005 791 c-3 -5 -1 -12 5 -16 5 -3 10 1 10 9 0 18 -6 21 -15 7z"/>
<path d="M385 760 c3 -5 18 -10 33 -9 24 0 25 1 7 9 -28 12 -47 12 -40 0z"/>
<path d="M585 740 c3 -5 13 -10 21 -10 8 0 12 5 9 10 -3 6 -13 10 -21 10 -8 0
-12 -4 -9 -10z"/>
<path d="M330 730 c-20 -5 -21 -7 -9 -12 9 -4 22 -1 28 5 9 9 14 9 19 0 4 -7
22 -10 42 -8 19 3 28 2 20 -2 -8 -3 -20 -12 -27 -19 -10 -10 -9 -13 3 -18 8
-3 12 -2 9 4 -4 6 6 7 25 4 19 -4 30 -2 30 5 0 6 -6 11 -12 11 -10 0 -10 2 0
9 30 18 -70 35 -128 21z"/>
<path d="M630 701 c0 -19 29 -33 47 -22 20 11 21 9 -32 26 -8 2 -15 1 -15 -4z"/>
<path d="M527 683 c-4 -3 5 -12 20 -20 32 -16 44 -8 17 12 -22 16 -28 18 -37
8z"/>
<path d="M435 660 c-9 -15 13 -39 34 -37 12 1 17 7 13 19 -2 11 -7 16 -10 13
-3 -2 -11 0 -18 6 -8 7 -14 7 -19 -1z"/>
<path d="M385 650 c-3 -5 4 -14 15 -20 16 -8 20 -8 20 4 0 16 -27 29 -35 16z"/>
<path d="M299 613 c0 -21 -3 -69 -5 -107 -4 -65 7 -103 26 -91 4 3 10 -5 14
-18 3 -12 1 -24 -4 -25 -6 -2 -8 -8 -5 -13 4 -5 12 -3 19 3 11 11 10 21 -3 58
-9 25 -19 47 -23 48 -5 2 -8 24 -8 48 0 43 1 44 33 45 l32 1 -32 9 c-22 7 -31
14 -27 24 4 8 14 15 23 15 13 0 14 2 1 9 -8 6 -18 7 -24 4 -5 -3 -6 -1 -2 5 3
6 2 13 -4 17 -6 4 -10 -9 -11 -32z m18 -185 c-3 -7 -5 -2 -5 12 0 14 2 19 5
13 2 -7 2 -19 0 -25z"/>
<path d="M587 639 c-9 -6 -22 -7 -29 -3 -7 4 -8 3 -4 -4 9 -14 5 -15 -28 -2
-20 7 -24 6 -19 -5 3 -8 12 -15 20 -15 8 0 35 -12 59 -26 25 -15 48 -23 52
-19 4 4 1 10 -5 12 -7 3 -13 9 -13 14 0 6 6 7 13 3 9 -6 9 -5 0 8 -7 8 -11 17
-8 20 12 12 -21 26 -38 17z"/>
<path d="M357 629 c7 -7 15 -10 18 -7 3 3 -2 9 -12 12 -14 6 -15 5 -6 -5z"/>
<path d="M1975 620 c3 -5 3 -10 -2 -10 -4 0 -8 -51 -9 -113 0 -87 1 -100 7
-57 13 105 17 190 7 190 -5 0 -6 -4 -3 -10z"/>
<path d="M435 600 c-3 -5 1 -10 10 -10 9 0 13 5 10 10 -3 6 -8 10 -10 10 -2 0
-7 -4 -10 -10z"/>
<path d="M510 590 c0 -5 4 -10 8 -10 4 0 8 -10 9 -21 2 -24 10 -35 19 -26 4 4
1 13 -6 22 -10 12 -10 15 0 15 10 0 10 3 0 15 -14 17 -30 20 -30 5z"/>
<path d="M456 571 c-3 -5 3 -11 14 -14 21 -5 32 1 24 14 -7 12 -31 11 -38 0z"/>
<path d="M420 560 c0 -5 5 -10 11 -10 5 0 7 5 4 10 -3 6 -8 10 -11 10 -2 0 -4
-4 -4 -10z"/>
<path d="M606 535 c-3 -9 0 -15 9 -15 8 0 15 7 15 15 0 8 -4 15 -9 15 -5 0
-11 -7 -15 -15z"/>
<path d="M485 490 c-3 -5 1 -10 9 -10 9 0 16 5 16 10 0 6 -4 10 -9 10 -6 0
-13 -4 -16 -10z"/>
<path d="M375 470 c3 -5 11 -10 16 -10 6 0 7 5 4 10 -3 6 -11 10 -16 10 -6 0
-7 -4 -4 -10z"/>
<path d="M515 440 c3 -5 8 -10 11 -10 2 0 4 5 4 10 0 6 -5 10 -11 10 -5 0 -7
-4 -4 -10z"/>
<path d="M410 410 c0 -5 5 -10 11 -10 5 0 7 5 4 10 -3 6 -8 10 -11 10 -2 0 -4
-4 -4 -10z"/>
<path d="M470 414 c0 -3 5 -14 10 -25 16 -28 30 -23 17 6 -11 22 -27 34 -27
19z"/>
<path d="M550 410 c0 -15 21 -23 32 -12 6 6 2 11 -11 15 -12 3 -21 1 -21 -3z"/>
<path d="M292 373 c-1 -15 -7 -32 -12 -37 -24 -24 -8 -26 82 -10 24 4 53 6 66
5 12 -1 22 3 22 9 0 9 -19 11 -65 8 -36 -2 -66 0 -66 4 -1 4 -3 13 -4 18 -1 6
-3 15 -4 20 -2 21 -17 9 -19 -17z"/>
<path d="M453 323 c-14 -5 -18 -53 -5 -53 5 0 14 -11 20 -25 12 -27 42 -34 42
-10 0 7 -8 19 -17 25 -17 11 -17 11 -1 6 10 -3 20 -1 23 4 4 6 1 10 -5 10 -6
0 -8 5 -5 11 4 6 13 8 21 5 8 -3 14 -1 14 4 0 5 -12 12 -27 16 -16 3 -32 7
-38 8 -5 2 -16 1 -22 -1z"/>
<path d="M374 297 c3 -10 6 -24 6 -32 0 -11 39 -29 48 -21 1 2 -11 19 -29 37
-19 20 -29 27 -25 16z"/>
<path d="M342 276 c1 -10 8 -17 13 -17 15 1 12 24 -3 29 -9 3 -13 -2 -10 -12z"/>
<path d="M376 226 c4 -11 0 -13 -17 -9 -27 7 -19 -11 13 -28 15 -8 19 -8 14 0
-4 6 0 11 8 11 22 0 20 17 -4 30 -16 8 -18 8 -14 -4z"/>
<path d="M270 190 c-10 -23 -10 -34 -1 -43 8 -8 11 -6 11 9 0 11 4 24 10 30 5
5 6 15 1 22 -6 10 -12 4 -21 -18z"/>
<path d="M437 199 c9 -9 8 -17 -3 -34 -13 -20 -13 -23 2 -29 13 -5 14 -9 4
-21 -10 -12 -9 -15 4 -15 9 0 16 8 16 19 0 11 5 21 11 23 15 5 -16 68 -33 68
-9 0 -9 -3 -1 -11z"/>
<path d="M340 184 c1 -5 7 -20 15 -34 13 -24 14 -24 15 -4 0 12 -7 27 -15 34
-8 7 -15 9 -15 4z"/>
<path d="M385 160 c3 -5 11 -10 16 -10 6 0 7 5 4 10 -3 6 -11 10 -16 10 -6 0
-7 -4 -4 -10z"/>
<path d="M395 130 c3 -5 8 -10 11 -10 2 0 4 5 4 10 0 6 -5 10 -11 10 -5 0 -7
-4 -4 -10z"/>
<path d="M325 113 c3 -8 5 -20 5 -26 0 -7 7 -3 16 8 12 17 16 18 24 5 5 -8 12
-11 15 -8 12 12 -4 26 -35 30 -24 4 -30 1 -25 -9z"/>
<path d="M245 100 c-21 -23 -9 -26 18 -6 10 8 14 17 9 20 -5 3 -17 -3 -27 -14z"/>
<path d="M299 44 c-1 -2 -2 -9 -3 -14 0 -6 -8 -15 -16 -20 -11 -7 -4 -10 26
-10 22 0 48 6 59 13 16 13 14 15 -24 24 -22 6 -42 9 -42 7z"/>
<path d="M230 16 c0 -9 5 -16 10 -16 6 0 10 4 10 9 0 6 -4 13 -10 16 -5 3 -10
-1 -10 -9z"/>
<path d="M400 10 c0 -5 5 -10 11 -10 5 0 7 5 4 10 -3 6 -8 10 -11 10 -2 0 -4
-4 -4 -10z"/>
</g>
</svg>
