<?xml version="1.0" standalone="no"?>
<!DOCTYPE svg PUBLIC "-//W3C//DTD SVG 20010904//EN"
 "http://www.w3.org/TR/2001/REC-SVG-20010904/DTD/svg10.dtd">
<svg version="1.0" xmlns="http://www.w3.org/2000/svg"
 width="1000.000000pt" height="1000.000000pt" viewBox="0 0 1000.000000 1000.000000"
 preserveAspectRatio="xMidYMid meet">
<metadata>
Created by potrace 1.11, written by Peter Selinger 2001-2013
</metadata>
<g transform="translate(0.000000,1000.000000) scale(0.100000,-0.100000)"
fill="#000000" stroke="none">
<path d="M4795 8432 c-3 -4 -25 -8 -48 -9 -99 -3 -194 -14 -227 -25 -19 -7
-45 -11 -58 -9 -13 1 -30 -3 -37 -9 -8 -7 -22 -9 -31 -6 -20 7 -151 -33 -217
-68 -26 -14 -64 -39 -83 -55 -19 -17 -41 -31 -49 -31 -8 0 -15 -4 -15 -9 0 -6
-12 -16 -27 -23 -15 -7 -38 -33 -51 -58 -32 -60 -51 -80 -78 -80 -13 0 -25 -8
-29 -19 -3 -10 -18 -29 -33 -43 -15 -14 -42 -42 -61 -62 -19 -21 -45 -44 -58
-53 -26 -17 -30 -41 -8 -49 25 -10 17 -29 -17 -45 -28 -12 -51 -39 -74 -87 -4
-7 -25 -22 -47 -34 -23 -11 -53 -32 -68 -47 -66 -65 -149 -115 -149 -90 0 20
-19 -3 -51 -59 -18 -31 -53 -83 -77 -115 -45 -60 -82 -151 -101 -248 -5 -30
-19 -82 -29 -117 l-20 -63 21 -41 c21 -40 22 -41 3 -52 -10 -6 -28 -22 -40
-35 -12 -13 -57 -50 -101 -82 -125 -91 -131 -96 -132 -119 -1 -11 -13 -34 -27
-51 -14 -17 -26 -37 -26 -44 0 -25 30 -9 61 33 35 48 52 54 43 15 -14 -60 -52
-95 -78 -74 -30 25 -73 -77 -81 -192 -5 -64 -3 -69 21 -92 15 -14 31 -25 37
-25 5 0 6 -13 1 -32 -4 -18 -7 -81 -7 -139 0 -165 37 -250 157 -364 50 -47 67
-71 79 -110 44 -147 111 -241 207 -290 27 -14 50 -30 50 -37 0 -6 10 -20 23
-32 12 -11 40 -48 62 -80 32 -48 50 -64 100 -87 33 -16 68 -29 77 -29 13 0 16
-11 17 -60 0 -33 5 -68 11 -79 5 -11 10 -24 9 -28 -1 -4 -1 -34 0 -66 1 -39 5
-56 12 -51 7 4 9 -1 7 -12 -2 -11 -10 -18 -16 -17 -16 4 -15 -7 5 -83 9 -35
21 -64 26 -64 12 0 57 -48 57 -61 0 -16 -18 -10 -23 9 -3 9 -5 1 -6 -18 0 -19
4 -42 9 -50 8 -11 9 -7 4 14 -5 19 -3 27 4 22 6 -3 14 -21 17 -39 4 -17 16
-40 27 -51 11 -10 17 -24 14 -32 -3 -7 -1 -16 4 -19 15 -9 12 35 -5 91 -8 27
-15 61 -15 75 0 14 -3 29 -7 33 -4 3 -8 14 -9 22 -2 9 -7 37 -13 63 -16 73
-23 189 -26 436 -4 228 -8 300 -25 405 -5 30 -11 73 -14 95 -3 22 -10 68 -15
101 -9 59 -6 206 5 269 3 17 6 37 6 45 0 8 6 21 12 29 9 12 8 13 -6 8 -22 -8
-22 -7 -3 29 10 21 11 30 3 35 -9 6 -9 11 1 22 7 9 8 17 2 19 -5 2 -3 36 5 88
9 47 17 128 19 180 1 52 4 95 5 95 1 0 3 7 6 15 2 8 7 29 12 45 11 44 44 94
65 101 13 4 17 12 14 25 -3 10 -1 19 3 19 5 0 12 10 16 22 8 26 31 51 37 40 2
-4 2 -1 0 6 -4 19 33 69 57 77 15 5 62 65 66 85 3 17 18 40 25 40 6 0 29 18
51 40 23 22 38 40 33 40 -5 0 2 11 15 25 31 33 62 35 34 2 -10 -13 -5 -9 12 8
17 17 35 30 41 28 6 -2 34 22 63 54 30 32 57 57 62 56 4 -2 8 6 8 17 0 11 5
20 10 20 6 0 10 -4 10 -10 0 -5 6 -10 14 -10 8 0 16 -8 19 -17 2 -10 2 3 -1
30 -4 42 -3 47 16 47 11 0 28 7 36 16 9 8 20 12 26 9 5 -3 10 -2 10 4 0 6 6 8
14 5 7 -3 16 2 20 11 3 9 10 14 15 10 5 -3 13 0 16 5 14 22 62 35 155 43 14 1
33 10 42 19 9 9 38 20 65 23 26 4 64 10 83 14 50 9 94 3 81 -12 -9 -11 6 -13
63 -8 5 1 3 8 -4 16 -11 14 -9 14 16 0 16 -8 41 -15 56 -15 15 0 38 -5 52 -11
20 -9 32 -9 58 4 54 25 188 44 188 27 0 -12 39 -19 46 -9 3 5 -4 9 -15 9 -12
0 -21 7 -21 15 0 12 5 13 28 4 15 -6 28 -10 30 -10 16 5 42 -1 37 -8 -3 -5 0
-13 6 -17 6 -4 15 0 20 8 6 10 18 14 34 10 15 -2 38 2 52 9 21 11 27 12 31 1
3 -10 7 -10 18 -1 11 9 18 9 29 -1 8 -7 22 -9 31 -6 9 3 23 -2 32 -12 10 -10
13 -12 8 -5 -14 22 3 28 18 7 8 -10 25 -19 38 -19 16 0 22 -5 20 -16 -2 -12 4
-15 23 -11 14 2 28 8 31 13 11 18 34 9 35 -13 1 -17 2 -19 6 -5 5 18 23 24 23
7 0 -5 8 -10 18 -10 10 0 22 -3 26 -7 3 -4 12 -8 19 -10 52 -11 90 -22 95 -29
4 -4 -2 -4 -13 0 -15 5 -17 4 -9 -4 7 -7 34 -13 60 -15 27 -2 50 -8 52 -14 2
-6 11 -11 20 -11 8 0 12 -3 9 -6 -10 -11 12 -44 30 -44 9 0 13 -3 10 -6 -12
-13 13 -43 42 -49 29 -6 86 -65 86 -88 0 -7 8 -18 18 -25 19 -15 24 -37 5 -26
-7 4 -3 -4 10 -18 12 -13 22 -28 22 -32 0 -4 7 -15 16 -23 8 -9 13 -24 11 -34
-3 -11 -1 -22 4 -25 5 -3 7 -10 4 -15 -4 -5 -1 -9 4 -9 6 0 11 -10 11 -22 1
-21 2 -22 14 -6 12 16 14 15 26 -10 14 -28 19 -45 22 -74 1 -11 10 -16 22 -15
12 1 21 -4 21 -13 1 -26 28 -70 42 -70 8 0 11 -5 7 -11 -3 -6 0 -15 7 -20 12
-7 12 -9 0 -9 -10 0 -10 -5 3 -25 9 -14 12 -25 6 -25 -7 0 -8 -6 0 -19 5 -11
10 -31 10 -46 0 -18 4 -24 13 -19 9 6 9 4 -1 -8 -7 -8 -10 -23 -6 -32 4 -10 1
-16 -7 -16 -9 0 -8 -4 3 -12 21 -17 40 -76 26 -80 -11 -4 -2 -48 10 -47 4 1
14 1 22 0 12 -1 11 -5 -5 -18 -18 -14 -18 -15 -2 -9 13 4 17 2 14 -6 -2 -7 4
-25 14 -39 10 -14 19 -46 20 -72 2 -25 6 -44 11 -41 4 3 8 -4 8 -15 0 -11 5
-23 10 -26 12 -7 13 -72 2 -79 -5 -3 -8 -15 -7 -28 1 -13 -3 -29 -9 -37 -9
-12 -8 -13 4 -7 8 4 6 1 -4 -8 -14 -11 -16 -19 -9 -28 9 -12 10 -37 3 -63 -8
-27 14 -95 31 -100 19 -6 23 -15 20 -46 -1 -9 5 -22 14 -29 12 -10 13 -16 4
-26 -9 -11 -7 -14 13 -14 34 0 41 -10 21 -32 -9 -10 -11 -18 -5 -18 6 0 13 6
15 13 7 17 29 -13 22 -31 -8 -23 6 -64 21 -58 15 6 27 -9 30 -38 1 -12 14 -73
29 -136 39 -167 46 -425 17 -601 -23 -137 -38 -277 -29 -268 6 4 14 37 16 62
1 4 10 3 20 -3 22 -11 37 2 25 23 -6 9 -4 9 7 0 19 -18 24 -16 26 10 1 12 7
58 14 102 6 44 11 116 10 160 -2 65 0 78 10 68 21 -20 25 -15 21 22 -2 19 -8
32 -13 29 -15 -9 -10 13 6 26 12 10 15 10 15 -1 0 -11 2 -11 10 1 14 22 23 5
10 -20 -9 -17 -9 -25 0 -34 8 -8 9 -6 4 8 -5 13 -4 17 4 12 7 -4 12 -26 12
-49 0 -31 -3 -38 -10 -27 -5 8 -10 10 -10 5 0 -6 5 -16 10 -21 19 -19 9 -279
-13 -324 -6 -14 -27 -40 -46 -58 -27 -26 -32 -35 -22 -45 10 -9 15 -8 27 8 8
11 24 30 34 43 11 12 20 29 20 37 0 8 11 38 24 67 13 29 27 64 30 78 9 31 27
70 41 90 6 8 19 41 29 73 18 61 20 69 30 132 8 55 9 274 1 308 -5 17 -3 27 4
27 6 0 13 -10 15 -22 20 -98 29 -127 41 -132 8 -3 17 -1 20 4 15 24 43 197 46
280 0 30 8 89 16 130 16 74 21 103 22 128 1 7 10 20 20 29 11 9 17 21 14 26
-3 4 -6 23 -8 40 -3 44 -25 169 -31 178 -8 14 40 21 69 10 15 -6 27 -8 27 -5
0 3 7 -1 15 -10 8 -8 15 -19 15 -25 0 -6 4 -11 9 -11 5 0 12 -12 15 -26 l7
-26 23 35 c44 64 50 163 15 228 -15 29 -31 117 -34 195 -1 40 -9 84 -19 101
-13 26 -14 37 -4 60 11 29 20 165 12 194 -3 9 -18 22 -34 29 -16 7 -27 16 -24
21 3 5 -2 9 -10 9 -9 0 -16 -4 -16 -9 0 -12 -32 -8 -47 6 -21 19 -15 26 15 19
24 -6 25 -5 7 6 -39 23 -83 79 -94 121 -7 23 -12 45 -11 50 0 4 -11 29 -25 57
-14 27 -25 56 -25 65 0 28 -68 224 -96 275 -15 28 -70 94 -121 146 -52 52
-101 111 -109 131 -26 60 -62 102 -84 96 -14 -4 -20 0 -20 11 0 10 5 14 10 11
14 -9 12 3 -6 34 -16 28 -73 60 -231 131 -58 27 -79 32 -115 27 -58 -8 -79 4
-54 32 23 26 54 27 73 4 7 -10 12 -13 12 -8 -4 20 15 70 30 82 13 9 6 11 -34
7 -27 -3 -56 -7 -64 -10 -7 -2 -20 1 -27 7 -18 15 -40 6 -54 -22 -11 -19 -10
-21 6 -17 11 3 27 9 37 13 12 5 17 3 17 -8 0 -16 -20 -27 -51 -27 -13 0 -21 9
-25 28 -5 23 -16 31 -78 55 -74 27 -150 35 -161 17 -10 -17 -43 -11 -50 9 -4
12 -12 17 -24 14 -10 -2 -33 4 -51 14 -33 18 -34 22 -35 79 -1 36 -8 72 -19
93 -17 32 -17 36 -2 63 23 38 3 36 -33 -4 l-29 -33 -26 24 c-15 14 -34 25 -44
26 -9 1 -36 21 -60 43 -34 33 -50 42 -78 42 -21 0 -33 -4 -29 -10 8 -12 -1
-12 -45 0 -24 6 -63 5 -125 -4 -49 -7 -99 -10 -110 -6 -11 4 -34 5 -50 3 -22
-3 -36 1 -49 16 -11 12 -31 21 -49 21 -36 0 -98 16 -153 40 -29 13 -55 17 -97
13 -42 -4 -64 -1 -81 10 -16 11 -27 12 -34 5 -7 -7 -16 -7 -30 1 -10 6 -23 7
-27 3z m-185 -97 c0 -8 -8 -15 -17 -15 -10 -1 -43 -10 -73 -21 -67 -24 -122
-39 -175 -46 -37 -5 -39 -4 -24 12 14 14 137 61 204 78 45 11 85 7 85 -8z
m-340 -35 c0 -5 -8 -10 -17 -10 -15 0 -16 2 -3 10 19 12 20 12 20 0z m1442
-16 c16 -10 7 -25 -19 -36 -22 -9 -24 -12 -10 -15 20 -5 22 -19 5 -29 -6 -4
-16 0 -23 9 -6 9 -23 19 -38 22 -31 8 -34 21 -10 47 14 15 25 18 53 13 19 -4
38 -9 42 -11z m-1460 -24 c40 0 41 0 23 -20 -10 -11 -22 -20 -28 -20 -5 0 -23
-6 -40 -14 -43 -19 -97 -36 -113 -36 -26 0 -14 20 21 37 19 9 35 20 35 24 0
16 33 40 47 35 8 -3 33 -6 55 -6z m1648 -136 c0 -8 -4 -12 -10 -9 -5 3 -10 10
-10 16 0 5 5 9 10 9 6 0 10 -7 10 -16z m120 -174 c0 -5 -7 -10 -16 -10 -8 0
-12 5 -9 10 3 6 10 10 16 10 5 0 9 -4 9 -10z m-2445 -452 c-8 -27 -58 -72 -63
-58 -5 13 45 80 59 80 6 0 8 -10 4 -22z m1520 -128 c-3 -5 -15 -10 -26 -10
-11 0 -17 5 -14 10 3 6 15 10 26 10 11 0 17 -4 14 -10z m-1659 -21 c7 -13 -19
-43 -34 -38 -12 5 3 49 17 49 5 0 13 -5 17 -11z m-56 -113 c0 -2 -7 -6 -15
-10 -8 -3 -15 -1 -15 4 0 6 7 10 15 10 8 0 15 -2 15 -4z m-196 -45 c3 -5 -2
-18 -12 -30 -12 -15 -21 -18 -32 -11 -12 8 -12 12 5 29 22 22 31 25 39 12z
m116 -21 c0 -19 -5 -30 -14 -30 -20 0 -29 16 -21 40 10 32 35 25 35 -10z m64
12 c2 -4 2 -13 -2 -18 -8 -12 -45 -27 -39 -16 2 4 7 15 10 25 7 18 22 23 31 9z
m736 -122 c0 -5 -5 -10 -11 -10 -5 0 -7 5 -4 10 3 6 8 10 11 10 2 0 4 -4 4
-10z m-165 -130 c-3 -5 -10 -10 -16 -10 -5 0 -9 5 -9 10 0 6 7 10 16 10 8 0
12 -4 9 -10z m-83 -102 c-7 -7 -12 -8 -12 -2 0 14 12 26 19 19 2 -3 -1 -11 -7
-17z m-947 -228 c7 -12 -12 -40 -27 -40 -16 0 -21 32 -7 41 18 12 26 11 34 -1z
m4510 -244 c19 -14 19 -15 -7 -26 -33 -16 -58 -7 -58 20 0 24 36 28 65 6z m20
-135 c14 -6 20 -19 22 -51 2 -27 11 -52 24 -66 20 -21 20 -23 4 -48 -17 -26
-76 -52 -99 -43 -18 7 -31 118 -18 143 5 11 15 31 23 47 13 29 14 29 44 18z
m-713 -443 c-9 -9 -12 -7 -12 12 0 19 3 21 12 12 9 -9 9 -15 0 -24z m468 -533
c0 -2 -10 -10 -22 -16 -21 -11 -22 -11 -9 4 13 16 31 23 31 12z m30 -17 c0
-12 -92 -58 -114 -58 -19 0 86 68 107 70 4 0 7 -6 7 -12z m-3793 -193 c7 -20
-2 -29 -21 -22 -9 4 -13 13 -10 22 8 19 23 19 31 0z m3648 -76 c-3 -50 -11
-58 -30 -33 -16 21 -20 38 -7 30 5 -3 8 5 7 17 -2 22 13 40 26 31 4 -2 6 -22
4 -45z m95 -54 c0 -16 -27 -32 -36 -22 -7 6 17 36 29 37 4 0 7 -7 7 -15z m-42
-118 c-12 -73 -32 -93 -24 -24 4 36 26 100 33 93 1 -1 -3 -32 -9 -69z m-144
-119 c-7 -41 -25 -90 -31 -84 -5 4 26 116 32 116 3 0 2 -15 -1 -32z m-3392
-122 c12 -35 12 -43 2 -39 -7 3 -16 15 -19 26 -4 12 -9 30 -11 40 -11 38 15
14 28 -27z m3365 -11 c0 -8 -4 -12 -9 -9 -4 3 -8 9 -8 15 0 5 4 9 8 9 5 0 9
-7 9 -15z"/>
<path d="M6105 8061 c-1 -25 2 -28 17 -20 15 8 16 14 8 29 -15 28 -25 25 -25
-9z"/>
<path d="M4650 7339 c0 -5 5 -7 10 -4 6 3 10 8 10 11 0 2 -4 4 -10 4 -5 0 -10
-5 -10 -11z"/>
<path d="M5682 7323 c9 -10 18 -27 21 -38 4 -17 5 -18 6 -2 1 24 -17 57 -31
57 -7 0 -5 -7 4 -17z"/>
<path d="M4500 7299 c0 -5 5 -7 10 -4 6 3 10 8 10 11 0 2 -4 4 -10 4 -5 0 -10
-5 -10 -11z"/>
<path d="M5719 5993 c-19 -16 -46 -40 -61 -55 -15 -16 -33 -28 -39 -28 -7 0
-4 7 7 16 18 14 18 15 -4 4 -13 -7 -21 -14 -18 -17 3 -3 -1 -18 -10 -34 -8
-16 -10 -29 -5 -29 5 0 5 -16 -1 -40 -6 -23 -15 -37 -21 -33 -6 3 -7 1 -3 -6
4 -6 3 -18 -4 -26 -6 -7 -13 -26 -16 -41 -5 -28 -5 -28 15 -10 11 10 26 16 33
14 8 -3 2 -13 -16 -29 -58 -49 -86 -79 -86 -92 0 -7 -12 -20 -26 -27 -17 -9
-24 -20 -21 -32 3 -10 1 -16 -3 -13 -5 3 -15 -1 -23 -9 -8 -8 -19 -12 -23 -8
-5 4 -6 3 -3 -1 4 -4 2 -27 -3 -50 -13 -57 -16 -97 -6 -97 4 0 4 -7 1 -17 -4
-10 -2 -14 4 -10 7 5 9 0 6 -13 -3 -11 1 -27 8 -36 11 -14 10 -19 -8 -34 -15
-11 -18 -21 -12 -31 5 -8 9 -9 10 -4 0 6 4 -1 8 -15 4 -14 13 -24 19 -23 13 3
26 -32 17 -46 -3 -5 -1 -12 5 -16 6 -4 7 -11 4 -17 -5 -8 -1 -9 10 -5 14 6 17
3 12 -8 -3 -9 -2 -14 3 -10 5 3 12 -1 14 -7 3 -8 6 -6 6 5 1 9 5 17 9 17 11 0
8 51 -6 84 -22 50 -1 43 38 -14 53 -76 103 -126 139 -138 28 -10 31 -9 31 9 0
16 5 19 23 14 20 -6 21 -5 5 8 -10 8 -18 18 -18 22 0 4 6 3 13 -3 16 -13 60
-9 65 6 2 7 -2 12 -9 12 -7 0 -10 3 -6 6 4 5 38 -8 88 -32 3 -2 6 4 6 12 0 9
-11 20 -24 25 -35 13 -28 22 12 15 29 -6 35 -4 35 11 0 11 -13 24 -30 32 -25
10 -28 16 -19 27 13 16 33 19 24 4 -3 -6 1 -7 9 -4 10 4 16 1 16 -9 0 -20 27
-29 34 -11 3 8 10 14 16 14 6 0 9 -4 6 -9 -4 -5 -2 -20 3 -33 10 -24 15 -12
11 30 -1 18 4 22 25 22 17 0 29 -7 35 -22 l9 -23 0 23 c1 25 4 26 34 10 19
-10 20 -9 9 4 -10 13 -10 17 0 21 7 2 18 -5 25 -17 12 -21 12 -21 14 -1 1 11
1 26 0 33 -3 18 16 15 28 -5 9 -16 10 -16 11 4 0 17 4 21 18 16 15 -6 15 -5 3
10 -17 22 -71 23 -71 2 0 -13 -4 -14 -20 -5 -16 9 -19 8 -13 -6 5 -14 2 -16
-17 -11 -14 4 -28 0 -38 -9 -11 -12 -17 -12 -22 -4 -5 8 -10 9 -14 2 -9 -15
-44 -11 -51 6 -4 11 -8 11 -21 -2 -18 -18 -34 -21 -34 -6 0 6 -9 10 -21 10
-12 0 -17 4 -13 11 4 8 -1 9 -16 4 -19 -6 -22 -4 -17 9 4 10 3 15 -3 11 -6 -3
-10 -1 -10 4 0 6 -7 11 -15 11 -8 0 -15 7 -15 16 0 10 -6 14 -14 11 -8 -3 -16
-2 -18 3 -2 4 -12 10 -23 12 -11 1 -23 7 -27 12 -4 6 -13 4 -22 -3 -14 -12
-16 -11 -16 7 0 11 -7 25 -15 32 -17 14 -20 40 -5 40 6 0 13 -7 17 -16 4 -12
11 -9 32 15 14 17 38 32 53 34 15 1 30 6 34 10 17 17 24 4 23 -42 -2 -59 23
-109 67 -131 18 -9 57 -15 106 -15 85 1 96 8 139 88 19 36 44 46 44 18 0 -6 7
-16 15 -22 13 -8 13 -11 -2 -20 -10 -5 -23 -19 -29 -30 -9 -19 -9 -19 10 -10
15 8 23 7 34 -4 13 -13 16 -13 21 1 8 20 79 10 118 -17 35 -25 50 -24 18 1
-25 20 -25 20 -2 20 12 0 22 -4 22 -8 0 -5 13 -7 30 -4 l30 4 -18 27 c-11 14
-22 33 -27 41 -6 12 -5 13 5 3 17 -16 51 2 44 22 -4 9 -19 29 -35 47 -34 36
-32 44 8 30 28 -9 29 -9 27 21 -1 17 -7 33 -13 35 -19 6 -12 22 9 22 12 0 24
-10 30 -22 5 -13 9 -17 9 -10 1 14 32 16 47 3 15 -13 144 -60 144 -52 0 5 -10
13 -22 19 -13 6 -17 11 -10 11 21 1 53 -19 47 -30 -8 -12 26 -12 45 1 10 7 11
10 3 11 -7 1 -19 2 -25 3 -7 1 -12 9 -10 18 1 10 -6 19 -19 23 -16 5 -18 10
-10 18 9 9 14 8 20 -2 7 -10 13 -11 27 -2 17 9 17 10 2 11 -10 0 -22 9 -28 20
-13 24 -3 26 20 5 15 -14 17 -12 17 15 0 17 -5 27 -11 24 -6 -3 -3 1 7 9 18
15 18 16 -1 26 -11 6 -23 7 -27 3 -4 -4 -5 8 -2 25 6 29 3 35 -22 47 -15 8
-33 22 -40 30 -18 21 -7 21 14 0 9 -9 19 -13 23 -10 7 8 -47 55 -64 56 -6 0
-31 15 -55 34 -23 19 -46 33 -50 30 -4 -2 -9 0 -11 6 -2 6 -32 15 -68 20 -36
6 -72 13 -80 17 -8 3 -26 8 -40 10 -14 1 -47 10 -75 18 -27 8 -81 22 -120 31
-81 19 -296 29 -292 13 1 -6 -15 -16 -35 -23 -40 -15 -42 -1 -2 14 32 13 32
34 -1 26 -33 -8 -32 7 2 39 37 33 24 32 -18 -2z m96 -73 c-3 -5 -11 -10 -16
-10 -6 0 -7 5 -4 10 3 6 11 10 16 10 6 0 7 -4 4 -10z m328 -40 c5 -4 -3 -5
-17 -3 -15 3 -29 10 -32 15 -7 11 36 1 49 -12z m-503 -55 c-7 -8 -17 -15 -23
-15 -5 0 -2 9 8 20 21 23 35 19 15 -5z m710 5 c8 -5 11 -10 5 -10 -5 0 -17 5
-25 10 -8 5 -10 10 -5 10 6 0 17 -5 25 -10z m80 0 c8 -5 11 -10 5 -10 -5 0
-17 5 -25 10 -8 5 -10 10 -5 10 6 0 17 -5 25 -10z m-772 -30 c-7 -10 -14 -17
-17 -15 -4 4 18 35 25 35 2 0 -1 -9 -8 -20z m-43 -20 c-20 -23 -29 -21 -19 4
3 9 13 16 22 16 13 0 12 -3 -3 -20z m900 -9 c45 -22 56 -31 43 -36 -16 -6 -61
18 -96 52 -18 18 -15 17 53 -16z m-50 -31 c3 -5 2 -10 -4 -10 -5 0 -13 5 -16
10 -3 6 -2 10 4 10 5 0 13 -4 16 -10z m-315 -40 c44 -12 44 -25 0 -33 -14 -2
0 -5 30 -6 73 -2 100 -10 93 -27 -3 -8 1 -14 8 -14 7 0 10 -2 8 -4 -3 -3 -30
-1 -62 3 -31 4 -57 4 -57 -1 0 -4 -11 -8 -25 -8 -14 0 -25 4 -25 10 0 5 -10 9
-22 8 -13 0 -50 4 -83 10 -33 6 -96 14 -140 18 -76 6 -114 14 -66 14 14 0 21
5 18 13 -2 6 -13 11 -23 9 -12 -2 -15 0 -7 5 19 13 306 16 353 3z m300 -25 c0
-11 -19 -4 -41 15 l-24 21 33 -16 c17 -8 32 -18 32 -20z m-780 15 c11 -7 11
-10 2 -10 -7 0 -10 -4 -7 -10 3 -5 1 -10 -4 -10 -6 0 -11 6 -12 13 0 10 -2 10
-6 0 -6 -17 -30 -16 -36 1 -4 9 1 17 11 19 28 8 36 7 52 -3z m915 0 c3 -5 2
-10 -4 -10 -5 0 -13 5 -16 10 -3 6 -2 10 4 10 5 0 13 -4 16 -10z m-285 -11 c0
-5 8 -9 18 -8 25 3 72 -12 72 -22 0 -6 -8 -6 -19 0 -10 6 -21 8 -24 5 -7 -8
-75 15 -82 27 -4 5 3 9 14 9 12 0 21 -5 21 -11z m251 -16 c13 -16 12 -17 -3
-4 -10 7 -18 15 -18 17 0 8 8 3 21 -13z m-25 -35 l19 -23 -22 19 c-16 13 -23
15 -23 6 0 -7 -3 -11 -6 -7 -5 5 3 27 10 27 2 0 11 -10 22 -22z m109 12 c3 -5
1 -10 -4 -10 -6 0 -11 5 -11 10 0 6 2 10 4 10 3 0 8 -4 11 -10z m-580 -30 c93
-23 185 -66 185 -86 0 -12 -4 -12 -28 0 -38 20 -134 56 -147 56 -5 -1 13 -13
40 -27 28 -14 54 -32 58 -39 4 -8 14 -14 22 -14 16 0 34 -29 28 -46 -2 -8 -17
-9 -46 -3 -23 4 -52 5 -64 2 -14 -3 -23 -1 -23 7 0 6 -4 9 -8 6 -5 -3 -26 0
-48 6 -52 15 -47 15 -141 16 -48 1 -83 6 -83 12 0 6 3 9 8 9 21 -5 92 15 81
21 -7 5 -18 6 -26 3 -7 -3 -13 0 -13 5 0 6 10 13 23 15 12 2 -5 5 -38 6 -51 1
-57 3 -40 13 12 7 62 12 122 13 56 0 98 4 94 8 -5 5 -66 9 -137 10 -118 1
-125 2 -89 13 61 19 180 16 270 -6z m410 10 c3 -5 1 -10 -4 -10 -6 0 -11 5
-11 10 0 6 2 10 4 10 3 0 8 -4 11 -10z m-150 -34 c55 -11 73 -21 35 -18 -57 4
-127 15 -136 22 -6 6 -13 7 -16 4 -3 -3 -9 0 -13 7 -8 13 4 11 130 -15z m345
-18 c0 -12 -6 -9 -26 13 -19 22 -19 22 4 8 12 -8 22 -17 22 -21z m-136 -20
c-3 -4 -16 -1 -30 8 -32 21 -30 25 5 11 17 -6 28 -14 25 -19z m-699 -8 c3 -6
-1 -7 -9 -4 -18 7 -21 14 -7 14 6 0 13 -4 16 -10z m705 -30 c35 -18 53 -40 33
-40 -30 0 -83 23 -83 36 0 9 -5 12 -12 8 -7 -4 -8 -3 -4 4 10 16 21 15 66 -8z
m-260 -5 c7 -9 8 -15 2 -15 -5 0 -12 7 -16 15 -3 8 -4 15 -2 15 2 0 9 -7 16
-15z m315 5 c3 -5 1 -10 -4 -10 -6 0 -11 5 -11 10 0 6 2 10 4 10 3 0 8 -4 11
-10z m-798 -16 c-3 -3 -12 -4 -19 -1 -8 3 -5 6 6 6 11 1 17 -2 13 -5z m858
-32 c-3 -3 -11 0 -18 7 -9 10 -8 11 6 5 10 -3 15 -9 12 -12z m-735 -41 c0 -5
-11 -11 -25 -13 -17 -4 -25 -1 -25 8 0 8 11 14 25 14 14 0 25 -4 25 -9z m-372
-52 c-12 -16 -24 -25 -26 -19 -2 6 7 19 20 30 31 26 32 25 6 -11z m372 22 c0
-12 -39 -25 -48 -16 -7 7 17 25 36 25 6 0 12 -4 12 -9z m-40 -65 c0 -3 -4 -8
-10 -11 -5 -3 -10 -1 -10 4 0 6 5 11 10 11 6 0 10 -2 10 -4z m33 -27 c5 -3 2
-9 -5 -12 -9 -3 -14 3 -15 15 -1 11 1 16 5 12 4 -5 11 -12 15 -15z m-321 -35
c-4 -10 -33 -6 -46 6 -4 5 -5 13 -1 20 8 13 52 -11 47 -26z m88 -13 c0 -6 -9
-9 -20 -8 -11 1 -20 5 -20 9 0 4 9 8 20 8 11 0 20 -4 20 -9z m117 -37 c-3 -3
-12 -4 -19 -1 -8 3 -5 6 6 6 11 1 17 -2 13 -5z m-287 -94 c0 -5 -5 -10 -11
-10 -5 0 -7 5 -4 10 3 6 8 10 11 10 2 0 4 -4 4 -10z"/>
<path d="M5958 5673 c6 -2 18 -2 25 0 6 3 1 5 -13 5 -14 0 -19 -2 -12 -5z"/>
<path d="M4553 5907 l17 -26 -45 3 c-46 3 -70 -8 -38 -18 17 -5 -26 1 -57 8
-8 2 -25 -1 -37 -5 -13 -5 -51 -11 -85 -15 -35 -3 -67 -10 -72 -15 -6 -5 -19
-9 -30 -9 -16 0 -18 -2 -7 -9 11 -7 11 -10 0 -15 -8 -3 10 -4 39 -1 62 7 71
-10 10 -18 -24 -2 -51 -8 -61 -12 -12 -5 -17 -3 -15 6 2 7 -5 15 -16 17 -11 2
-16 0 -12 -7 4 -6 2 -9 -6 -6 -7 3 -31 -12 -53 -33 -22 -22 -51 -42 -65 -46
-23 -6 -23 -5 -6 6 43 30 67 51 62 55 -5 6 -77 -40 -94 -60 -12 -14 -30 -23
-97 -47 -18 -7 -25 -14 -18 -18 8 -5 5 -12 -10 -21 -20 -13 -21 -13 -8 2 10
13 10 17 1 17 -22 0 -91 -77 -84 -94 3 -9 0 -18 -7 -21 -9 -3 -15 -22 -15 -48
-1 -23 1 -36 3 -29 3 6 11 12 19 12 8 0 14 5 14 11 0 8 5 8 15 -1 9 -8 25 -10
42 -5 16 4 46 8 68 10 22 2 90 25 150 50 61 26 128 51 150 57 22 5 45 14 50
19 6 7 0 6 -18 0 -41 -16 -56 -13 -27 5 25 15 24 15 -15 10 -29 -4 -35 -2 -23
5 9 5 34 9 55 9 54 -1 85 5 112 19 22 12 24 12 18 -8 -3 -14 0 -21 9 -21 27 0
14 -30 -16 -36 -16 -4 -35 -13 -41 -20 -6 -8 -15 -11 -20 -8 -5 3 -9 0 -9 -7
0 -7 -10 -9 -25 -7 -13 3 -23 1 -22 -5 1 -5 -11 -14 -28 -20 -16 -6 -36 -16
-43 -24 -7 -7 -17 -13 -22 -13 -11 0 -95 -81 -95 -92 0 -5 -5 -12 -11 -16 -25
-16 -47 -93 -26 -92 14 1 60 47 66 68 8 25 121 142 137 142 7 0 20 6 28 13 27
23 206 77 258 78 26 0 42 3 35 6 -6 2 -10 9 -6 14 3 5 0 9 -6 9 -6 0 -8 5 -5
10 3 6 0 10 -8 10 -8 0 -18 -7 -21 -16 -3 -9 -12 -14 -19 -11 -6 2 -24 0 -39
-4 -16 -4 -30 -3 -33 2 -4 5 2 9 12 9 15 0 16 2 3 11 -12 8 -9 10 12 6 15 -2
25 0 22 4 -3 5 16 9 43 10 39 1 43 3 23 9 -23 7 -22 8 11 9 20 1 51 4 69 7
l32 7 -32 14 c-18 7 -31 16 -27 19 3 3 13 1 24 -5 45 -24 113 -34 110 -16 -4
19 -71 75 -101 85 -29 9 -29 10 -3 6 22 -3 25 -1 16 11 -7 7 -19 12 -28 11 -9
-2 -15 3 -13 10 1 6 -8 12 -20 12 -12 0 -19 3 -15 6 13 13 58 -8 91 -42 21
-22 40 -33 47 -28 8 5 10 3 5 -7 -4 -8 0 -5 8 5 9 11 16 27 15 35 0 12 -3 10
-9 -4 -6 -13 -9 -15 -9 -5 -1 13 -2 13 -11 0 -5 -8 -11 -12 -13 -10 -35 45
-47 65 -47 78 0 12 4 12 23 -4 l22 -19 -19 22 c-10 12 -21 22 -25 21 -21 -2
-31 4 -31 22 0 10 -10 25 -22 31 -22 12 -22 12 -5 -14z m48 -74 c13 -17 13
-17 -6 -3 -11 8 -22 16 -24 17 -2 2 0 3 6 3 6 0 17 -8 24 -17z m17 -92 c6 0
12 -6 12 -12 0 -7 -7 -8 -17 -4 -10 4 -26 7 -35 7 -10 0 -18 3 -18 7 0 5 10 7
23 6 12 -1 28 -3 35 -4z m-571 -86 c-10 -7 -28 -10 -40 -7 -21 6 -21 6 6 16
15 5 27 14 27 20 0 5 6 4 13 -3 10 -10 8 -15 -6 -26z m383 -5 c0 -5 -11 -10
-25 -10 -14 0 -25 5 -25 10 0 6 11 10 25 10 14 0 25 -4 25 -10z m-313 -36 c-3
-3 -12 -4 -19 -1 -8 3 -5 6 6 6 11 1 17 -2 13 -5z m-307 -23 c-10 -20 -30 -37
-30 -27 0 6 33 46 38 46 1 0 -2 -9 -8 -19z m254 4 c-22 -16 -44 -19 -44 -6 0
11 18 19 44 20 20 1 20 1 0 -14z m79 -12 c-7 -2 -21 -2 -30 0 -10 3 -4 5 12 5
17 0 24 -2 18 -5z m-73 -37 c0 -2 -9 -6 -20 -9 -11 -3 -18 -1 -14 4 5 9 34 13
34 5z m-154 -18 c4 -7 3 -8 -4 -4 -6 4 -22 2 -34 -4 -22 -11 -22 -10 -4 4 24
19 32 20 42 4z m-133 -18 c-3 -11 -9 -20 -15 -20 -5 0 -4 9 2 20 6 11 12 20
14 20 2 0 2 -9 -1 -20z m162 -10 c-3 -5 -10 -10 -16 -10 -5 0 -9 5 -9 10 0 6
7 10 16 10 8 0 12 -4 9 -10z"/>
<path d="M6270 5912 c0 -7 63 -42 75 -42 14 0 1 18 -24 33 -31 18 -51 22 -51
9z"/>
<path d="M5395 5888 c9 -15 14 -31 11 -36 -7 -11 18 -35 26 -26 3 3 6 -1 5 -8
-1 -30 4 -48 13 -48 5 0 6 7 3 17 -4 11 -3 14 5 9 29 -18 8 26 -34 71 -25 27
-38 36 -29 21z"/>
<path d="M5531 5890 c-2 -25 -2 -25 -18 -5 -15 19 -15 19 -8 -10 4 -16 9 -64
11 -105 2 -41 4 -77 5 -80 0 -3 6 22 13 55 7 33 16 71 20 85 5 18 5 21 -3 10
-7 -10 -11 -3 -14 30 -2 25 -4 34 -6 20z"/>
<path d="M4594 5891 c3 -5 16 -11 28 -14 22 -6 22 -5 4 8 -22 17 -40 20 -32 6z"/>
<path d="M4704 5838 c4 -18 9 -52 13 -75 3 -24 9 -40 13 -38 4 3 4 24 -2 47
-5 24 -8 55 -5 71 2 19 -1 27 -11 27 -11 0 -13 -8 -8 -32z"/>
<path d="M4200 5850 c-13 -8 -13 -10 2 -10 9 0 20 5 23 10 8 13 -5 13 -25 0z"/>
<path d="M4816 5807 c-9 -23 -15 -58 -15 -77 1 -24 3 -28 6 -12 2 12 8 20 12
18 4 -3 8 14 9 37 1 23 5 49 8 59 11 36 -4 17 -20 -25z"/>
<path d="M5347 5815 c3 -8 9 -12 14 -9 12 7 11 11 -5 17 -10 4 -13 1 -9 -8z"/>
<path d="M4086 5788 c3 -5 10 -6 15 -3 13 9 11 12 -6 12 -8 0 -12 -4 -9 -9z"/>
<path d="M5419 5764 c12 -15 21 -40 21 -55 0 -16 5 -29 10 -29 6 0 10 7 10 15
0 23 -39 95 -51 95 -6 0 -1 -12 10 -26z"/>
<path d="M5482 5760 c0 -14 2 -19 5 -12 2 6 2 18 0 25 -3 6 -5 1 -5 -13z"/>
<path d="M4772 5753 c-17 -30 -15 -37 4 -19 8 9 14 22 11 29 -2 7 -8 4 -15
-10z"/>
<path d="M5365 5730 c10 -11 20 -18 23 -16 5 6 -23 36 -34 36 -4 0 1 -9 11
-20z"/>
<path d="M5469 5721 c14 -26 31 -36 31 -19 0 7 -9 19 -21 26 -19 12 -19 11
-10 -7z"/>
<path d="M3941 5713 c-14 -9 -21 -11 -17 -5 4 7 6 12 3 12 -11 0 -87 -42 -93
-51 -5 -8 -1 -8 14 0 11 6 28 8 38 4 13 -5 15 -3 9 7 -5 9 -4 11 4 6 10 -6 81
29 81 40 0 9 -16 3 -39 -13z"/>
<path d="M4822 5700 c0 -14 2 -19 5 -12 2 6 2 18 0 25 -3 6 -5 1 -5 -13z"/>
<path d="M5270 5600 c-9 -6 -10 -10 -3 -10 6 0 15 5 18 10 8 12 4 12 -15 0z"/>
<path d="M4668 5549 c17 -16 32 -34 32 -39 0 -5 -21 -3 -47 4 -27 7 -59 14
-72 14 -22 1 -23 0 -5 -14 18 -13 17 -14 -11 -8 -16 3 -34 7 -40 8 -5 2 -19 0
-30 -5 l-20 -8 20 -1 c14 -2 11 -5 -10 -9 -16 -4 -35 -3 -42 1 -7 6 -14 1 -19
-14 -4 -13 -14 -28 -23 -35 -13 -9 -9 -10 19 -4 19 4 43 5 53 3 20 -4 23 -22
5 -23 -15 -1 -55 -7 -83 -12 -11 -2 -29 -7 -40 -12 -75 -31 -111 -50 -122 -64
-7 -9 -13 -11 -13 -6 0 6 -4 4 -9 -4 -5 -8 -20 -15 -33 -16 -12 -1 -23 -6 -22
-11 0 -13 -20 -33 -28 -28 -4 2 -9 -5 -13 -16 -3 -11 -10 -20 -14 -20 -15 0
-61 -49 -61 -65 0 -9 9 -15 25 -15 25 0 25 0 8 -27 l-17 -28 35 31 c24 22 45
31 73 33 21 1 47 8 57 15 18 12 18 13 -6 24 -34 15 -32 25 14 72 44 46 51 48
51 18 0 -29 46 -105 72 -119 32 -17 125 -11 174 10 59 27 80 61 77 132 l-2 57
51 -18 c29 -10 55 -26 59 -37 7 -16 8 -16 8 0 1 9 8 17 17 17 15 0 15 -2 -1
-26 -9 -14 -14 -28 -11 -31 3 -3 1 -14 -5 -24 -8 -15 -13 -17 -27 -8 -24 15
-84 -14 -76 -36 4 -8 1 -15 -7 -15 -7 0 -9 -3 -5 -7 11 -11 40 -10 48 2 5 6 7
4 7 -5 0 -8 -16 -28 -35 -44 -34 -28 -35 -28 -40 -9 -7 24 -44 20 -44 -4 0
-10 6 -13 16 -9 12 5 14 1 9 -15 -7 -21 -6 -21 16 -5 13 9 33 16 44 16 18 -1
19 -1 3 -11 -10 -5 -18 -15 -18 -20 0 -6 5 -7 12 -3 8 5 9 0 6 -14 -4 -15 -2
-22 9 -22 8 0 11 -4 8 -10 -9 -15 6 -12 24 4 9 7 36 16 60 19 25 3 39 2 32 -2
-7 -5 -11 -17 -9 -27 4 -16 7 -14 17 10 6 16 17 34 24 40 16 14 41 85 33 93
-3 4 -6 1 -6 -5 0 -6 -8 -11 -17 -11 -10 1 -28 -2 -40 -6 -19 -6 -23 -4 -23
15 0 19 -4 21 -25 16 -23 -6 -24 -5 -13 13 6 10 16 17 22 15 6 -2 28 12 50 31
32 28 37 39 32 60 -4 14 -16 35 -27 46 -14 14 -18 24 -11 28 8 5 7 15 -3 34
-13 26 -13 27 7 16 11 -6 27 -24 36 -40 23 -40 48 -34 44 9 -6 56 -29 88 -104
145 -20 15 -43 27 -52 27 -8 0 -18 5 -21 10 -3 6 -14 10 -23 10 -13 0 -8 -8
16 -31z m-178 -219 c0 -22 -5 -30 -17 -29 -11 0 -13 3 -5 6 6 2 12 16 12 29 0
13 2 24 5 24 3 0 5 -13 5 -30z m-66 1 c3 -5 -5 -11 -18 -13 -17 -4 -23 -1 -19
9 6 15 29 18 37 4z m-25 -25 c17 4 31 3 31 0 0 -17 -26 -32 -51 -28 -20 3 -28
11 -32 30 -5 24 -4 25 8 9 9 -13 20 -15 44 -11z m391 -15 c0 -8 -43 -41 -54
-41 -3 0 0 11 6 25 10 23 48 36 48 16z m-249 -18 c-11 -5 -11 -7 0 -14 11 -7
9 -9 -7 -9 -12 0 -21 6 -21 15 0 9 9 15 21 14 13 0 16 -3 7 -6z m-181 -28 c0
-8 6 -15 14 -15 14 0 31 -29 21 -38 -2 -3 -11 1 -20 8 -8 7 -15 9 -15 4 0 -5
-5 -2 -10 6 -13 20 -13 50 0 50 6 0 10 -7 10 -15z m150 -25 c0 -11 -4 -20 -10
-20 -5 0 -10 9 -10 20 0 11 5 20 10 20 6 0 10 -9 10 -20z m-80 -30 c0 -5 -5
-10 -11 -10 -5 0 -7 5 -4 10 3 6 8 10 11 10 2 0 4 -4 4 -10z"/>
<path d="M4141 5534 c-22 -16 -112 -52 -191 -76 -19 -6 -30 -13 -23 -15 6 -2
40 7 76 21 69 28 92 32 81 14 -4 -7 -3 -8 5 -4 6 4 9 11 6 16 -2 4 9 13 25 20
16 7 35 18 41 26 15 18 9 18 -20 -2z"/>
<path d="M3774 5449 c-3 -6 -20 -19 -38 -30 -18 -11 -25 -19 -15 -19 9 0 22 7
29 15 7 8 15 13 19 11 4 -3 12 4 19 15 7 10 8 19 3 19 -6 0 -13 -5 -17 -11z"/>
<path d="M3804 5428 l-19 -23 23 19 c21 18 27 26 19 26 -2 0 -12 -10 -23 -22z"/>
<path d="M6840 5421 c0 -7 -5 -9 -12 -5 -7 5 -8 3 -3 -5 5 -9 10 -10 18 -2 6
6 8 14 4 18 -4 3 -7 1 -7 -6z"/>
<path d="M3771 5398 c-1 -21 7 -22 29 -7 13 9 13 10 -2 6 -9 -3 -19 -1 -22 6
-2 7 -5 4 -5 -5z"/>
<path d="M6588 5398 c5 -5 16 -8 23 -6 8 3 3 7 -10 11 -17 4 -21 3 -13 -5z"/>
<path d="M3730 5380 c0 -5 7 -7 15 -4 8 4 15 8 15 10 0 2 -7 4 -15 4 -8 0 -15
-4 -15 -10z"/>
<path d="M3869 5353 c-13 -16 -12 -17 4 -4 9 7 17 15 17 17 0 8 -8 3 -21 -13z"/>
<path d="M3825 5320 c-3 -5 -2 -10 4 -10 5 0 13 5 16 10 3 6 2 10 -4 10 -5 0
-13 -4 -16 -10z"/>
<path d="M4210 5136 c0 -2 9 -6 20 -9 11 -3 20 -1 20 4 0 5 -9 9 -20 9 -11 0
-20 -2 -20 -4z"/>
<path d="M4266 5111 c-4 -5 -2 -12 3 -15 5 -4 12 -2 15 3 4 5 2 12 -3 15 -5 4
-12 2 -15 -3z"/>
<path d="M4477 5113 c-4 -3 -7 -11 -7 -17 0 -6 5 -5 12 2 6 6 9 14 7 17 -3 3
-9 2 -12 -2z"/>
<path d="M4510 5109 c0 -5 5 -7 10 -4 6 3 10 8 10 11 0 2 -4 4 -10 4 -5 0 -10
-5 -10 -11z"/>
<path d="M4346 5094 c-2 -6 7 -9 25 -6 16 2 29 8 29 12 0 12 -49 7 -54 -6z"/>
<path d="M3411 4949 c6 -13 20 -31 29 -41 17 -18 18 -18 24 -1 7 17 -5 31 -47
54 -17 10 -17 8 -6 -12z"/>
<path d="M5536 4487 c3 -10 9 -15 12 -12 3 3 0 11 -7 18 -10 9 -11 8 -5 -6z"/>
<path d="M3505 4428 c-10 -79 -1 -258 19 -367 9 -52 14 -101 12 -108 -9 -21
-40 -15 -84 17 -49 36 -53 36 -70 10 -11 -17 -8 -29 14 -75 15 -30 31 -55 35
-55 4 0 23 -16 42 -35 19 -19 40 -35 46 -35 6 0 40 13 76 29 35 16 73 27 83
24 10 -2 24 -19 30 -37 7 -18 22 -42 33 -52 l22 -19 -8 69 c-6 57 -13 76 -42
115 -44 56 -66 106 -58 130 3 10 -5 40 -19 67 -26 53 -53 140 -86 274 -12 47
-25 89 -30 94 -4 4 -11 -16 -15 -46z"/>
<path d="M5620 4463 c0 -4 11 -21 25 -38 l25 -30 -16 32 c-15 32 -34 52 -34
36z"/>
<path d="M5703 4363 c-7 -3 -13 -8 -13 -13 0 -12 25 -19 39 -11 15 10 -8 31
-26 24z"/>
<path d="M5453 4283 c-7 -2 -13 -11 -13 -19 0 -10 -7 -13 -22 -9 -32 8 -80
-53 -82 -104 -1 -27 -5 -38 -16 -37 -8 1 -16 -9 -18 -21 -2 -13 -7 -23 -11
-23 -10 0 -61 -44 -61 -53 0 -4 11 -6 24 -5 14 1 24 5 24 8 -1 17 3 30 11 30
4 0 6 -11 3 -25 -3 -19 0 -25 14 -25 11 0 15 3 8 8 -6 4 -4 13 7 24 17 16 20
15 50 -20 20 -22 40 -36 51 -34 10 2 18 -2 18 -7 0 -6 -6 -11 -13 -11 -14 0
-42 -49 -33 -58 10 -10 86 -9 79 1 -3 5 0 7 8 5 8 -3 13 -15 11 -26 -2 -12 2
-22 8 -22 7 0 10 6 7 14 -9 22 5 27 20 8 9 -10 12 -11 7 -2 -4 9 -3 12 2 7 5
-5 9 -14 9 -20 0 -7 11 -12 25 -12 15 0 25 6 25 15 0 8 -6 14 -13 12 -8 -1
-11 2 -7 8 7 11 46 14 43 3 -3 -8 5 -13 22 -13 17 0 11 28 -7 34 -10 2 0 3 22
0 37 -4 38 -3 13 7 -16 6 -28 15 -28 21 0 6 -11 8 -24 6 -16 -3 -23 -1 -20 7
3 7 -4 15 -16 18 -16 4 -20 2 -16 -8 9 -24 -32 -13 -45 12 -16 29 -4 41 22 24
19 -11 23 -10 37 11 9 13 17 27 17 31 0 5 8 14 18 21 9 7 17 16 17 19 0 3 11
17 25 31 14 14 25 34 25 46 0 11 5 20 10 20 6 0 10 6 10 13 0 9 -24 13 -95 13
-57 1 -100 6 -109 13 -8 6 -20 10 -27 9 -8 -2 -13 4 -11 12 7 30 11 50 9 49
-1 0 -8 -3 -14 -6z m42 -73 c3 -5 1 -10 -4 -10 -6 0 -11 5 -11 10 0 6 2 10 4
10 3 0 8 -4 11 -10z m-9 -146 c-3 -9 -6 -23 -6 -32 -1 -16 -1 -16 -10 0 -11
18 -3 48 12 48 6 0 7 -7 4 -16z m-86 -9 c0 -5 5 -3 10 5 11 17 13 9 4 -14 -5
-13 -9 -14 -20 -5 -8 6 -21 9 -29 5 -14 -5 -21 5 -10 15 8 9 45 4 45 -6z m174
-30 c-4 -8 -12 -15 -20 -15 -20 0 -17 18 4 23 9 3 18 5 19 6 1 0 0 -6 -3 -14z
m-140 -26 c-6 -11 -24 -2 -24 11 0 5 7 7 15 4 8 -4 12 -10 9 -15z"/>
<path d="M4866 4181 c-35 -7 -56 -35 -39 -52 13 -13 183 -23 183 -11 0 14 -33
40 -73 57 -20 8 -38 14 -39 14 -2 -1 -16 -4 -32 -8z"/>
<path d="M6999 4073 c-13 -16 -12 -17 4 -4 16 13 21 21 13 21 -2 0 -10 -8 -17
-17z"/>
<path d="M6955 4040 c-4 -6 -15 -8 -25 -5 -10 3 -21 1 -25 -5 -4 -6 -13 -9
-21 -6 -8 3 -14 -1 -14 -9 0 -9 -6 -12 -17 -8 -15 5 -16 3 -6 -7 10 -11 20
-11 52 -2 40 12 96 51 74 52 -6 0 -15 -5 -18 -10z"/>
<path d="M5354 3994 c3 -8 6 -18 6 -20 0 -2 5 -4 10 -4 16 0 11 27 -6 34 -12
5 -15 2 -10 -10z"/>
<path d="M5026 3953 c-6 -14 -5 -15 5 -6 7 7 10 15 7 18 -3 3 -9 -2 -12 -12z"/>
<path d="M5333 3913 c-7 -2 -13 -11 -13 -19 0 -9 -5 -12 -12 -8 -6 4 -8 3 -5
-3 4 -6 16 -13 27 -16 17 -4 20 0 20 24 0 16 -1 29 -2 28 -2 0 -9 -3 -15 -6z"/>
<path d="M4958 3903 c7 -3 16 -2 19 1 4 3 -2 6 -13 5 -11 0 -14 -3 -6 -6z"/>
<path d="M5890 3891 c0 -5 7 -11 14 -14 10 -4 13 -1 9 9 -6 15 -23 19 -23 5z"/>
<path d="M5848 3883 c7 -3 16 -2 19 1 4 3 -2 6 -13 5 -11 0 -14 -3 -6 -6z"/>
<path d="M4848 3873 c7 -3 16 -2 19 1 4 3 -2 6 -13 5 -11 0 -14 -3 -6 -6z"/>
<path d="M5768 3873 c7 -3 16 -2 19 1 4 3 -2 6 -13 5 -11 0 -14 -3 -6 -6z"/>
<path d="M5990 3870 c8 -5 20 -10 25 -10 6 0 3 5 -5 10 -8 5 -19 10 -25 10 -5
0 -3 -5 5 -10z"/>
<path d="M4960 3859 c0 -7 -10 -9 -25 -7 -14 3 -22 1 -18 -4 3 -6 19 -7 35 -4
24 5 29 3 26 -12 -2 -9 -13 -18 -26 -20 -12 -2 -22 -7 -22 -12 0 -4 12 -5 28
-1 21 6 28 14 30 39 2 24 -1 32 -12 32 -9 0 -16 -5 -16 -11z"/>
<path d="M5880 3860 c0 -6 7 -13 15 -16 8 -4 15 -12 15 -20 0 -8 7 -14 15 -14
8 0 15 5 15 11 0 5 4 8 9 4 5 -3 12 -2 15 3 2 4 -4 13 -14 20 -16 10 -18 9
-14 -3 9 -22 -9 -18 -24 5 -13 21 -32 27 -32 10z"/>
<path d="M5520 3850 c0 -5 5 -10 10 -10 6 0 10 5 10 10 0 6 -4 10 -10 10 -5 0
-10 -4 -10 -10z"/>
<path d="M5805 3850 c-3 -5 -1 -10 4 -10 6 0 11 5 11 10 0 6 -2 10 -4 10 -3 0
-8 -4 -11 -10z"/>
<path d="M4885 3830 c4 -6 11 -8 16 -5 14 9 11 15 -7 15 -8 0 -12 -5 -9 -10z"/>
<path d="M5078 3826 c-22 -16 -23 -23 -4 -23 8 0 17 9 19 19 3 10 4 18 4 18
-1 0 -10 -7 -19 -14z"/>
<path d="M6847 3779 c-12 -102 -39 -191 -59 -197 -14 -3 -16 -7 -7 -18 14 -17
-7 -48 -25 -37 -6 3 -8 2 -3 -2 4 -5 1 -15 -7 -24 -15 -19 -27 -61 -17 -61 4
0 15 16 24 36 12 24 23 34 32 30 15 -5 72 19 67 30 -2 3 15 15 38 26 30 15 44
17 54 9 15 -13 26 -5 26 20 0 14 -100 221 -115 237 -1 1 -5 -21 -8 -49z"/>
<path d="M5800 3816 c0 -2 11 -6 25 -8 13 -3 22 -1 19 3 -5 9 -44 13 -44 5z"/>
<path d="M4700 3779 c0 -5 5 -7 10 -4 6 3 10 8 10 11 0 2 -4 4 -10 4 -5 0 -10
-5 -10 -11z"/>
<path d="M4970 3760 c0 -5 7 -7 15 -4 8 4 15 8 15 10 0 2 -7 4 -15 4 -8 0 -15
-4 -15 -10z"/>
<path d="M5968 3764 c-8 -8 3 -44 13 -44 5 0 8 9 6 20 -4 23 -11 32 -19 24z"/>
<path d="M6810 3753 c0 -13 5 -23 10 -23 13 0 13 11 0 30 -8 12 -10 11 -10 -7z"/>
<path d="M6020 3749 c0 -5 5 -7 10 -4 6 3 10 8 10 11 0 2 -4 4 -10 4 -5 0 -10
-5 -10 -11z"/>
<path d="M6118 3685 c-2 -2 -31 -6 -64 -9 -34 -3 -79 -14 -100 -24 -32 -14
-69 -17 -209 -17 -167 -1 -235 -12 -220 -35 4 -7 13 -7 26 0 21 12 26 -2 7
-18 -17 -12 -135 -15 -143 -3 -3 5 -1 12 5 16 17 11 11 28 -7 20 -10 -4 -38
-13 -63 -20 -42 -12 -44 -13 -21 -22 15 -6 20 -12 13 -17 -6 -3 -13 -2 -17 4
-11 18 -23 11 -18 -10 5 -17 0 -20 -33 -20 -22 0 -53 4 -71 9 -23 7 -33 6 -36
-2 -2 -8 -40 -12 -118 -12 -138 -1 -159 2 -152 21 3 8 0 14 -6 14 -6 0 -11 -5
-11 -12 0 -9 -3 -9 -11 -1 -8 8 -20 8 -36 2 -58 -22 -183 -27 -241 -10 -37 11
-55 6 -116 -32 -49 -31 -30 -39 38 -15 51 18 136 22 136 6 0 -4 9 -8 21 -8 13
0 18 -4 13 -12 -5 -7 -3 -8 5 -3 7 4 23 2 35 -5 19 -10 29 -8 59 9 l37 21 0
-22 c0 -21 1 -21 13 -3 10 12 22 16 40 13 15 -3 27 -2 27 1 0 11 232 4 260 -7
19 -7 32 -6 53 7 25 14 29 14 37 1 7 -10 10 -11 10 -2 0 8 17 12 50 12 27 0
70 7 95 16 27 9 77 15 118 14 80 -1 113 3 123 13 11 11 33 -13 27 -29 -3 -8 0
-14 5 -14 6 0 9 9 7 19 -5 27 25 37 32 11 3 -11 9 -17 14 -14 5 3 7 11 3 17
-3 7 5 -1 18 -17 17 -20 27 -25 32 -18 4 7 4 17 1 22 -4 6 5 10 19 10 14 0 26
5 26 12 0 6 3 9 6 5 8 -7 84 32 84 44 0 5 18 12 40 15 22 4 45 13 51 20 6 8
15 11 20 8 5 -3 9 -1 9 4 0 5 27 12 60 16 60 7 77 19 41 29 -11 3 -21 4 -23 2z
m-504 -100 c-6 -16 -24 -21 -24 -7 0 11 11 22 21 22 5 0 6 -7 3 -15z"/>
<path d="M5444 3598 c-7 -11 38 -10 56 2 11 8 7 10 -18 8 -19 -1 -36 -6 -38
-10z"/>
<path d="M3666 3452 c-27 -26 47 -66 142 -76 52 -6 63 -4 68 9 11 28 -20 47
-83 52 -32 2 -72 8 -90 13 -17 4 -34 5 -37 2z"/>
<path d="M6716 3413 c-6 -14 -5 -15 5 -6 7 7 10 15 7 18 -3 3 -9 -2 -12 -12z"/>
<path d="M6661 3411 c-9 -6 -10 -11 -2 -15 13 -8 31 1 31 15 0 11 -11 11 -29
0z"/>
<path d="M6683 3373 c-17 -6 -16 -23 1 -23 8 0 16 7 20 15 6 15 1 17 -21 8z"/>
<path d="M6635 3330 c-5 -9 -4 -15 3 -18 20 -6 13 -25 -8 -19 -23 6 -31 -11
-18 -37 7 -13 7 -16 -1 -12 -11 7 -41 -32 -45 -61 -2 -11 -11 -17 -22 -16 -11
1 -13 0 -6 -3 19 -9 14 -24 -9 -24 -21 0 -21 0 2 -21 13 -11 19 -18 13 -15 -7
3 -17 -1 -24 -8 -9 -12 -7 -17 8 -25 18 -10 37 -1 41 19 9 36 15 49 27 54 8 3
14 15 14 26 0 11 5 20 10 20 6 0 10 5 10 11 0 6 7 17 16 26 8 9 13 22 10 29
-3 8 -1 14 3 14 14 0 32 58 20 65 -5 4 -9 -2 -9 -11 0 -17 -1 -16 -13 1 -11
14 -16 15 -22 5z"/>
<path d="M6380 3321 c0 -5 5 -13 10 -16 6 -3 10 -2 10 4 0 5 -4 13 -10 16 -5
3 -10 2 -10 -4z"/>
<path d="M5546 3182 c-3 -5 1 -9 9 -9 8 0 15 4 15 9 0 4 -4 8 -9 8 -6 0 -12
-4 -15 -8z"/>
<path d="M5356 3154 c-3 -8 -14 -14 -25 -14 -23 0 -33 -11 -23 -27 13 -21 62
-20 62 1 0 8 -6 17 -12 19 -8 3 -7 6 4 6 22 1 32 17 14 24 -8 3 -17 -1 -20 -9z"/>
<path d="M5150 3135 c0 -8 4 -15 10 -15 5 0 7 7 4 15 -4 8 -8 15 -10 15 -2 0
-4 -7 -4 -15z"/>
<path d="M5227 3114 c-14 -14 -6 -23 18 -20 25 3 48 16 27 16 -5 0 -17 2 -24
5 -8 3 -17 2 -21 -1z"/>
<path d="M6371 3094 c0 -11 3 -14 6 -6 3 7 2 16 -1 19 -3 4 -6 -2 -5 -13z"/>
<path d="M6390 3080 c0 -5 5 -10 10 -10 6 0 10 5 10 10 0 6 -4 10 -10 10 -5 0
-10 -4 -10 -10z"/>
<path d="M6461 3064 c0 -11 3 -14 6 -6 3 7 2 16 -1 19 -3 4 -6 -2 -5 -13z"/>
<path d="M6363 3044 c0 -17 2 -22 7 -13 5 6 6 18 3 26 -8 19 -10 16 -10 -13z"/>
<path d="M6517 3054 c-4 -4 -7 -16 -7 -26 0 -10 -6 -21 -14 -24 -8 -3 -13 -14
-11 -25 3 -12 -2 -19 -13 -20 -10 0 -12 -3 -4 -6 19 -7 14 -19 -8 -19 -11 0
-20 4 -20 8 0 4 -4 8 -10 8 -5 0 -10 -7 -10 -16 0 -10 7 -14 22 -12 13 2 23
-3 24 -9 1 -7 2 -17 3 -23 0 -5 8 -7 17 -3 11 4 12 8 4 13 -8 5 -9 10 -2 14 6
4 14 26 17 49 5 32 14 48 33 60 19 12 22 17 10 17 -9 0 -18 5 -20 11 -2 5 -7
7 -11 3z"/>
<path d="M6124 2982 c7 -12 69 -32 101 -32 30 0 0 25 -33 26 -15 1 -38 5 -51
9 -17 6 -22 5 -17 -3z"/>
<path d="M6380 2950 c0 -5 5 -10 11 -10 5 0 7 5 4 10 -3 6 -8 10 -11 10 -2 0
-4 -4 -4 -10z"/>
<path d="M6060 2914 c13 -16 43 -47 66 -70 41 -39 80 -101 71 -111 -3 -2 -8 4
-11 15 -8 24 -32 37 -73 41 -7 0 -13 9 -13 19 0 9 -9 28 -20 42 -24 31 -25 24
-4 -19 23 -46 12 -48 -19 -4 -15 21 -27 32 -27 25 0 -7 -4 -10 -10 -7 -5 3 -7
0 -4 -8 5 -15 -22 -31 -37 -21 -5 3 -9 12 -9 20 0 8 -4 14 -9 14 -5 0 -18 3
-28 7 -13 4 -9 -3 11 -25 33 -35 30 -38 -17 -19 -18 8 -45 17 -62 21 -29 7
-30 7 -8 -9 12 -8 26 -14 31 -13 5 2 21 -10 36 -25 21 -23 26 -25 26 -10 0 15
2 16 10 3 5 -8 10 -18 10 -22 0 -9 -63 2 -78 14 -9 8 -11 7 -6 -6 3 -9 9 -16
13 -16 4 0 17 -13 29 -30 31 -42 11 -37 -34 8 -24 24 -39 32 -42 24 -3 -10 -7
-10 -20 0 -12 9 -11 6 2 -10 11 -12 14 -22 8 -22 -7 0 -23 18 -36 39 -27 42
-46 59 -46 42 0 -6 4 -11 9 -11 6 0 16 -12 23 -27 7 -15 29 -38 48 -51 19 -13
41 -34 48 -48 12 -22 8 -21 -40 12 l-53 38 35 -39 c19 -21 45 -47 58 -58 12
-10 22 -24 22 -30 0 -6 -7 -1 -16 11 -12 17 -19 20 -29 12 -10 -8 -15 -8 -20
1 -6 8 -10 7 -17 -2 -7 -10 -8 -9 -4 5 5 13 -2 28 -20 47 -15 16 -28 38 -29
50 -1 12 -9 23 -18 25 -23 3 -21 -3 8 -47 14 -20 28 -48 31 -63 l4 -26 -20 20
c-11 11 -20 25 -20 32 0 6 -2 9 -5 6 -3 -3 -2 -24 4 -47 10 -48 1 -55 -16 -11
-6 17 -16 30 -23 30 -7 0 -6 -8 4 -22 9 -12 16 -29 16 -36 0 -28 -29 16 -39
58 -11 50 -19 60 -31 40 -8 -13 -10 -12 -10 3 0 9 -7 17 -15 17 -8 0 -15 -7
-15 -16 0 -8 -4 -13 -9 -10 -17 11 -5 -26 12 -39 21 -15 23 -39 3 -32 -8 3
-17 3 -20 -1 -4 -3 -15 -7 -26 -9 -14 -2 -20 3 -20 16 0 11 -4 23 -10 26 -5 3
-10 1 -10 -6 0 -10 -3 -10 -12 -1 -10 10 -10 15 1 22 12 7 12 13 3 32 l-13 23
5 -22 c2 -13 0 -25 -5 -28 -4 -3 -7 -33 -5 -65 5 -75 -10 -79 -19 -5 -4 30
-14 60 -23 67 -13 11 -14 10 -4 -9 20 -36 13 -40 -13 -8 -14 17 -25 25 -25 20
0 -6 4 -15 9 -20 19 -20 50 -85 41 -85 -6 0 -10 3 -10 8 0 4 -9 13 -20 20 -23
14 -27 0 -5 -21 11 -11 12 -16 3 -19 -9 -3 -8 -12 5 -31 19 -29 22 -57 7 -57
-5 0 -10 10 -11 23 -1 20 -2 19 -14 -8 -14 -29 -14 -29 -15 -5 0 18 -3 21 -9
11 -21 -32 -25 40 -6 91 4 9 2 19 -3 22 -6 3 -13 -13 -17 -36 -4 -24 -13 -53
-21 -65 -8 -13 -10 -23 -4 -23 5 0 10 -6 10 -14 0 -8 -9 -14 -19 -13 -21 1
-21 4 -1 99 5 22 4 36 -1 32 -5 -3 -9 -16 -9 -29 0 -25 -20 -46 -21 -23 0 7
-4 2 -10 -10 -5 -13 -6 -29 -2 -34 3 -6 1 -8 -5 -4 -6 4 -8 21 -5 41 4 24 2
35 -7 35 -6 0 -10 -6 -7 -12 2 -7 -2 -27 -10 -45 -7 -18 -9 -34 -4 -38 5 -3
12 1 14 7 3 7 6 1 6 -14 1 -21 -4 -28 -18 -28 -17 0 -20 7 -20 48 0 26 -1 54
-2 62 -1 8 1 26 3 40 3 14 3 19 1 13 -7 -21 -23 -15 -23 9 0 12 -2 19 -5 16
-3 -3 -2 -30 3 -60 6 -36 5 -57 -2 -64 -10 -10 -14 18 -17 125 -1 18 -3 21
-10 10 -8 -12 -11 -12 -19 1 -7 11 -9 2 -5 -30 3 -34 2 -39 -4 -20 -9 25 -9
25 -11 -5 -1 -26 -3 -27 -10 -10 -7 18 -9 16 -15 -13 -4 -18 -10 -30 -13 -27
-3 3 -11 -7 -18 -22 l-12 -28 -1 33 c-1 17 4 32 9 32 14 0 12 32 -4 53 -9 12
-16 14 -21 8 -3 -6 -1 -11 4 -11 15 0 14 -47 -1 -56 -8 -5 -9 0 -5 17 6 22 5
23 -8 5 -13 -17 -14 -15 -20 17 -4 20 -4 40 0 46 3 6 2 11 -4 11 -5 0 -12 -6
-14 -12 -2 -7 -3 -1 -1 14 4 34 -12 46 -22 16 -3 -12 -15 -31 -25 -42 -19 -20
-19 -20 -20 15 l-1 34 -9 -30 c-5 -16 -6 -37 -4 -46 3 -9 -1 -22 -9 -28 -8 -7
-13 -18 -11 -24 5 -13 -22 -53 -30 -45 -3 3 2 21 10 41 8 21 13 37 11 37 -8 0
-56 -89 -56 -104 0 -9 -7 -16 -16 -16 -17 0 -12 29 12 68 8 12 10 22 5 22 -6
0 -4 18 5 42 8 23 11 50 8 61 -4 12 -2 17 4 13 6 -3 9 5 8 19 l-1 24 -20 -23
c-11 -12 -28 -29 -38 -36 -17 -13 -17 -12 -6 16 7 16 19 36 26 45 19 23 16 31
-8 24 -18 -6 -20 -4 -15 17 5 18 3 16 -10 -7 -22 -40 -24 -41 -34 -26 -6 11
-13 10 -36 -8 -15 -12 -29 -19 -32 -16 -7 6 40 44 55 45 6 0 15 4 18 10 3 6
-1 7 -9 4 -9 -4 -18 1 -22 10 -8 20 -22 11 -34 -19 -7 -18 -21 -26 -64 -35
-30 -6 -60 -18 -66 -26 -7 -7 -20 -14 -29 -14 -9 0 -1 9 19 22 19 12 38 26 42
32 3 5 20 9 37 8 19 0 29 3 25 9 -3 6 1 18 9 27 23 27 28 52 11 52 -8 0 -18
-8 -21 -17 -4 -10 -17 -29 -30 -43 -19 -19 -26 -21 -33 -11 -4 8 -14 10 -21 7
-8 -4 0 4 16 18 26 23 27 26 10 26 -17 0 -14 6 18 35 37 34 53 60 20 34 -35
-29 -63 -57 -63 -63 0 -3 -9 -15 -20 -26 -11 -11 -20 -26 -20 -34 0 -9 -8 -12
-25 -8 -14 2 -25 0 -25 -7 0 -5 -6 -9 -12 -7 -7 1 -10 1 -5 -1 4 -3 7 -9 7
-15 0 -6 -15 -8 -37 -4 -21 3 -30 2 -20 -2 10 -4 18 -12 17 -17 -1 -5 4 -11
11 -14 7 -2 9 1 5 8 -4 7 0 11 13 11 10 0 26 3 34 6 12 4 15 -3 15 -31 0 -27
-4 -35 -14 -31 -7 3 -16 1 -20 -5 -3 -6 3 -13 15 -16 11 -3 18 -9 15 -14 -3
-5 1 -9 8 -9 9 0 9 -3 -2 -10 -12 -8 -9 -10 14 -10 21 0 27 -4 22 -16 -3 -9
-6 -18 -6 -20 0 -3 -4 -2 -10 1 -6 3 -7 -1 -4 -9 3 -9 17 -16 31 -16 22 0 24
-3 18 -30 -6 -28 -4 -30 20 -30 23 0 25 -2 15 -15 -10 -12 -7 -15 15 -21 19
-5 23 -9 14 -15 -18 -11 -3 -24 29 -24 16 0 26 -5 25 -12 -2 -7 3 -13 11 -13
8 0 16 -7 20 -15 3 -9 12 -12 22 -8 13 5 16 2 12 -8 -6 -15 16 -42 26 -32 3 4
6 -2 6 -13 0 -16 2 -17 10 -4 8 13 12 12 24 -6 11 -15 23 -20 39 -17 25 5 41
-10 42 -37 0 -8 8 -14 17 -14 10 1 15 -2 13 -7 -3 -4 13 -8 35 -7 44 0 70 -15
70 -42 0 -20 30 -36 39 -21 4 6 12 6 21 1 8 -6 22 -10 30 -10 13 0 13 1 0 10
-8 5 -11 12 -7 17 11 10 42 -12 40 -28 -2 -16 84 -72 101 -66 6 3 -6 12 -28
21 -21 10 -36 19 -34 22 3 2 20 -2 39 -10 19 -8 52 -15 74 -17 22 -1 50 -8 62
-16 12 -7 33 -13 47 -13 13 0 45 -16 70 -35 51 -39 68 -45 42 -16 -17 19 -17
20 18 26 46 9 70 -8 61 -44 -4 -19 -3 -22 4 -12 8 12 12 13 26 1 13 -11 18
-11 28 0 9 9 9 11 0 6 -18 -10 -53 48 -53 88 0 27 3 34 15 30 8 -4 15 -10 15
-16 0 -18 26 -36 41 -28 14 9 6 25 -13 25 -6 0 -13 6 -15 13 -7 19 14 14 41
-9 l25 -22 -20 -39 c-11 -22 -18 -49 -16 -61 4 -19 4 -18 6 4 1 23 28 59 44
59 4 0 2 -12 -4 -26 -13 -36 -4 -42 13 -8 7 15 18 29 25 31 17 6 26 -33 13
-57 -10 -19 -10 -20 9 -8 12 7 21 18 21 24 0 6 7 17 15 24 8 7 12 17 8 22 -3
6 -11 1 -18 -12 -8 -16 -14 -19 -20 -11 -4 7 -4 15 -1 19 4 3 -4 12 -16 19
-23 12 -23 12 7 14 118 6 163 4 153 -8 -14 -17 -3 -16 35 3 l32 17 -19 -22
c-11 -12 -29 -21 -40 -20 -12 0 -32 -3 -46 -7 l-25 -8 25 -6 c14 -4 31 -2 38
3 17 13 29 0 14 -15 -7 -7 -12 -16 -12 -20 0 -5 17 8 37 29 21 20 38 44 38 52
0 8 15 19 35 24 19 5 29 12 22 14 -6 3 -9 9 -6 15 3 5 -9 2 -27 -8 -48 -24
-101 -28 -97 -6 2 9 13 18 26 20 12 2 20 8 17 13 -11 17 6 49 26 49 23 0 25
-15 4 -24 -8 -3 -15 -11 -15 -17 0 -8 6 -7 18 3 9 8 32 21 50 29 17 8 32 18
32 24 0 12 40 39 47 31 3 -2 -13 -23 -35 -45 -22 -23 -37 -41 -33 -41 14 0 94
84 83 88 -6 2 -8 10 -5 19 5 12 3 14 -7 8 -9 -5 -11 -4 -6 4 4 6 11 9 15 7 10
-6 54 40 71 74 l13 25 -25 -22 c-34 -32 -44 -28 -16 6 13 17 31 30 41 30 23 1
22 21 -2 21 -22 0 -36 -16 -66 -73 -42 -80 -55 -102 -55 -94 0 5 -13 -6 -29
-23 -23 -25 -34 -31 -52 -25 -21 7 -21 8 -3 17 29 16 64 55 56 64 -4 4 -2 4 5
0 14 -7 33 21 48 74 6 21 24 43 44 57 29 20 31 23 12 23 -11 0 -21 5 -21 10 0
10 13 14 36 11 7 -1 14 6 18 14 3 9 10 13 16 10 5 -3 10 1 10 9 0 9 3 16 8 16
4 0 13 10 21 22 l13 21 -27 -21 c-37 -29 -54 -28 -27 1 12 13 22 31 22 40 0 9
5 19 11 22 6 4 8 13 5 20 -2 7 5 16 17 20 22 7 22 7 -3 15 l-25 8 26 1 c15 1
32 8 40 17 11 13 9 14 -15 8 -16 -4 -37 -1 -52 6 -20 11 -24 21 -24 57 0 24 5
43 10 43 6 0 10 -4 10 -8 0 -5 15 -9 34 -10 35 -1 63 19 51 38 -10 16 -28 12
-21 -5 6 -16 -5 -18 -41 -9 -18 5 -21 10 -13 24 7 13 7 21 0 25 -5 3 -10 14
-10 25 0 10 -7 21 -16 24 -11 4 -15 2 -11 -7 3 -7 -4 -24 -15 -38 l-20 -24 5
27 c2 15 0 25 -4 22 -5 -3 -9 0 -9 5 0 6 -6 11 -13 11 -21 0 -54 42 -62 77 -3
18 -11 35 -16 38 -12 8 -11 -12 2 -36 5 -11 9 -27 7 -35 -2 -11 -13 -5 -38 21
-19 20 -28 34 -20 32 8 -2 12 -2 9 0 -4 2 -5 12 -2 22 3 10 -1 22 -8 26 -9 6
-11 2 -7 -13 6 -22 -6 -30 -17 -12 -3 5 -16 15 -28 21 -21 11 -21 10 3 -17z
m-12 -99 c-3 -3 -9 2 -12 12 -6 14 -5 15 5 6 7 -7 10 -15 7 -18z m165 -47 c6
-22 5 -22 -8 -4 -17 22 -20 40 -6 32 5 -3 11 -16 14 -28z m-166 -13 c4 -4 2
-5 -4 -1 -8 4 -13 1 -13 -8 0 -9 -4 -16 -10 -16 -5 0 -10 9 -10 19 0 19 22 23
37 6z m-139 -81 c-4 -3 -12 5 -18 18 -12 22 -12 22 6 6 10 -10 15 -20 12 -24z
m282 8 c0 -15 -2 -15 -10 -2 -13 20 -13 33 0 25 6 -3 10 -14 10 -23z m-542
-27 c-1 -13 -6 -21 -10 -17 -5 5 -6 16 -2 25 9 24 14 21 12 -8z m-820 -10 c-6
-14 -15 -25 -19 -25 -5 0 -3 11 3 25 6 14 15 25 19 25 5 0 3 -11 -3 -25z
m-122 -2 c-3 -21 -66 -50 -66 -31 0 22 14 36 40 41 14 2 26 5 27 6 1 0 0 -7
-1 -16z m77 -21 c-4 -8 1 -19 11 -24 17 -9 13 -28 -5 -28 -6 0 -7 5 -3 12 4 7
3 8 -5 4 -9 -6 -9 -11 0 -22 15 -18 13 -20 -31 -27 l-35 -7 25 20 25 19 -25
-3 c-14 -1 -32 -6 -39 -11 -9 -5 -12 -3 -9 6 3 8 11 14 19 15 34 1 57 16 62
40 l4 25 -26 -25 c-31 -30 -73 -38 -50 -9 24 29 72 54 80 41 4 -6 5 -18 2 -26z
m1502 -21 c-9 -16 -25 -3 -18 15 4 10 9 12 15 6 6 -6 7 -15 3 -21z m-1675 -20
c0 -6 -4 -13 -10 -16 -5 -3 -10 1 -10 9 0 9 5 16 10 16 6 0 10 -4 10 -9z m233
-64 c-12 -19 -29 -33 -44 -35 l-24 -4 28 22 c15 12 25 26 22 31 -3 4 2 21 12
36 18 27 18 27 21 5 2 -13 -5 -37 -15 -55z m711 34 c-6 -6 -24 19 -24 34 1 6
7 1 15 -9 8 -11 12 -22 9 -25z m-884 19 c0 -5 -2 -10 -4 -10 -3 0 -8 5 -11 10
-3 6 -1 10 4 10 6 0 11 -4 11 -10z m1630 -22 c0 -19 -2 -20 -10 -8 -13 19 -13
30 0 30 6 0 10 -10 10 -22z m-1682 0 c-3 -7 -15 -14 -29 -16 -23 -2 -23 -2 -5
13 24 18 39 20 34 3z m982 -67 c0 -14 -2 -14 -10 -1 -7 11 -10 5 -10 -24 0
-55 -6 -42 -13 29 l-6 60 20 -24 c10 -13 19 -31 19 -40z m-573 27 c-3 -8 -6
-5 -6 6 -1 11 2 17 5 13 3 -3 4 -12 1 -19z m1203 12 c0 -5 -2 -10 -4 -10 -3 0
-8 5 -11 10 -3 6 -1 10 4 10 6 0 11 -4 11 -10z m-1580 -4 c0 -3 -4 -8 -10 -11
-5 -3 -10 -1 -10 4 0 6 5 11 10 11 6 0 10 -2 10 -4z m312 -58 c-6 -6 -8 -1 -7
14 5 46 8 52 12 24 3 -16 0 -33 -5 -38z m815 40 c-3 -8 -6 -5 -6 6 -1 11 2 17
5 13 3 -3 4 -12 1 -19z m-620 -20 c-3 -8 -6 -5 -6 6 -1 11 2 17 5 13 3 -3 4
-12 1 -19z m33 0 c0 -19 -2 -20 -10 -8 -13 19 -13 30 0 30 6 0 10 -10 10 -22z
m477 -10 c-3 -8 -6 -5 -6 6 -1 11 2 17 5 13 3 -3 4 -12 1 -19z m-837 -12 c0
-3 -4 -8 -10 -11 -5 -3 -10 -1 -10 4 0 6 5 11 10 11 6 0 10 -2 10 -4z m430
-85 c0 -10 -9 -21 -20 -24 -24 -6 -26 6 -4 27 20 21 24 20 24 -3z m-435 -31
c-3 -5 -11 -10 -16 -10 -6 0 -7 5 -4 10 3 6 11 10 16 10 6 0 7 -4 4 -10z
m1162 -177 c-9 -2 -15 -8 -13 -11 2 -4 -17 -8 -42 -9 l-47 -2 45 14 c25 7 52
13 60 13 10 0 9 -2 -3 -5z m38 -23 c-27 -12 -43 -12 -25 0 8 5 22 9 30 9 10 0
8 -3 -5 -9z m-875 -46 c0 -17 -22 -14 -28 4 -2 7 3 12 12 12 9 0 16 -7 16 -16z
m-40 -4 c0 -5 -4 -10 -10 -10 -5 0 -10 5 -10 10 0 6 5 10 10 10 6 0 10 -4 10
-10z m815 -10 c-19 -8 -19 -9 2 -9 12 -1 25 4 28 9 3 6 13 10 22 10 11 0 8 -6
-10 -20 -29 -23 -74 -25 -132 -4 -33 11 -35 13 -10 10 17 -2 39 0 50 4 11 5
31 9 45 9 23 0 23 -1 5 -9z m-625 -48 c0 -1 -9 2 -20 8 -11 6 -20 15 -20 20 0
6 9 2 20 -7 11 -10 20 -19 20 -21z m700 29 c0 -12 -20 -25 -27 -18 -7 7 6 27
18 27 5 0 9 -4 9 -9z m-666 -16 c24 -18 15 -31 -11 -16 -10 6 -13 11 -8 11 6
0 3 5 -5 10 -8 5 -10 10 -5 10 6 -1 19 -7 29 -15z m530 -6 c5 -4 -2 -10 -15
-13 -32 -7 -89 -3 -89 7 0 4 0 11 0 17 0 11 90 2 104 -11z m-484 -9 c0 -5 -4
-10 -10 -10 -5 0 -10 5 -10 10 0 6 5 10 10 10 6 0 10 -4 10 -10z m270 -31 c0
-21 -10 -25 -27 -8 -9 9 -8 15 0 24 15 16 27 9 27 -16z m290 11 c-33 -10 -147
-12 -153 -2 -3 4 36 8 87 8 57 1 82 -1 66 -6z m-320 -30 c0 -5 -5 -10 -11 -10
-5 0 -7 5 -4 10 3 6 8 10 11 10 2 0 4 -4 4 -10z m-53 -6 c-3 -3 -12 -4 -19 -1
-8 3 -5 6 6 6 11 1 17 -2 13 -5z"/>
<path d="M6275 2930 c-3 -5 -1 -10 4 -10 6 0 11 5 11 10 0 6 -2 10 -4 10 -3 0
-8 -4 -11 -10z"/>
<path d="M6205 2908 c24 -18 79 -33 71 -20 -3 5 -16 12 -28 15 -13 2 -32 8
-43 12 l-20 7 20 -14z"/>
<path d="M6413 2891 c-7 -10 -9 -22 -6 -25 12 -12 18 -6 19 19 2 30 2 30 -13
6z"/>
<path d="M4573 2870 c-18 -16 -33 -34 -33 -40 0 -20 15 -9 42 30 15 22 27 40
25 40 -1 0 -17 -14 -34 -30z"/>
<path d="M6346 2893 c-9 -10 -7 -25 3 -18 5 3 12 -3 14 -12 4 -14 5 -13 6 4 1
23 -11 37 -23 26z"/>
<path d="M4498 2863 c7 -3 16 -2 19 1 4 3 -2 6 -13 5 -11 0 -14 -3 -6 -6z"/>
<path d="M6254 2846 c30 -26 46 -33 46 -18 0 7 -29 25 -65 40 -5 2 3 -7 19
-22z"/>
<path d="M6460 2860 c0 -5 5 -10 10 -10 6 0 10 5 10 10 0 6 -4 10 -10 10 -5 0
-10 -4 -10 -10z"/>
<path d="M4490 2834 c-22 -12 -23 -13 -5 -13 24 -1 50 14 38 22 -4 3 -19 -1
-33 -9z"/>
<path d="M5986 2837 c3 -10 9 -15 12 -12 3 3 0 11 -7 18 -10 9 -11 8 -5 -6z"/>
<path d="M5810 2815 c14 -16 26 -32 28 -34 1 -2 4 -2 7 1 3 2 -10 18 -28 34
l-32 29 25 -30z"/>
<path d="M6455 2830 c-3 -6 1 -7 9 -4 18 7 21 14 7 14 -6 0 -13 -4 -16 -10z"/>
<path d="M6325 2820 c-3 -5 1 -23 10 -39 8 -17 15 -40 16 -53 0 -14 3 -17 6
-8 2 8 9 25 15 38 19 37 -26 97 -47 62z m39 -25 c3 -8 1 -15 -3 -15 -5 0 -11
7 -15 15 -3 8 -1 15 3 15 5 0 11 -7 15 -15z"/>
<path d="M6408 2808 c-19 -23 -15 -38 9 -38 13 0 13 3 3 15 -10 12 -10 15 4
15 9 0 16 4 16 9 0 20 -16 19 -32 -1z"/>
<path d="M6508 2823 c6 -2 18 -2 25 0 6 3 1 5 -13 5 -14 0 -19 -2 -12 -5z"/>
<path d="M8503 2812 c1 -17 6 -20 32 -16 19 3 24 2 13 -3 -15 -7 -13 -10 12
-25 17 -9 30 -13 30 -7 0 6 5 7 10 4 15 -9 12 -25 -6 -25 -8 0 -13 -4 -9 -9 3
-6 15 -8 26 -6 17 3 19 0 13 -18 -3 -12 -3 -19 1 -15 13 13 32 -35 24 -58 -4
-12 -6 -33 -5 -47 2 -19 -1 -24 -12 -20 -12 5 -12 2 -3 -15 7 -12 17 -22 24
-22 7 0 13 -9 14 -20 1 -11 -1 -20 -5 -20 -4 0 -8 -9 -8 -20 0 -13 7 -20 21
-21 11 0 14 -3 8 -6 -16 -6 -17 -40 -2 -45 5 -2 7 -11 4 -21 -4 -9 -12 -14
-19 -10 -6 4 -5 -1 3 -10 8 -10 9 -17 3 -17 -6 0 -13 -13 -17 -29 -5 -25 -10
-29 -38 -27 -36 1 -69 30 -60 52 3 8 9 14 13 14 4 0 10 10 13 23 6 21 5 21 -8
4 -13 -18 -14 -18 -24 2 -15 27 -14 34 4 27 8 -3 15 -1 15 4 0 6 -4 10 -9 10
-5 0 -11 7 -14 14 -4 10 -1 13 9 9 7 -3 14 0 14 6 0 6 -8 11 -17 12 -13 0 -11
3 7 10 20 8 22 12 10 19 -12 8 -12 10 -1 10 10 0 12 11 8 43 -3 23 -9 50 -12
60 -5 12 -2 17 9 17 9 0 16 4 16 10 0 5 -7 7 -15 4 -8 -4 -15 -1 -15 6 0 7 -8
9 -20 5 -17 -5 -19 -2 -16 29 1 24 -2 36 -10 36 -7 0 -16 5 -20 12 -4 7 -3 8
4 4 7 -4 12 -1 12 8 0 9 -7 16 -16 16 -12 0 -15 -7 -12 -25 3 -14 2 -27 -2
-30 -4 -2 -6 -49 -6 -104 1 -54 -2 -97 -5 -95 -4 2 -4 -11 0 -29 4 -17 6 -61
4 -97 -2 -61 -2 -121 -2 -520 0 -91 0 -174 0 -185 -1 -11 -1 -36 -1 -55 0 -49
-18 -87 -43 -94 -36 -10 -71 -7 -92 7 -11 8 -42 19 -70 26 -27 7 -54 16 -60
20 -5 5 -28 14 -50 21 -22 7 -78 33 -125 57 -46 23 -94 43 -107 43 -12 0 -65
20 -117 45 -52 24 -116 49 -143 55 -71 16 -187 57 -230 82 -21 12 -81 56 -133
98 -134 106 -151 117 -194 125 -20 4 -59 23 -84 41 -159 113 -164 116 -213
111 -29 -4 -51 -1 -58 6 -10 9 -11 5 -5 -18 19 -78 48 -146 89 -205 25 -36 48
-77 51 -90 12 -50 14 -139 4 -145 -5 -3 -10 -22 -10 -42 0 -20 -5 -54 -12 -77
-14 -51 -92 -164 -121 -177 -12 -5 -29 -13 -37 -18 -33 -20 -130 -61 -142 -61
-8 0 -23 -7 -34 -15 -10 -8 -28 -15 -40 -15 -11 0 -23 -3 -27 -6 -6 -6 -53
-11 -197 -19 -47 -3 -119 -9 -160 -14 -61 -7 -80 -5 -102 7 -23 13 -29 13 -43
2 -28 -24 -89 -27 -275 -17 -156 9 -256 22 -340 45 -41 11 -97 23 -125 27 -27
4 -57 13 -66 21 -8 8 -43 16 -76 18 -34 3 -88 16 -122 30 -33 14 -66 26 -73
26 -7 0 -24 6 -38 13 -14 8 -39 18 -55 24 -28 10 -94 51 -218 135 -59 41 -149
132 -198 201 -57 80 -76 140 -89 278 -7 68 -14 126 -15 127 -2 2 -11 -9 -20
-25 -47 -83 -50 -86 -117 -109 -36 -12 -76 -29 -90 -38 -17 -11 -35 -14 -57
-10 -21 5 -37 2 -49 -8 -9 -9 -50 -25 -89 -38 -48 -14 -80 -30 -92 -46 -11
-14 -22 -25 -25 -24 -8 1 -57 -31 -80 -52 -10 -10 -22 -15 -26 -13 -5 3 -10
-2 -14 -10 -3 -8 -12 -15 -19 -15 -17 0 -104 -47 -113 -61 -3 -5 -9 -7 -14 -4
-12 7 -60 -16 -54 -26 3 -5 -3 -8 -13 -7 -38 3 -74 -2 -69 -11 3 -5 -8 -11
-24 -14 -16 -4 -38 -15 -48 -25 -10 -10 -44 -28 -75 -41 -31 -13 -57 -27 -57
-32 0 -5 -7 -9 -16 -9 -9 0 -33 -10 -53 -22 -31 -19 -51 -23 -141 -23 -130 -2
-186 -19 -293 -92 -43 -29 -80 -53 -83 -53 -9 0 -65 -52 -113 -104 -19 -22
-32 -26 -75 -26 -73 0 -224 -19 -244 -30 -9 -5 -60 -16 -112 -25 -182 -29
-283 -101 -453 -325 -40 -52 -103 -129 -142 -171 -38 -42 -86 -98 -105 -124
-19 -26 -50 -66 -69 -89 -19 -22 -51 -66 -71 -97 -20 -31 -52 -76 -71 -100
-19 -23 -43 -57 -54 -74 -11 -18 -36 -53 -55 -79 -19 -26 -51 -77 -72 -114
-20 -37 -44 -79 -53 -94 l-16 -28 4581 0 4580 0 -2 1371 -3 1371 -55 3 c-30 2
-104 6 -165 10 -60 4 -112 8 -115 10 -3 1 -59 6 -124 9 -66 4 -122 9 -125 10
-3 2 -73 7 -156 10 -173 8 -271 14 -335 21 -110 12 -328 17 -362 7 -25 -7 -39
-7 -47 1 -7 7 -10 4 -8 -11z m170 -222 c-3 -11 -9 -18 -13 -15 -5 3 -6 14 -3
25 3 11 9 18 13 15 5 -3 6 -14 3 -25z m-25 -322 c14 5 15 4 2 -10 -12 -12 -17
-13 -27 -2 -7 7 -13 16 -13 20 0 5 5 3 11 -3 6 -6 19 -9 27 -5z m-58 -28 c0
-5 -2 -10 -4 -10 -3 0 -8 5 -11 10 -3 6 -1 10 4 10 6 0 11 -4 11 -10z"/>
<path d="M4710 2810 c-9 -6 -10 -10 -3 -10 6 0 15 5 18 10 8 12 4 12 -15 0z"/>
<path d="M5650 2796 c0 -2 8 -10 18 -17 15 -13 16 -12 3 4 -13 16 -21 21 -21
13z"/>
<path d="M4597 2783 c-4 -3 -19 -8 -33 -9 -32 -3 -54 -21 -48 -38 3 -7 -2 -19
-11 -26 -12 -10 -15 -10 -15 0 0 8 -3 11 -6 7 -3 -3 -3 -11 1 -17 5 -8 12 -6
25 5 10 9 26 15 35 13 11 -2 26 11 41 35 23 34 27 46 11 30z"/>
<path d="M5565 2770 c-3 -5 1 -10 10 -10 9 0 13 5 10 10 -3 6 -8 10 -10 10 -2
0 -7 -4 -10 -10z"/>
<path d="M5740 2760 c0 -5 5 -10 11 -10 5 0 7 5 4 10 -3 6 -8 10 -11 10 -2 0
-4 -4 -4 -10z"/>
<path d="M6381 2747 c-9 -12 -7 -16 9 -20 21 -5 25 0 11 21 -6 10 -10 10 -20
-1z"/>
<path d="M8542 2736 c2 -16 9 -31 17 -34 10 -3 11 2 6 19 -12 39 -27 48 -23
15z"/>
<path d="M4440 2740 c-13 -8 -12 -10 3 -10 9 0 17 5 17 10 0 12 -1 12 -20 0z"/>
<path d="M5712 2670 c0 -19 2 -27 5 -17 2 9 2 25 0 35 -3 9 -5 1 -5 -18z"/>
<path d="M5241 2674 c0 -11 3 -14 6 -6 3 7 2 16 -1 19 -3 4 -6 -2 -5 -13z"/>
<path d="M6380 2660 c-8 -5 -28 -12 -44 -15 -22 -5 -26 -9 -16 -15 7 -4 20 -5
29 -2 13 5 13 3 -1 -12 -10 -9 -18 -20 -18 -24 0 -4 14 8 31 26 16 17 34 32
40 32 5 0 9 5 9 10 0 12 -10 12 -30 0z"/>
<path d="M4982 2640 c0 -14 2 -19 5 -12 2 6 2 18 0 25 -3 6 -5 1 -5 -13z"/>
<path d="M5251 2624 c0 -11 3 -14 6 -6 3 7 2 16 -1 19 -3 4 -6 -2 -5 -13z"/>
<path d="M4929 2618 c-4 -18 -9 -81 -6 -78 13 15 25 70 16 75 -5 4 -9 5 -10 3z"/>
<path d="M6460 2565 c-11 -13 -10 -14 4 -9 9 3 16 10 16 15 0 13 -6 11 -20 -6z"/>
<path d="M8595 2510 c-3 -5 -2 -10 4 -10 5 0 13 5 16 10 3 6 2 10 -4 10 -5 0
-13 -4 -16 -10z"/>
<path d="M6355 2480 c-3 -5 -1 -10 4 -10 6 0 11 5 11 10 0 6 -2 10 -4 10 -3 0
-8 -4 -11 -10z"/>
<path d="M8590 2456 c0 -9 5 -16 10 -16 6 0 10 4 10 9 0 6 -4 13 -10 16 -5 3
-10 -1 -10 -9z"/>
<path d="M8598 2323 c7 -3 16 -2 19 1 4 3 -2 6 -13 5 -11 0 -14 -3 -6 -6z"/>
<path d="M6334 2289 c-19 -22 -19 -22 4 -8 12 8 22 17 22 21 0 12 -6 9 -26
-13z"/>
<path d="M6263 2198 c-22 -24 -39 -49 -36 -55 5 -13 33 17 66 70 24 37 18 34
-30 -15z"/>
<path d="M6270 2145 c-7 -14 -17 -25 -21 -25 -19 0 -119 -112 -119 -134 0 -5
11 5 24 23 20 27 82 81 93 81 11 0 -3 -23 -39 -62 -24 -25 -59 -67 -78 -94
l-35 -49 43 33 c36 29 42 31 43 15 0 -16 1 -16 8 2 5 11 4 22 0 23 -5 2 -9 7
-9 11 0 11 67 81 72 76 3 -3 15 6 28 20 13 14 18 25 12 25 -6 0 -16 -8 -22
-17 -9 -16 -10 -15 -5 5 4 13 2 22 -5 22 -6 0 -1 13 11 30 13 16 20 32 17 35
-2 3 -11 -6 -18 -20z"/>
<path d="M6296 2123 c-6 -14 -5 -15 5 -6 7 7 10 15 7 18 -3 3 -9 -2 -12 -12z"/>
<path d="M5002 2123 c-6 -2 -10 -9 -6 -14 8 -14 21 -11 21 6 0 8 -1 15 -1 14
-1 0 -7 -3 -14 -6z"/>
<path d="M6330 2110 c-6 -11 -7 -20 -2 -20 6 0 12 9 15 20 3 11 3 20 1 20 -2
0 -8 -9 -14 -20z"/>
<path d="M5030 2110 c0 -5 5 -10 10 -10 6 0 10 5 10 10 0 6 -4 10 -10 10 -5 0
-10 -4 -10 -10z"/>
<path d="M5038 2074 c13 -24 81 -84 95 -84 6 0 8 1 6 3 -2 2 -28 26 -58 53
-30 27 -49 40 -43 28z"/>
<path d="M5016 2048 c16 -18 30 -35 32 -37 1 -2 2 2 2 10 0 18 -36 59 -52 59
-7 0 1 -15 18 -32z"/>
<path d="M5097 2050 c7 -7 21 -14 32 -15 11 -1 27 -7 35 -14 14 -12 16 -11 10
3 -7 17 -7 17 -40 21 -12 1 -28 6 -35 10 -11 6 -12 5 -2 -5z"/>
<path d="M5190 2005 c0 -2 20 -15 45 -28 36 -21 43 -22 36 -8 -8 14 -81 47
-81 36z"/>
<path d="M5403 1959 c31 -16 57 -34 57 -39 0 -6 5 -10 11 -10 6 0 22 -14 36
-30 14 -17 28 -29 30 -26 5 5 -11 27 -39 53 -9 9 -14 21 -11 27 3 6 3 8 -2 4
-4 -4 -34 6 -66 22 -32 17 -62 30 -66 30 -4 -1 18 -14 50 -31z"/>
<path d="M5080 1960 c0 -5 5 -10 10 -10 6 0 10 5 10 10 0 6 -4 10 -10 10 -5 0
-10 -4 -10 -10z"/>
<path d="M5235 1946 c17 -14 34 -26 39 -26 11 0 11 0 -34 29 l-35 23 30 -26z"/>
<path d="M6222 1944 c-7 -8 -8 -14 -3 -14 10 0 25 19 20 25 -2 1 -10 -3 -17
-11z"/>
<path d="M5157 1931 c6 -23 40 -34 62 -21 14 8 13 9 -4 10 -11 0 -30 7 -42 15
-19 14 -21 13 -16 -4z"/>
<path d="M5393 1909 c9 -5 17 -19 17 -29 0 -11 5 -20 11 -20 6 0 27 -12 47
-27 l37 -27 -25 27 c-22 25 -22 27 -5 22 11 -3 4 2 -15 11 -19 9 -40 24 -48
35 -7 10 -19 19 -25 19 -7 0 -4 -5 6 -11z"/>
<path d="M5340 1893 c8 -3 24 -13 35 -22 20 -16 20 -16 1 7 -11 12 -26 22 -35
21 -14 0 -14 -1 -1 -6z"/>
<path d="M5160 1870 c0 -5 5 -10 11 -10 5 0 7 5 4 10 -3 6 -8 10 -11 10 -2 0
-4 -4 -4 -10z"/>
<path d="M5690 1869 c0 -8 7 -23 15 -33 11 -14 15 -16 15 -5 0 8 -7 23 -15 33
-11 14 -15 16 -15 5z"/>
<path d="M6170 1858 c-12 -22 -12 -22 6 -6 10 10 15 20 12 24 -4 3 -12 -5 -18
-18z"/>
<path d="M5773 1825 c0 -22 2 -30 4 -17 2 12 2 30 0 40 -3 9 -5 -1 -4 -23z"/>
<path d="M5330 1846 c0 -2 12 -12 28 -21 l27 -18 -19 21 c-17 20 -36 29 -36
18z"/>
<path d="M5425 1820 c3 -5 8 -10 11 -10 2 0 4 5 4 10 0 6 -5 10 -11 10 -5 0
-7 -4 -4 -10z"/>
<path d="M5396 1796 c3 -9 16 -16 28 -15 14 0 16 2 6 6 -8 3 -21 10 -28 16 -9
7 -11 6 -6 -7z"/>
</g>
</svg>
